M48
; DRILL file {KiCad (5.1.0-1195-gcea9cd417)} date Sunday, August 04, 2019 at 11:05:46 PM
; FORMAT={-:-/ absolute / metric / decimal}
; #@! TF.CreationDate,2019-08-04T23:05:46-07:00
; #@! TF.GenerationSoftware,Kicad,Pcbnew,(5.1.0-1195-gcea9cd417)
; #@! TF.FileFunction,Plated,1,2,PTH
FMAT,2
METRIC
T1C0.400
T2C0.800
T3C1.000
T4C1.200
%
G90
G05
T1
X97.441Y-77.756
X98.425Y-81.915
X98.63Y-80.023
X99.07Y-82.679
X99.695Y-73.66
X99.695Y-74.93
X101.6Y-76.2
X102.87Y-68.031
X106.915Y-78.77
X107.315Y-71.755
X108.585Y-65.405
X108.909Y-75.3
X110.317Y-82.582
X110.49Y-61.595
X110.49Y-84.455
X111.125Y-86.36
X111.76Y-68.58
X111.76Y-71.003
X111.76Y-72.507
X112.363Y-82.06
T2
X100.235Y-64.77
X102.235Y-64.77
T3
X95.25Y-73.66
X95.25Y-76.2
X95.25Y-78.74
X95.25Y-81.28
X95.25Y-83.82
X95.25Y-59.69
X95.25Y-62.23
X95.25Y-64.77
X95.25Y-67.31
T4
X116.84Y-90.17
X119.38Y-90.17
X121.92Y-90.17
X124.46Y-90.17
X116.84Y-83.185
X119.38Y-83.185
X121.92Y-83.185
X124.46Y-83.185
X116.84Y-76.2
X119.38Y-76.2
X121.92Y-76.2
X124.46Y-76.2
X116.84Y-69.215
X119.38Y-69.215
X121.92Y-69.215
X124.46Y-69.215
T0
M30
