G04 #@! TF.GenerationSoftware,KiCad,Pcbnew,(5.1.0-1195-gcea9cd417)*
G04 #@! TF.CreationDate,2019-08-04T23:05:19-07:00*
G04 #@! TF.ProjectId,URanger,5552616e-6765-4722-9e6b-696361645f70,n/c*
G04 #@! TF.SameCoordinates,Original*
G04 #@! TF.FileFunction,Paste,Bot*
G04 #@! TF.FilePolarity,Positive*
%FSLAX46Y46*%
G04 Gerber Fmt 4.6, Leading zero omitted, Abs format (unit mm)*
G04 Created by KiCad (PCBNEW (5.1.0-1195-gcea9cd417)) date 2019-08-04 23:05:19*
%MOMM*%
%LPD*%
G04 APERTURE LIST*
%ADD10R,1.550000X1.300000*%
%ADD11C,0.100000*%
%ADD12C,1.150000*%
%ADD13C,1.425000*%
G04 APERTURE END LIST*
D10*
X100795000Y-84165000D03*
X100795000Y-79665000D03*
X108755000Y-79665000D03*
X108755000Y-84165000D03*
X101110225Y-73385000D03*
X101110225Y-68885000D03*
X109070225Y-68885000D03*
X109070225Y-73385000D03*
D11*
G36*
X107980671Y-85679030D02*
G01*
X108061777Y-85733223D01*
X108115970Y-85814329D01*
X108135000Y-85909999D01*
X108135000Y-86810001D01*
X108115970Y-86905671D01*
X108061777Y-86986777D01*
X107980671Y-87040970D01*
X107885001Y-87060000D01*
X107234999Y-87060000D01*
X107139329Y-87040970D01*
X107058223Y-86986777D01*
X107004030Y-86905671D01*
X106985000Y-86810001D01*
X106985000Y-85909999D01*
X107004030Y-85814329D01*
X107058223Y-85733223D01*
X107139329Y-85679030D01*
X107234999Y-85660000D01*
X107885001Y-85660000D01*
X107980671Y-85679030D01*
X107980671Y-85679030D01*
G37*
D12*
X107560000Y-86360000D03*
D11*
G36*
X110030671Y-85679030D02*
G01*
X110111777Y-85733223D01*
X110165970Y-85814329D01*
X110185000Y-85909999D01*
X110185000Y-86810001D01*
X110165970Y-86905671D01*
X110111777Y-86986777D01*
X110030671Y-87040970D01*
X109935001Y-87060000D01*
X109284999Y-87060000D01*
X109189329Y-87040970D01*
X109108223Y-86986777D01*
X109054030Y-86905671D01*
X109035000Y-86810001D01*
X109035000Y-85909999D01*
X109054030Y-85814329D01*
X109108223Y-85733223D01*
X109189329Y-85679030D01*
X109284999Y-85660000D01*
X109935001Y-85660000D01*
X110030671Y-85679030D01*
X110030671Y-85679030D01*
G37*
D12*
X109610000Y-86360000D03*
D11*
G36*
X107980671Y-74884030D02*
G01*
X108061777Y-74938223D01*
X108115970Y-75019329D01*
X108135000Y-75114999D01*
X108135000Y-76015001D01*
X108115970Y-76110671D01*
X108061777Y-76191777D01*
X107980671Y-76245970D01*
X107885001Y-76265000D01*
X107234999Y-76265000D01*
X107139329Y-76245970D01*
X107058223Y-76191777D01*
X107004030Y-76110671D01*
X106985000Y-76015001D01*
X106985000Y-75114999D01*
X107004030Y-75019329D01*
X107058223Y-74938223D01*
X107139329Y-74884030D01*
X107234999Y-74865000D01*
X107885001Y-74865000D01*
X107980671Y-74884030D01*
X107980671Y-74884030D01*
G37*
D12*
X107560000Y-75565000D03*
D11*
G36*
X110030671Y-74884030D02*
G01*
X110111777Y-74938223D01*
X110165970Y-75019329D01*
X110185000Y-75114999D01*
X110185000Y-76015001D01*
X110165970Y-76110671D01*
X110111777Y-76191777D01*
X110030671Y-76245970D01*
X109935001Y-76265000D01*
X109284999Y-76265000D01*
X109189329Y-76245970D01*
X109108223Y-76191777D01*
X109054030Y-76110671D01*
X109035000Y-76015001D01*
X109035000Y-75114999D01*
X109054030Y-75019329D01*
X109108223Y-74938223D01*
X109189329Y-74884030D01*
X109284999Y-74865000D01*
X109935001Y-74865000D01*
X110030671Y-74884030D01*
X110030671Y-74884030D01*
G37*
D12*
X109610000Y-75565000D03*
D11*
G36*
X107980671Y-87584030D02*
G01*
X108061777Y-87638223D01*
X108115970Y-87719329D01*
X108135000Y-87814999D01*
X108135000Y-88715001D01*
X108115970Y-88810671D01*
X108061777Y-88891777D01*
X107980671Y-88945970D01*
X107885001Y-88965000D01*
X107234999Y-88965000D01*
X107139329Y-88945970D01*
X107058223Y-88891777D01*
X107004030Y-88810671D01*
X106985000Y-88715001D01*
X106985000Y-87814999D01*
X107004030Y-87719329D01*
X107058223Y-87638223D01*
X107139329Y-87584030D01*
X107234999Y-87565000D01*
X107885001Y-87565000D01*
X107980671Y-87584030D01*
X107980671Y-87584030D01*
G37*
D12*
X107560000Y-88265000D03*
D11*
G36*
X110030671Y-87584030D02*
G01*
X110111777Y-87638223D01*
X110165970Y-87719329D01*
X110185000Y-87814999D01*
X110185000Y-88715001D01*
X110165970Y-88810671D01*
X110111777Y-88891777D01*
X110030671Y-88945970D01*
X109935001Y-88965000D01*
X109284999Y-88965000D01*
X109189329Y-88945970D01*
X109108223Y-88891777D01*
X109054030Y-88810671D01*
X109035000Y-88715001D01*
X109035000Y-87814999D01*
X109054030Y-87719329D01*
X109108223Y-87638223D01*
X109189329Y-87584030D01*
X109284999Y-87565000D01*
X109935001Y-87565000D01*
X110030671Y-87584030D01*
X110030671Y-87584030D01*
G37*
D12*
X109610000Y-88265000D03*
D11*
G36*
X107980671Y-76789030D02*
G01*
X108061777Y-76843223D01*
X108115970Y-76924329D01*
X108135000Y-77019999D01*
X108135000Y-77920001D01*
X108115970Y-78015671D01*
X108061777Y-78096777D01*
X107980671Y-78150970D01*
X107885001Y-78170000D01*
X107234999Y-78170000D01*
X107139329Y-78150970D01*
X107058223Y-78096777D01*
X107004030Y-78015671D01*
X106985000Y-77920001D01*
X106985000Y-77019999D01*
X107004030Y-76924329D01*
X107058223Y-76843223D01*
X107139329Y-76789030D01*
X107234999Y-76770000D01*
X107885001Y-76770000D01*
X107980671Y-76789030D01*
X107980671Y-76789030D01*
G37*
D12*
X107560000Y-77470000D03*
D11*
G36*
X110030671Y-76789030D02*
G01*
X110111777Y-76843223D01*
X110165970Y-76924329D01*
X110185000Y-77019999D01*
X110185000Y-77920001D01*
X110165970Y-78015671D01*
X110111777Y-78096777D01*
X110030671Y-78150970D01*
X109935001Y-78170000D01*
X109284999Y-78170000D01*
X109189329Y-78150970D01*
X109108223Y-78096777D01*
X109054030Y-78015671D01*
X109035000Y-77920001D01*
X109035000Y-77019999D01*
X109054030Y-76924329D01*
X109108223Y-76843223D01*
X109189329Y-76789030D01*
X109284999Y-76770000D01*
X109935001Y-76770000D01*
X110030671Y-76789030D01*
X110030671Y-76789030D01*
G37*
D12*
X109610000Y-77470000D03*
D11*
G36*
X106185671Y-86139030D02*
G01*
X106266777Y-86193223D01*
X106320970Y-86274329D01*
X106340000Y-86370000D01*
X106340000Y-87620000D01*
X106320970Y-87715671D01*
X106266777Y-87796777D01*
X106185671Y-87850970D01*
X106090000Y-87870000D01*
X105165000Y-87870000D01*
X105069329Y-87850970D01*
X104988223Y-87796777D01*
X104934030Y-87715671D01*
X104915000Y-87620000D01*
X104915000Y-86370000D01*
X104934030Y-86274329D01*
X104988223Y-86193223D01*
X105069329Y-86139030D01*
X105165000Y-86120000D01*
X106090000Y-86120000D01*
X106185671Y-86139030D01*
X106185671Y-86139030D01*
G37*
D13*
X105627500Y-86995000D03*
D11*
G36*
X103210671Y-86139030D02*
G01*
X103291777Y-86193223D01*
X103345970Y-86274329D01*
X103365000Y-86370000D01*
X103365000Y-87620000D01*
X103345970Y-87715671D01*
X103291777Y-87796777D01*
X103210671Y-87850970D01*
X103115000Y-87870000D01*
X102190000Y-87870000D01*
X102094329Y-87850970D01*
X102013223Y-87796777D01*
X101959030Y-87715671D01*
X101940000Y-87620000D01*
X101940000Y-86370000D01*
X101959030Y-86274329D01*
X102013223Y-86193223D01*
X102094329Y-86139030D01*
X102190000Y-86120000D01*
X103115000Y-86120000D01*
X103210671Y-86139030D01*
X103210671Y-86139030D01*
G37*
D13*
X102652500Y-86995000D03*
D11*
G36*
X106185671Y-75344030D02*
G01*
X106266777Y-75398223D01*
X106320970Y-75479329D01*
X106340000Y-75575000D01*
X106340000Y-76825000D01*
X106320970Y-76920671D01*
X106266777Y-77001777D01*
X106185671Y-77055970D01*
X106090000Y-77075000D01*
X105165000Y-77075000D01*
X105069329Y-77055970D01*
X104988223Y-77001777D01*
X104934030Y-76920671D01*
X104915000Y-76825000D01*
X104915000Y-75575000D01*
X104934030Y-75479329D01*
X104988223Y-75398223D01*
X105069329Y-75344030D01*
X105165000Y-75325000D01*
X106090000Y-75325000D01*
X106185671Y-75344030D01*
X106185671Y-75344030D01*
G37*
D13*
X105627500Y-76200000D03*
D11*
G36*
X103210671Y-75344030D02*
G01*
X103291777Y-75398223D01*
X103345970Y-75479329D01*
X103365000Y-75575000D01*
X103365000Y-76825000D01*
X103345970Y-76920671D01*
X103291777Y-77001777D01*
X103210671Y-77055970D01*
X103115000Y-77075000D01*
X102190000Y-77075000D01*
X102094329Y-77055970D01*
X102013223Y-77001777D01*
X101959030Y-76920671D01*
X101940000Y-76825000D01*
X101940000Y-75575000D01*
X101959030Y-75479329D01*
X102013223Y-75398223D01*
X102094329Y-75344030D01*
X102190000Y-75325000D01*
X103115000Y-75325000D01*
X103210671Y-75344030D01*
X103210671Y-75344030D01*
G37*
D13*
X102652500Y-76200000D03*
M02*
