G04 #@! TF.GenerationSoftware,KiCad,Pcbnew,(5.1.0-1195-gcea9cd417)*
G04 #@! TF.CreationDate,2019-08-04T23:05:19-07:00*
G04 #@! TF.ProjectId,URanger,5552616e-6765-4722-9e6b-696361645f70,n/c*
G04 #@! TF.SameCoordinates,Original*
G04 #@! TF.FileFunction,Legend,Top*
G04 #@! TF.FilePolarity,Positive*
%FSLAX46Y46*%
G04 Gerber Fmt 4.6, Leading zero omitted, Abs format (unit mm)*
G04 Created by KiCad (PCBNEW (5.1.0-1195-gcea9cd417)) date 2019-08-04 23:05:19*
%MOMM*%
%LPD*%
G04 APERTURE LIST*
%ADD10C,0.150000*%
%ADD11C,0.120000*%
G04 APERTURE END LIST*
D10*
X93162380Y-80216190D02*
X92162380Y-80216190D01*
X92162380Y-79835238D01*
X92210000Y-79740000D01*
X92257619Y-79692380D01*
X92352857Y-79644761D01*
X92495714Y-79644761D01*
X92590952Y-79692380D01*
X92638571Y-79740000D01*
X92686190Y-79835238D01*
X92686190Y-80216190D01*
X93162380Y-79216190D02*
X92495714Y-79216190D01*
X92686190Y-79216190D02*
X92590952Y-79168571D01*
X92543333Y-79120952D01*
X92495714Y-79025714D01*
X92495714Y-78930476D01*
X93162380Y-78454285D02*
X93114761Y-78549523D01*
X93067142Y-78597142D01*
X92971904Y-78644761D01*
X92686190Y-78644761D01*
X92590952Y-78597142D01*
X92543333Y-78549523D01*
X92495714Y-78454285D01*
X92495714Y-78311428D01*
X92543333Y-78216190D01*
X92590952Y-78168571D01*
X92686190Y-78120952D01*
X92971904Y-78120952D01*
X93067142Y-78168571D01*
X93114761Y-78216190D01*
X93162380Y-78311428D01*
X93162380Y-78454285D01*
X92495714Y-77263809D02*
X93305238Y-77263809D01*
X93400476Y-77311428D01*
X93448095Y-77359047D01*
X93495714Y-77454285D01*
X93495714Y-77597142D01*
X93448095Y-77692380D01*
X93114761Y-77263809D02*
X93162380Y-77359047D01*
X93162380Y-77549523D01*
X93114761Y-77644761D01*
X93067142Y-77692380D01*
X92971904Y-77740000D01*
X92686190Y-77740000D01*
X92590952Y-77692380D01*
X92543333Y-77644761D01*
X92495714Y-77549523D01*
X92495714Y-77359047D01*
X92543333Y-77263809D01*
X92543333Y-67762380D02*
X92210000Y-67286190D01*
X91971904Y-67762380D02*
X91971904Y-66762380D01*
X92352857Y-66762380D01*
X92448095Y-66810000D01*
X92495714Y-66857619D01*
X92543333Y-66952857D01*
X92543333Y-67095714D01*
X92495714Y-67190952D01*
X92448095Y-67238571D01*
X92352857Y-67286190D01*
X91971904Y-67286190D01*
X92876666Y-66762380D02*
X93543333Y-67762380D01*
X93543333Y-66762380D02*
X92876666Y-67762380D01*
X91948095Y-64222380D02*
X92519523Y-64222380D01*
X92233809Y-65222380D02*
X92233809Y-64222380D01*
X92757619Y-64222380D02*
X93424285Y-65222380D01*
X93424285Y-64222380D02*
X92757619Y-65222380D01*
X92329047Y-62301428D02*
X93090952Y-62301428D01*
X92329047Y-59761428D02*
X93090952Y-59761428D01*
X92710000Y-60142380D02*
X92710000Y-59380476D01*
X100775000Y-91257380D02*
X100775000Y-90257380D01*
X101013095Y-90257380D01*
X101155952Y-90305000D01*
X101251190Y-90400238D01*
X101298809Y-90495476D01*
X101346428Y-90685952D01*
X101346428Y-90828809D01*
X101298809Y-91019285D01*
X101251190Y-91114523D01*
X101155952Y-91209761D01*
X101013095Y-91257380D01*
X100775000Y-91257380D01*
X101775000Y-91257380D02*
X101775000Y-90257380D01*
X102108333Y-90971666D01*
X102441666Y-90257380D01*
X102441666Y-91257380D01*
X103251190Y-90733571D02*
X102917857Y-90733571D01*
X102917857Y-91257380D02*
X102917857Y-90257380D01*
X103394047Y-90257380D01*
X103775000Y-90733571D02*
X104108333Y-90733571D01*
X104251190Y-91257380D02*
X103775000Y-91257380D01*
X103775000Y-90257380D01*
X104251190Y-90257380D01*
X105394047Y-90352619D02*
X105441666Y-90305000D01*
X105536904Y-90257380D01*
X105775000Y-90257380D01*
X105870238Y-90305000D01*
X105917857Y-90352619D01*
X105965476Y-90447857D01*
X105965476Y-90543095D01*
X105917857Y-90685952D01*
X105346428Y-91257380D01*
X105965476Y-91257380D01*
X106584523Y-90257380D02*
X106679761Y-90257380D01*
X106775000Y-90305000D01*
X106822619Y-90352619D01*
X106870238Y-90447857D01*
X106917857Y-90638333D01*
X106917857Y-90876428D01*
X106870238Y-91066904D01*
X106822619Y-91162142D01*
X106775000Y-91209761D01*
X106679761Y-91257380D01*
X106584523Y-91257380D01*
X106489285Y-91209761D01*
X106441666Y-91162142D01*
X106394047Y-91066904D01*
X106346428Y-90876428D01*
X106346428Y-90638333D01*
X106394047Y-90447857D01*
X106441666Y-90352619D01*
X106489285Y-90305000D01*
X106584523Y-90257380D01*
X107870238Y-91257380D02*
X107298809Y-91257380D01*
X107584523Y-91257380D02*
X107584523Y-90257380D01*
X107489285Y-90400238D01*
X107394047Y-90495476D01*
X107298809Y-90543095D01*
X108346428Y-91257380D02*
X108536904Y-91257380D01*
X108632142Y-91209761D01*
X108679761Y-91162142D01*
X108775000Y-91019285D01*
X108822619Y-90828809D01*
X108822619Y-90447857D01*
X108775000Y-90352619D01*
X108727380Y-90305000D01*
X108632142Y-90257380D01*
X108441666Y-90257380D01*
X108346428Y-90305000D01*
X108298809Y-90352619D01*
X108251190Y-90447857D01*
X108251190Y-90685952D01*
X108298809Y-90781190D01*
X108346428Y-90828809D01*
X108441666Y-90876428D01*
X108632142Y-90876428D01*
X108727380Y-90828809D01*
X108775000Y-90781190D01*
X108822619Y-90685952D01*
X99703809Y-92162380D02*
X99703809Y-92971904D01*
X99751428Y-93067142D01*
X99799047Y-93114761D01*
X99894285Y-93162380D01*
X100084761Y-93162380D01*
X100180000Y-93114761D01*
X100227619Y-93067142D01*
X100275238Y-92971904D01*
X100275238Y-92162380D01*
X100751428Y-92781428D02*
X101513333Y-92781428D01*
X102560952Y-93162380D02*
X102227619Y-92686190D01*
X101989523Y-93162380D02*
X101989523Y-92162380D01*
X102370476Y-92162380D01*
X102465714Y-92210000D01*
X102513333Y-92257619D01*
X102560952Y-92352857D01*
X102560952Y-92495714D01*
X102513333Y-92590952D01*
X102465714Y-92638571D01*
X102370476Y-92686190D01*
X101989523Y-92686190D01*
X103418095Y-93162380D02*
X103418095Y-92638571D01*
X103370476Y-92543333D01*
X103275238Y-92495714D01*
X103084761Y-92495714D01*
X102989523Y-92543333D01*
X103418095Y-93114761D02*
X103322857Y-93162380D01*
X103084761Y-93162380D01*
X102989523Y-93114761D01*
X102941904Y-93019523D01*
X102941904Y-92924285D01*
X102989523Y-92829047D01*
X103084761Y-92781428D01*
X103322857Y-92781428D01*
X103418095Y-92733809D01*
X103894285Y-92495714D02*
X103894285Y-93162380D01*
X103894285Y-92590952D02*
X103941904Y-92543333D01*
X104037142Y-92495714D01*
X104180000Y-92495714D01*
X104275238Y-92543333D01*
X104322857Y-92638571D01*
X104322857Y-93162380D01*
X105227619Y-92495714D02*
X105227619Y-93305238D01*
X105180000Y-93400476D01*
X105132380Y-93448095D01*
X105037142Y-93495714D01*
X104894285Y-93495714D01*
X104799047Y-93448095D01*
X105227619Y-93114761D02*
X105132380Y-93162380D01*
X104941904Y-93162380D01*
X104846666Y-93114761D01*
X104799047Y-93067142D01*
X104751428Y-92971904D01*
X104751428Y-92686190D01*
X104799047Y-92590952D01*
X104846666Y-92543333D01*
X104941904Y-92495714D01*
X105132380Y-92495714D01*
X105227619Y-92543333D01*
X106084761Y-93114761D02*
X105989523Y-93162380D01*
X105799047Y-93162380D01*
X105703809Y-93114761D01*
X105656190Y-93019523D01*
X105656190Y-92638571D01*
X105703809Y-92543333D01*
X105799047Y-92495714D01*
X105989523Y-92495714D01*
X106084761Y-92543333D01*
X106132380Y-92638571D01*
X106132380Y-92733809D01*
X105656190Y-92829047D01*
X106560952Y-93162380D02*
X106560952Y-92495714D01*
X106560952Y-92686190D02*
X106608571Y-92590952D01*
X106656190Y-92543333D01*
X106751428Y-92495714D01*
X106846666Y-92495714D01*
X108513333Y-93162380D02*
X108180000Y-92686190D01*
X107941904Y-93162380D02*
X107941904Y-92162380D01*
X108322857Y-92162380D01*
X108418095Y-92210000D01*
X108465714Y-92257619D01*
X108513333Y-92352857D01*
X108513333Y-92495714D01*
X108465714Y-92590952D01*
X108418095Y-92638571D01*
X108322857Y-92686190D01*
X107941904Y-92686190D01*
X109322857Y-93114761D02*
X109227619Y-93162380D01*
X109037142Y-93162380D01*
X108941904Y-93114761D01*
X108894285Y-93019523D01*
X108894285Y-92638571D01*
X108941904Y-92543333D01*
X109037142Y-92495714D01*
X109227619Y-92495714D01*
X109322857Y-92543333D01*
X109370476Y-92638571D01*
X109370476Y-92733809D01*
X108894285Y-92829047D01*
X109703809Y-92495714D02*
X109941904Y-93162380D01*
X110180000Y-92495714D01*
X111322857Y-92495714D02*
X111322857Y-93162380D01*
X111322857Y-92590952D02*
X111370476Y-92543333D01*
X111465714Y-92495714D01*
X111608571Y-92495714D01*
X111703809Y-92543333D01*
X111751428Y-92638571D01*
X111751428Y-93162380D01*
X112941904Y-92114761D02*
X112084761Y-93400476D01*
X113703809Y-93114761D02*
X113608571Y-93162380D01*
X113418095Y-93162380D01*
X113322857Y-93114761D01*
X113275238Y-93067142D01*
X113227619Y-92971904D01*
X113227619Y-92686190D01*
X113275238Y-92590952D01*
X113322857Y-92543333D01*
X113418095Y-92495714D01*
X113608571Y-92495714D01*
X113703809Y-92543333D01*
D11*
X109925000Y-64775000D02*
X108825000Y-64775000D01*
X109925000Y-65045000D02*
X109925000Y-64775000D01*
X111425000Y-65045000D02*
X109925000Y-65045000D01*
X109925000Y-58415000D02*
X107095000Y-58415000D01*
X109925000Y-58145000D02*
X109925000Y-58415000D01*
X111425000Y-58145000D02*
X109925000Y-58145000D01*
X101550000Y-69290000D02*
X99735000Y-69290000D01*
X101550000Y-69045000D02*
X101550000Y-69290000D01*
X105410000Y-69045000D02*
X101550000Y-69045000D01*
X109270000Y-69045000D02*
X109270000Y-69290000D01*
X105410000Y-69045000D02*
X109270000Y-69045000D01*
X101550000Y-80815000D02*
X101550000Y-80570000D01*
X105410000Y-80815000D02*
X101550000Y-80815000D01*
X109270000Y-80815000D02*
X109270000Y-80570000D01*
X105410000Y-80815000D02*
X109270000Y-80815000D01*
X93920000Y-72330000D02*
X95250000Y-72330000D01*
X93920000Y-73660000D02*
X93920000Y-72330000D01*
X93920000Y-74930000D02*
X96580000Y-74930000D01*
X96580000Y-74930000D02*
X96580000Y-85150000D01*
X93920000Y-74930000D02*
X93920000Y-85150000D01*
X93920000Y-85150000D02*
X96580000Y-85150000D01*
X106000000Y-61340000D02*
X99100000Y-61340000D01*
X106000000Y-58040000D02*
X99100000Y-58040000D01*
X106000000Y-61340000D02*
X106000000Y-58040000D01*
X123451252Y-86920000D02*
X122928748Y-86920000D01*
X123451252Y-88340000D02*
X122928748Y-88340000D01*
X123451252Y-79935000D02*
X122928748Y-79935000D01*
X123451252Y-81355000D02*
X122928748Y-81355000D01*
X123451252Y-72950000D02*
X122928748Y-72950000D01*
X123451252Y-74370000D02*
X122928748Y-74370000D01*
X123451252Y-65965000D02*
X122928748Y-65965000D01*
X123451252Y-67385000D02*
X122928748Y-67385000D01*
X108958748Y-68020000D02*
X109481252Y-68020000D01*
X108958748Y-66600000D02*
X109481252Y-66600000D01*
X104700000Y-65143748D02*
X104700000Y-65666252D01*
X106120000Y-65143748D02*
X106120000Y-65666252D01*
D10*
X107823095Y-61047380D02*
X107823095Y-61856904D01*
X107870714Y-61952142D01*
X107918333Y-61999761D01*
X108013571Y-62047380D01*
X108204047Y-62047380D01*
X108299285Y-61999761D01*
X108346904Y-61952142D01*
X108394523Y-61856904D01*
X108394523Y-61047380D01*
X108823095Y-61142619D02*
X108870714Y-61095000D01*
X108965952Y-61047380D01*
X109204047Y-61047380D01*
X109299285Y-61095000D01*
X109346904Y-61142619D01*
X109394523Y-61237857D01*
X109394523Y-61333095D01*
X109346904Y-61475952D01*
X108775476Y-62047380D01*
X109394523Y-62047380D01*
X97663095Y-69937380D02*
X97663095Y-70746904D01*
X97710714Y-70842142D01*
X97758333Y-70889761D01*
X97853571Y-70937380D01*
X98044047Y-70937380D01*
X98139285Y-70889761D01*
X98186904Y-70842142D01*
X98234523Y-70746904D01*
X98234523Y-69937380D01*
X99234523Y-70937380D02*
X98663095Y-70937380D01*
X98948809Y-70937380D02*
X98948809Y-69937380D01*
X98853571Y-70080238D01*
X98758333Y-70175476D01*
X98663095Y-70223095D01*
X94916666Y-70782380D02*
X94916666Y-71496666D01*
X94869047Y-71639523D01*
X94773809Y-71734761D01*
X94630952Y-71782380D01*
X94535714Y-71782380D01*
X95821428Y-70782380D02*
X95630952Y-70782380D01*
X95535714Y-70830000D01*
X95488095Y-70877619D01*
X95392857Y-71020476D01*
X95345238Y-71210952D01*
X95345238Y-71591904D01*
X95392857Y-71687142D01*
X95440476Y-71734761D01*
X95535714Y-71782380D01*
X95726190Y-71782380D01*
X95821428Y-71734761D01*
X95869047Y-71687142D01*
X95916666Y-71591904D01*
X95916666Y-71353809D01*
X95869047Y-71258571D01*
X95821428Y-71210952D01*
X95726190Y-71163333D01*
X95535714Y-71163333D01*
X95440476Y-71210952D01*
X95392857Y-71258571D01*
X95345238Y-71353809D01*
X97686904Y-62682380D02*
X97686904Y-61682380D01*
X97925000Y-61682380D01*
X98067857Y-61730000D01*
X98163095Y-61825238D01*
X98210714Y-61920476D01*
X98258333Y-62110952D01*
X98258333Y-62253809D01*
X98210714Y-62444285D01*
X98163095Y-62539523D01*
X98067857Y-62634761D01*
X97925000Y-62682380D01*
X97686904Y-62682380D01*
X99210714Y-62682380D02*
X98639285Y-62682380D01*
X98925000Y-62682380D02*
X98925000Y-61682380D01*
X98829761Y-61825238D01*
X98734523Y-61920476D01*
X98639285Y-61968095D01*
M02*
