G04 #@! TF.GenerationSoftware,KiCad,Pcbnew,(5.1.0-1195-gcea9cd417)*
G04 #@! TF.CreationDate,2019-08-04T23:05:19-07:00*
G04 #@! TF.ProjectId,URanger,5552616e-6765-4722-9e6b-696361645f70,n/c*
G04 #@! TF.SameCoordinates,Original*
G04 #@! TF.FileFunction,Soldermask,Top*
G04 #@! TF.FilePolarity,Negative*
%FSLAX46Y46*%
G04 Gerber Fmt 4.6, Leading zero omitted, Abs format (unit mm)*
G04 Created by KiCad (PCBNEW (5.1.0-1195-gcea9cd417)) date 2019-08-04 23:05:19*
%MOMM*%
%LPD*%
G04 APERTURE LIST*
%ADD10C,0.100000*%
G04 APERTURE END LIST*
D10*
G36*
X116888697Y-89019000D02*
G01*
X116936801Y-89019000D01*
X116983858Y-89029002D01*
X117026088Y-89033441D01*
X117072870Y-89047922D01*
X117126172Y-89059252D01*
X117164276Y-89076217D01*
X117198633Y-89086852D01*
X117247458Y-89113252D01*
X117303037Y-89137997D01*
X117331589Y-89158741D01*
X117357512Y-89172758D01*
X117405342Y-89212327D01*
X117459664Y-89251794D01*
X117478975Y-89273241D01*
X117496679Y-89287887D01*
X117540109Y-89341137D01*
X117589209Y-89395668D01*
X117600418Y-89415083D01*
X117610835Y-89427855D01*
X117646277Y-89494513D01*
X117686010Y-89563332D01*
X117690946Y-89578524D01*
X117695631Y-89587335D01*
X117719554Y-89666571D01*
X117745836Y-89747459D01*
X117746829Y-89756909D01*
X117747837Y-89760247D01*
X117756970Y-89853392D01*
X117761000Y-89891735D01*
X117761000Y-90448266D01*
X117745836Y-90592541D01*
X117718895Y-90675459D01*
X117690625Y-90764576D01*
X117688947Y-90767628D01*
X117686010Y-90776668D01*
X117643487Y-90850320D01*
X117603610Y-90922856D01*
X117597193Y-90930504D01*
X117589209Y-90944332D01*
X117536048Y-91003373D01*
X117487512Y-91061216D01*
X117474667Y-91071544D01*
X117459664Y-91088206D01*
X117400297Y-91131338D01*
X117346749Y-91174392D01*
X117326386Y-91185037D01*
X117303035Y-91202003D01*
X117241688Y-91229316D01*
X117186678Y-91258075D01*
X117158407Y-91266396D01*
X117126171Y-91280748D01*
X117066668Y-91293396D01*
X117013418Y-91309068D01*
X116977599Y-91312328D01*
X116936800Y-91321000D01*
X116882310Y-91321000D01*
X116833535Y-91325439D01*
X116791303Y-91321000D01*
X116743199Y-91321000D01*
X116696142Y-91310998D01*
X116653912Y-91306559D01*
X116607130Y-91292078D01*
X116553828Y-91280748D01*
X116515724Y-91263783D01*
X116481367Y-91253148D01*
X116432542Y-91226748D01*
X116376963Y-91202003D01*
X116348411Y-91181259D01*
X116322488Y-91167242D01*
X116274658Y-91127673D01*
X116220336Y-91088206D01*
X116201025Y-91066759D01*
X116183321Y-91052113D01*
X116139891Y-90998863D01*
X116090791Y-90944332D01*
X116079582Y-90924918D01*
X116069165Y-90912145D01*
X116033719Y-90845480D01*
X115993990Y-90776667D01*
X115989055Y-90761478D01*
X115984369Y-90752665D01*
X115960441Y-90673414D01*
X115934164Y-90592540D01*
X115933171Y-90583091D01*
X115932163Y-90579753D01*
X115923030Y-90486604D01*
X115919000Y-90448265D01*
X115919000Y-89891734D01*
X115934164Y-89747459D01*
X115961120Y-89664496D01*
X115989377Y-89575420D01*
X115991053Y-89572372D01*
X115993990Y-89563332D01*
X116036499Y-89489706D01*
X116076388Y-89417147D01*
X116082809Y-89409495D01*
X116090792Y-89395668D01*
X116143950Y-89336630D01*
X116192489Y-89278784D01*
X116205334Y-89268456D01*
X116220337Y-89251794D01*
X116279709Y-89208658D01*
X116333256Y-89165605D01*
X116353616Y-89154961D01*
X116376965Y-89137997D01*
X116438301Y-89110689D01*
X116493318Y-89081926D01*
X116521594Y-89073604D01*
X116553829Y-89059252D01*
X116613331Y-89046604D01*
X116666582Y-89030932D01*
X116702401Y-89027672D01*
X116743200Y-89019000D01*
X116797690Y-89019000D01*
X116846465Y-89014561D01*
X116888697Y-89019000D01*
X116888697Y-89019000D01*
G37*
G36*
X119428697Y-89019000D02*
G01*
X119476801Y-89019000D01*
X119523858Y-89029002D01*
X119566088Y-89033441D01*
X119612870Y-89047922D01*
X119666172Y-89059252D01*
X119704276Y-89076217D01*
X119738633Y-89086852D01*
X119787458Y-89113252D01*
X119843037Y-89137997D01*
X119871589Y-89158741D01*
X119897512Y-89172758D01*
X119945342Y-89212327D01*
X119999664Y-89251794D01*
X120018975Y-89273241D01*
X120036679Y-89287887D01*
X120080109Y-89341137D01*
X120129209Y-89395668D01*
X120140418Y-89415083D01*
X120150835Y-89427855D01*
X120186277Y-89494513D01*
X120226010Y-89563332D01*
X120230946Y-89578524D01*
X120235631Y-89587335D01*
X120259554Y-89666571D01*
X120285836Y-89747459D01*
X120286829Y-89756909D01*
X120287837Y-89760247D01*
X120296970Y-89853392D01*
X120301000Y-89891735D01*
X120301000Y-90448266D01*
X120285836Y-90592541D01*
X120258895Y-90675459D01*
X120230625Y-90764576D01*
X120228947Y-90767628D01*
X120226010Y-90776668D01*
X120183487Y-90850320D01*
X120143610Y-90922856D01*
X120137193Y-90930504D01*
X120129209Y-90944332D01*
X120076048Y-91003373D01*
X120027512Y-91061216D01*
X120014667Y-91071544D01*
X119999664Y-91088206D01*
X119940297Y-91131338D01*
X119886749Y-91174392D01*
X119866386Y-91185037D01*
X119843035Y-91202003D01*
X119781688Y-91229316D01*
X119726678Y-91258075D01*
X119698407Y-91266396D01*
X119666171Y-91280748D01*
X119606668Y-91293396D01*
X119553418Y-91309068D01*
X119517599Y-91312328D01*
X119476800Y-91321000D01*
X119422310Y-91321000D01*
X119373535Y-91325439D01*
X119331303Y-91321000D01*
X119283199Y-91321000D01*
X119236142Y-91310998D01*
X119193912Y-91306559D01*
X119147130Y-91292078D01*
X119093828Y-91280748D01*
X119055724Y-91263783D01*
X119021367Y-91253148D01*
X118972542Y-91226748D01*
X118916963Y-91202003D01*
X118888411Y-91181259D01*
X118862488Y-91167242D01*
X118814658Y-91127673D01*
X118760336Y-91088206D01*
X118741025Y-91066759D01*
X118723321Y-91052113D01*
X118679891Y-90998863D01*
X118630791Y-90944332D01*
X118619582Y-90924918D01*
X118609165Y-90912145D01*
X118573719Y-90845480D01*
X118533990Y-90776667D01*
X118529055Y-90761478D01*
X118524369Y-90752665D01*
X118500441Y-90673414D01*
X118474164Y-90592540D01*
X118473171Y-90583091D01*
X118472163Y-90579753D01*
X118463030Y-90486604D01*
X118459000Y-90448265D01*
X118459000Y-89891734D01*
X118474164Y-89747459D01*
X118501120Y-89664496D01*
X118529377Y-89575420D01*
X118531053Y-89572372D01*
X118533990Y-89563332D01*
X118576499Y-89489706D01*
X118616388Y-89417147D01*
X118622809Y-89409495D01*
X118630792Y-89395668D01*
X118683950Y-89336630D01*
X118732489Y-89278784D01*
X118745334Y-89268456D01*
X118760337Y-89251794D01*
X118819709Y-89208658D01*
X118873256Y-89165605D01*
X118893616Y-89154961D01*
X118916965Y-89137997D01*
X118978301Y-89110689D01*
X119033318Y-89081926D01*
X119061594Y-89073604D01*
X119093829Y-89059252D01*
X119153331Y-89046604D01*
X119206582Y-89030932D01*
X119242401Y-89027672D01*
X119283200Y-89019000D01*
X119337690Y-89019000D01*
X119386465Y-89014561D01*
X119428697Y-89019000D01*
X119428697Y-89019000D01*
G37*
G36*
X121968697Y-89019000D02*
G01*
X122016801Y-89019000D01*
X122063858Y-89029002D01*
X122106088Y-89033441D01*
X122152870Y-89047922D01*
X122206172Y-89059252D01*
X122244276Y-89076217D01*
X122278633Y-89086852D01*
X122327458Y-89113252D01*
X122383037Y-89137997D01*
X122411589Y-89158741D01*
X122437512Y-89172758D01*
X122485342Y-89212327D01*
X122539664Y-89251794D01*
X122558975Y-89273241D01*
X122576679Y-89287887D01*
X122620109Y-89341137D01*
X122669209Y-89395668D01*
X122680418Y-89415083D01*
X122690835Y-89427855D01*
X122726277Y-89494513D01*
X122766010Y-89563332D01*
X122770946Y-89578524D01*
X122775631Y-89587335D01*
X122799554Y-89666571D01*
X122825836Y-89747459D01*
X122826829Y-89756909D01*
X122827837Y-89760247D01*
X122836970Y-89853392D01*
X122841000Y-89891735D01*
X122841000Y-90448266D01*
X122825836Y-90592541D01*
X122798895Y-90675459D01*
X122770625Y-90764576D01*
X122768947Y-90767628D01*
X122766010Y-90776668D01*
X122723487Y-90850320D01*
X122683610Y-90922856D01*
X122677193Y-90930504D01*
X122669209Y-90944332D01*
X122616048Y-91003373D01*
X122567512Y-91061216D01*
X122554667Y-91071544D01*
X122539664Y-91088206D01*
X122480297Y-91131338D01*
X122426749Y-91174392D01*
X122406386Y-91185037D01*
X122383035Y-91202003D01*
X122321688Y-91229316D01*
X122266678Y-91258075D01*
X122238407Y-91266396D01*
X122206171Y-91280748D01*
X122146668Y-91293396D01*
X122093418Y-91309068D01*
X122057599Y-91312328D01*
X122016800Y-91321000D01*
X121962310Y-91321000D01*
X121913535Y-91325439D01*
X121871303Y-91321000D01*
X121823199Y-91321000D01*
X121776142Y-91310998D01*
X121733912Y-91306559D01*
X121687130Y-91292078D01*
X121633828Y-91280748D01*
X121595724Y-91263783D01*
X121561367Y-91253148D01*
X121512542Y-91226748D01*
X121456963Y-91202003D01*
X121428411Y-91181259D01*
X121402488Y-91167242D01*
X121354658Y-91127673D01*
X121300336Y-91088206D01*
X121281025Y-91066759D01*
X121263321Y-91052113D01*
X121219891Y-90998863D01*
X121170791Y-90944332D01*
X121159582Y-90924918D01*
X121149165Y-90912145D01*
X121113719Y-90845480D01*
X121073990Y-90776667D01*
X121069055Y-90761478D01*
X121064369Y-90752665D01*
X121040441Y-90673414D01*
X121014164Y-90592540D01*
X121013171Y-90583091D01*
X121012163Y-90579753D01*
X121003030Y-90486604D01*
X120999000Y-90448265D01*
X120999000Y-89891734D01*
X121014164Y-89747459D01*
X121041120Y-89664496D01*
X121069377Y-89575420D01*
X121071053Y-89572372D01*
X121073990Y-89563332D01*
X121116499Y-89489706D01*
X121156388Y-89417147D01*
X121162809Y-89409495D01*
X121170792Y-89395668D01*
X121223950Y-89336630D01*
X121272489Y-89278784D01*
X121285334Y-89268456D01*
X121300337Y-89251794D01*
X121359709Y-89208658D01*
X121413256Y-89165605D01*
X121433616Y-89154961D01*
X121456965Y-89137997D01*
X121518301Y-89110689D01*
X121573318Y-89081926D01*
X121601594Y-89073604D01*
X121633829Y-89059252D01*
X121693331Y-89046604D01*
X121746582Y-89030932D01*
X121782401Y-89027672D01*
X121823200Y-89019000D01*
X121877690Y-89019000D01*
X121926465Y-89014561D01*
X121968697Y-89019000D01*
X121968697Y-89019000D01*
G37*
G36*
X125166756Y-89031764D02*
G01*
X125178227Y-89037288D01*
X125186287Y-89038795D01*
X125203547Y-89049482D01*
X125248638Y-89071197D01*
X125268738Y-89089847D01*
X125281964Y-89098036D01*
X125292265Y-89111676D01*
X125315264Y-89133016D01*
X125337614Y-89171727D01*
X125349781Y-89187839D01*
X125351751Y-89196213D01*
X125359506Y-89209646D01*
X125378419Y-89309601D01*
X125381883Y-89324330D01*
X125381883Y-89327909D01*
X125383194Y-89334838D01*
X125383194Y-91007517D01*
X125368236Y-91106756D01*
X125362712Y-91118227D01*
X125361205Y-91126287D01*
X125350518Y-91143547D01*
X125328803Y-91188638D01*
X125310153Y-91208738D01*
X125301964Y-91221964D01*
X125288324Y-91232265D01*
X125266984Y-91255264D01*
X125228273Y-91277614D01*
X125212161Y-91289781D01*
X125203787Y-91291751D01*
X125190354Y-91299506D01*
X125090399Y-91318419D01*
X125075670Y-91321883D01*
X125072091Y-91321883D01*
X125065162Y-91323194D01*
X123852483Y-91323194D01*
X123753244Y-91308236D01*
X123741773Y-91302712D01*
X123733713Y-91301205D01*
X123716453Y-91290518D01*
X123671362Y-91268803D01*
X123651262Y-91250153D01*
X123638036Y-91241964D01*
X123627735Y-91228324D01*
X123604736Y-91206984D01*
X123582386Y-91168273D01*
X123570219Y-91152161D01*
X123568249Y-91143787D01*
X123560494Y-91130354D01*
X123541581Y-91030399D01*
X123538117Y-91015670D01*
X123538117Y-91012091D01*
X123536806Y-91005162D01*
X123536806Y-89332483D01*
X123551764Y-89233244D01*
X123557288Y-89221773D01*
X123558795Y-89213713D01*
X123569482Y-89196453D01*
X123591197Y-89151362D01*
X123609847Y-89131262D01*
X123618036Y-89118036D01*
X123631676Y-89107735D01*
X123653016Y-89084736D01*
X123691727Y-89062386D01*
X123707839Y-89050219D01*
X123716213Y-89048249D01*
X123729646Y-89040494D01*
X123829601Y-89021581D01*
X123844330Y-89018117D01*
X123847909Y-89018117D01*
X123854838Y-89016806D01*
X125067517Y-89016806D01*
X125166756Y-89031764D01*
X125166756Y-89031764D01*
G37*
G36*
X96593730Y-87249000D02*
G01*
X96649937Y-87249000D01*
X96720874Y-87260235D01*
X96787558Y-87266128D01*
X96844072Y-87279748D01*
X96906610Y-87289653D01*
X96968179Y-87309658D01*
X97026121Y-87323622D01*
X97086809Y-87348203D01*
X97153764Y-87369958D01*
X97205106Y-87396118D01*
X97253565Y-87415746D01*
X97316309Y-87452779D01*
X97385312Y-87487938D01*
X97426161Y-87517616D01*
X97464891Y-87540476D01*
X97527232Y-87591049D01*
X97595554Y-87640688D01*
X97626207Y-87671341D01*
X97655465Y-87695076D01*
X97714718Y-87759852D01*
X97779312Y-87824446D01*
X97800574Y-87853711D01*
X97821091Y-87876140D01*
X97874400Y-87955323D01*
X97932062Y-88034688D01*
X97945230Y-88060531D01*
X97958137Y-88079703D01*
X98002562Y-88173052D01*
X98050042Y-88266236D01*
X98056784Y-88286987D01*
X98063587Y-88301281D01*
X98096245Y-88408436D01*
X98130347Y-88513390D01*
X98132634Y-88527830D01*
X98135129Y-88536016D01*
X98153244Y-88657955D01*
X98171000Y-88770063D01*
X98171000Y-89029937D01*
X98162684Y-89082440D01*
X98161885Y-89111983D01*
X98144640Y-89196367D01*
X98130347Y-89286610D01*
X98119164Y-89321027D01*
X98113080Y-89350799D01*
X98080365Y-89440439D01*
X98050042Y-89533764D01*
X98036872Y-89559612D01*
X98028950Y-89581318D01*
X97979540Y-89672131D01*
X97932062Y-89765312D01*
X97919241Y-89782959D01*
X97911672Y-89796870D01*
X97844158Y-89886301D01*
X97779312Y-89975554D01*
X97768976Y-89985890D01*
X97763819Y-89992721D01*
X97675782Y-90079084D01*
X97595554Y-90159312D01*
X97589558Y-90163668D01*
X97588640Y-90164569D01*
X97413110Y-90291866D01*
X97385312Y-90312062D01*
X97284629Y-90363363D01*
X97172223Y-90421753D01*
X97165505Y-90424060D01*
X97153764Y-90430042D01*
X97047902Y-90464439D01*
X96940133Y-90501441D01*
X96925994Y-90504049D01*
X96906610Y-90510347D01*
X96802080Y-90526903D01*
X96698808Y-90545950D01*
X96677170Y-90546687D01*
X96649937Y-90551000D01*
X96550480Y-90551000D01*
X96453553Y-90554300D01*
X96424812Y-90551000D01*
X96390063Y-90551000D01*
X96298482Y-90536495D01*
X96209768Y-90526309D01*
X96174791Y-90516904D01*
X96133390Y-90510347D01*
X96051749Y-90483820D01*
X95972788Y-90462589D01*
X95932903Y-90445205D01*
X95886236Y-90430042D01*
X95815965Y-90394237D01*
X95747832Y-90364541D01*
X95704765Y-90337578D01*
X95654688Y-90312062D01*
X95596590Y-90269851D01*
X95539843Y-90234323D01*
X95495667Y-90196526D01*
X95444446Y-90159312D01*
X95398671Y-90113537D01*
X95353382Y-90074788D01*
X95310465Y-90025331D01*
X95260688Y-89975554D01*
X95226823Y-89928943D01*
X95192556Y-89889454D01*
X95153461Y-89827969D01*
X95107938Y-89765312D01*
X95085015Y-89720323D01*
X95060884Y-89682372D01*
X95028299Y-89609012D01*
X94989958Y-89533764D01*
X94976561Y-89492533D01*
X94961269Y-89458105D01*
X94937885Y-89373501D01*
X94909653Y-89286610D01*
X94903993Y-89250874D01*
X94895897Y-89221582D01*
X94884348Y-89126843D01*
X94869000Y-89029937D01*
X94869000Y-89000932D01*
X94866203Y-88977987D01*
X94869000Y-88874628D01*
X94869000Y-88770063D01*
X94872413Y-88748516D01*
X94872841Y-88732689D01*
X94892390Y-88622382D01*
X94909653Y-88513390D01*
X94914171Y-88499485D01*
X94915664Y-88491061D01*
X94954876Y-88374207D01*
X94989958Y-88266236D01*
X94993325Y-88259628D01*
X94993732Y-88258415D01*
X95091710Y-88066538D01*
X95107938Y-88034688D01*
X95174366Y-87943258D01*
X95248002Y-87840214D01*
X95252942Y-87835107D01*
X95260688Y-87824446D01*
X95339390Y-87745744D01*
X95418621Y-87663841D01*
X95430037Y-87655097D01*
X95444446Y-87640688D01*
X95530048Y-87578494D01*
X95613440Y-87514621D01*
X95632390Y-87504139D01*
X95654688Y-87487938D01*
X95743279Y-87442798D01*
X95828164Y-87395843D01*
X95855275Y-87385734D01*
X95886236Y-87369958D01*
X95974418Y-87341306D01*
X96058091Y-87310105D01*
X96093527Y-87302605D01*
X96133390Y-87289653D01*
X96218177Y-87276224D01*
X96298171Y-87259294D01*
X96341600Y-87256676D01*
X96390063Y-87249000D01*
X96468917Y-87249000D01*
X96543111Y-87244527D01*
X96593730Y-87249000D01*
X96593730Y-87249000D01*
G37*
G36*
X124626756Y-86891764D02*
G01*
X124638227Y-86897288D01*
X124646287Y-86898795D01*
X124663547Y-86909482D01*
X124708638Y-86931197D01*
X124728738Y-86949847D01*
X124741964Y-86958036D01*
X124752265Y-86971676D01*
X124775264Y-86993016D01*
X124797614Y-87031727D01*
X124809781Y-87047839D01*
X124811751Y-87056213D01*
X124819506Y-87069646D01*
X124838419Y-87169601D01*
X124841883Y-87184330D01*
X124841883Y-87187909D01*
X124843194Y-87194838D01*
X124843194Y-88067517D01*
X124828236Y-88166756D01*
X124822712Y-88178227D01*
X124821205Y-88186287D01*
X124810518Y-88203547D01*
X124788803Y-88248638D01*
X124770153Y-88268738D01*
X124761964Y-88281964D01*
X124748324Y-88292265D01*
X124726984Y-88315264D01*
X124688273Y-88337614D01*
X124672161Y-88349781D01*
X124663787Y-88351751D01*
X124650354Y-88359506D01*
X124550399Y-88378419D01*
X124535670Y-88381883D01*
X124532091Y-88381883D01*
X124525162Y-88383194D01*
X123902483Y-88383194D01*
X123803244Y-88368236D01*
X123791773Y-88362712D01*
X123783713Y-88361205D01*
X123766453Y-88350518D01*
X123721362Y-88328803D01*
X123701262Y-88310153D01*
X123688036Y-88301964D01*
X123677735Y-88288324D01*
X123654736Y-88266984D01*
X123632386Y-88228273D01*
X123620219Y-88212161D01*
X123618249Y-88203787D01*
X123610494Y-88190354D01*
X123591581Y-88090399D01*
X123588117Y-88075670D01*
X123588117Y-88072091D01*
X123586806Y-88065162D01*
X123586806Y-87192483D01*
X123601764Y-87093244D01*
X123607288Y-87081773D01*
X123608795Y-87073713D01*
X123619482Y-87056453D01*
X123641197Y-87011362D01*
X123659847Y-86991262D01*
X123668036Y-86978036D01*
X123681676Y-86967735D01*
X123703016Y-86944736D01*
X123741727Y-86922386D01*
X123757839Y-86910219D01*
X123766213Y-86908249D01*
X123779646Y-86900494D01*
X123879601Y-86881581D01*
X123894330Y-86878117D01*
X123897909Y-86878117D01*
X123904838Y-86876806D01*
X124527517Y-86876806D01*
X124626756Y-86891764D01*
X124626756Y-86891764D01*
G37*
G36*
X122576756Y-86891764D02*
G01*
X122588227Y-86897288D01*
X122596287Y-86898795D01*
X122613547Y-86909482D01*
X122658638Y-86931197D01*
X122678738Y-86949847D01*
X122691964Y-86958036D01*
X122702265Y-86971676D01*
X122725264Y-86993016D01*
X122747614Y-87031727D01*
X122759781Y-87047839D01*
X122761751Y-87056213D01*
X122769506Y-87069646D01*
X122788419Y-87169601D01*
X122791883Y-87184330D01*
X122791883Y-87187909D01*
X122793194Y-87194838D01*
X122793194Y-88067517D01*
X122778236Y-88166756D01*
X122772712Y-88178227D01*
X122771205Y-88186287D01*
X122760518Y-88203547D01*
X122738803Y-88248638D01*
X122720153Y-88268738D01*
X122711964Y-88281964D01*
X122698324Y-88292265D01*
X122676984Y-88315264D01*
X122638273Y-88337614D01*
X122622161Y-88349781D01*
X122613787Y-88351751D01*
X122600354Y-88359506D01*
X122500399Y-88378419D01*
X122485670Y-88381883D01*
X122482091Y-88381883D01*
X122475162Y-88383194D01*
X121852483Y-88383194D01*
X121753244Y-88368236D01*
X121741773Y-88362712D01*
X121733713Y-88361205D01*
X121716453Y-88350518D01*
X121671362Y-88328803D01*
X121651262Y-88310153D01*
X121638036Y-88301964D01*
X121627735Y-88288324D01*
X121604736Y-88266984D01*
X121582386Y-88228273D01*
X121570219Y-88212161D01*
X121568249Y-88203787D01*
X121560494Y-88190354D01*
X121541581Y-88090399D01*
X121538117Y-88075670D01*
X121538117Y-88072091D01*
X121536806Y-88065162D01*
X121536806Y-87192483D01*
X121551764Y-87093244D01*
X121557288Y-87081773D01*
X121558795Y-87073713D01*
X121569482Y-87056453D01*
X121591197Y-87011362D01*
X121609847Y-86991262D01*
X121618036Y-86978036D01*
X121631676Y-86967735D01*
X121653016Y-86944736D01*
X121691727Y-86922386D01*
X121707839Y-86910219D01*
X121716213Y-86908249D01*
X121729646Y-86900494D01*
X121829601Y-86881581D01*
X121844330Y-86878117D01*
X121847909Y-86878117D01*
X121854838Y-86876806D01*
X122477517Y-86876806D01*
X122576756Y-86891764D01*
X122576756Y-86891764D01*
G37*
G36*
X95438360Y-82933835D02*
G01*
X95519397Y-82960166D01*
X95606663Y-82987848D01*
X95609655Y-82989493D01*
X95618488Y-82992363D01*
X95690466Y-83033919D01*
X95761499Y-83072970D01*
X95768986Y-83079253D01*
X95782511Y-83087061D01*
X95840259Y-83139057D01*
X95896857Y-83186549D01*
X95906962Y-83199118D01*
X95923261Y-83213793D01*
X95965454Y-83271867D01*
X96007579Y-83324260D01*
X96017994Y-83344182D01*
X96034586Y-83367019D01*
X96061297Y-83427012D01*
X96089439Y-83480843D01*
X96097582Y-83508510D01*
X96111621Y-83540042D01*
X96123992Y-83598241D01*
X96139328Y-83650349D01*
X96142518Y-83685401D01*
X96150999Y-83725301D01*
X96150999Y-83778592D01*
X96155343Y-83826324D01*
X96150999Y-83867653D01*
X96150999Y-83914699D01*
X96141217Y-83960721D01*
X96136873Y-84002047D01*
X96122702Y-84047827D01*
X96111621Y-84099958D01*
X96095028Y-84137226D01*
X96084622Y-84170843D01*
X96058789Y-84218620D01*
X96034586Y-84272981D01*
X96014298Y-84300905D01*
X96000580Y-84326276D01*
X95961859Y-84373082D01*
X95923261Y-84426207D01*
X95902284Y-84445095D01*
X95887952Y-84462419D01*
X95835845Y-84504917D01*
X95782511Y-84552939D01*
X95763524Y-84563901D01*
X95751025Y-84574095D01*
X95685780Y-84608786D01*
X95618488Y-84647637D01*
X95603636Y-84652463D01*
X95595003Y-84657053D01*
X95517430Y-84680473D01*
X95438360Y-84706165D01*
X95429114Y-84707137D01*
X95425851Y-84708122D01*
X95334710Y-84717059D01*
X95297211Y-84721000D01*
X95202789Y-84721000D01*
X95061640Y-84706165D01*
X94980603Y-84679834D01*
X94893337Y-84652152D01*
X94890345Y-84650507D01*
X94881512Y-84647637D01*
X94809534Y-84606081D01*
X94738501Y-84567030D01*
X94731014Y-84560747D01*
X94717489Y-84552939D01*
X94659741Y-84500943D01*
X94603143Y-84453451D01*
X94593038Y-84440882D01*
X94576739Y-84426207D01*
X94534546Y-84368133D01*
X94492421Y-84315740D01*
X94482006Y-84295818D01*
X94465414Y-84272981D01*
X94438703Y-84212988D01*
X94410561Y-84159157D01*
X94402418Y-84131490D01*
X94388379Y-84099958D01*
X94376008Y-84041759D01*
X94360672Y-83989651D01*
X94357482Y-83954599D01*
X94349001Y-83914699D01*
X94349001Y-83861408D01*
X94344657Y-83813676D01*
X94349001Y-83772347D01*
X94349001Y-83725301D01*
X94358783Y-83679279D01*
X94363127Y-83637953D01*
X94377298Y-83592173D01*
X94388379Y-83540042D01*
X94404972Y-83502774D01*
X94415378Y-83469157D01*
X94441211Y-83421380D01*
X94465414Y-83367019D01*
X94485702Y-83339095D01*
X94499420Y-83313724D01*
X94538141Y-83266918D01*
X94576739Y-83213793D01*
X94597716Y-83194905D01*
X94612048Y-83177581D01*
X94664155Y-83135083D01*
X94717489Y-83087061D01*
X94736476Y-83076099D01*
X94748975Y-83065905D01*
X94814220Y-83031214D01*
X94881512Y-82992363D01*
X94896364Y-82987537D01*
X94904997Y-82982947D01*
X94982570Y-82959527D01*
X95061640Y-82933835D01*
X95070886Y-82932863D01*
X95074149Y-82931878D01*
X95165290Y-82922941D01*
X95202789Y-82919000D01*
X95297211Y-82919000D01*
X95438360Y-82933835D01*
X95438360Y-82933835D01*
G37*
G36*
X121968697Y-82034000D02*
G01*
X122016801Y-82034000D01*
X122063858Y-82044002D01*
X122106088Y-82048441D01*
X122152870Y-82062922D01*
X122206172Y-82074252D01*
X122244276Y-82091217D01*
X122278633Y-82101852D01*
X122327458Y-82128252D01*
X122383037Y-82152997D01*
X122411589Y-82173741D01*
X122437512Y-82187758D01*
X122485342Y-82227327D01*
X122539664Y-82266794D01*
X122558975Y-82288241D01*
X122576679Y-82302887D01*
X122620109Y-82356137D01*
X122669209Y-82410668D01*
X122680418Y-82430083D01*
X122690835Y-82442855D01*
X122726277Y-82509513D01*
X122766010Y-82578332D01*
X122770946Y-82593524D01*
X122775631Y-82602335D01*
X122799554Y-82681571D01*
X122825836Y-82762459D01*
X122826829Y-82771909D01*
X122827837Y-82775247D01*
X122836970Y-82868392D01*
X122841000Y-82906735D01*
X122841000Y-83463266D01*
X122825836Y-83607541D01*
X122798895Y-83690459D01*
X122770625Y-83779576D01*
X122768947Y-83782628D01*
X122766010Y-83791668D01*
X122723487Y-83865320D01*
X122683610Y-83937856D01*
X122677193Y-83945504D01*
X122669209Y-83959332D01*
X122616048Y-84018373D01*
X122567512Y-84076216D01*
X122554667Y-84086544D01*
X122539664Y-84103206D01*
X122480297Y-84146338D01*
X122426749Y-84189392D01*
X122406386Y-84200037D01*
X122383035Y-84217003D01*
X122321688Y-84244316D01*
X122266678Y-84273075D01*
X122238407Y-84281396D01*
X122206171Y-84295748D01*
X122146668Y-84308396D01*
X122093418Y-84324068D01*
X122057599Y-84327328D01*
X122016800Y-84336000D01*
X121962310Y-84336000D01*
X121913535Y-84340439D01*
X121871303Y-84336000D01*
X121823199Y-84336000D01*
X121776142Y-84325998D01*
X121733912Y-84321559D01*
X121687130Y-84307078D01*
X121633828Y-84295748D01*
X121595724Y-84278783D01*
X121561367Y-84268148D01*
X121512542Y-84241748D01*
X121456963Y-84217003D01*
X121428411Y-84196259D01*
X121402488Y-84182242D01*
X121354658Y-84142673D01*
X121300336Y-84103206D01*
X121281025Y-84081759D01*
X121263321Y-84067113D01*
X121219891Y-84013863D01*
X121170791Y-83959332D01*
X121159582Y-83939918D01*
X121149165Y-83927145D01*
X121113719Y-83860480D01*
X121073990Y-83791667D01*
X121069055Y-83776478D01*
X121064369Y-83767665D01*
X121040441Y-83688414D01*
X121014164Y-83607540D01*
X121013171Y-83598091D01*
X121012163Y-83594753D01*
X121003030Y-83501604D01*
X120999000Y-83463265D01*
X120999000Y-82906734D01*
X121014164Y-82762459D01*
X121041120Y-82679496D01*
X121069377Y-82590420D01*
X121071053Y-82587372D01*
X121073990Y-82578332D01*
X121116499Y-82504706D01*
X121156388Y-82432147D01*
X121162809Y-82424495D01*
X121170792Y-82410668D01*
X121223950Y-82351630D01*
X121272489Y-82293784D01*
X121285334Y-82283456D01*
X121300337Y-82266794D01*
X121359709Y-82223658D01*
X121413256Y-82180605D01*
X121433616Y-82169961D01*
X121456965Y-82152997D01*
X121518301Y-82125689D01*
X121573318Y-82096926D01*
X121601594Y-82088604D01*
X121633829Y-82074252D01*
X121693331Y-82061604D01*
X121746582Y-82045932D01*
X121782401Y-82042672D01*
X121823200Y-82034000D01*
X121877690Y-82034000D01*
X121926465Y-82029561D01*
X121968697Y-82034000D01*
X121968697Y-82034000D01*
G37*
G36*
X116888697Y-82034000D02*
G01*
X116936801Y-82034000D01*
X116983858Y-82044002D01*
X117026088Y-82048441D01*
X117072870Y-82062922D01*
X117126172Y-82074252D01*
X117164276Y-82091217D01*
X117198633Y-82101852D01*
X117247458Y-82128252D01*
X117303037Y-82152997D01*
X117331589Y-82173741D01*
X117357512Y-82187758D01*
X117405342Y-82227327D01*
X117459664Y-82266794D01*
X117478975Y-82288241D01*
X117496679Y-82302887D01*
X117540109Y-82356137D01*
X117589209Y-82410668D01*
X117600418Y-82430083D01*
X117610835Y-82442855D01*
X117646277Y-82509513D01*
X117686010Y-82578332D01*
X117690946Y-82593524D01*
X117695631Y-82602335D01*
X117719554Y-82681571D01*
X117745836Y-82762459D01*
X117746829Y-82771909D01*
X117747837Y-82775247D01*
X117756970Y-82868392D01*
X117761000Y-82906735D01*
X117761000Y-83463266D01*
X117745836Y-83607541D01*
X117718895Y-83690459D01*
X117690625Y-83779576D01*
X117688947Y-83782628D01*
X117686010Y-83791668D01*
X117643487Y-83865320D01*
X117603610Y-83937856D01*
X117597193Y-83945504D01*
X117589209Y-83959332D01*
X117536048Y-84018373D01*
X117487512Y-84076216D01*
X117474667Y-84086544D01*
X117459664Y-84103206D01*
X117400297Y-84146338D01*
X117346749Y-84189392D01*
X117326386Y-84200037D01*
X117303035Y-84217003D01*
X117241688Y-84244316D01*
X117186678Y-84273075D01*
X117158407Y-84281396D01*
X117126171Y-84295748D01*
X117066668Y-84308396D01*
X117013418Y-84324068D01*
X116977599Y-84327328D01*
X116936800Y-84336000D01*
X116882310Y-84336000D01*
X116833535Y-84340439D01*
X116791303Y-84336000D01*
X116743199Y-84336000D01*
X116696142Y-84325998D01*
X116653912Y-84321559D01*
X116607130Y-84307078D01*
X116553828Y-84295748D01*
X116515724Y-84278783D01*
X116481367Y-84268148D01*
X116432542Y-84241748D01*
X116376963Y-84217003D01*
X116348411Y-84196259D01*
X116322488Y-84182242D01*
X116274658Y-84142673D01*
X116220336Y-84103206D01*
X116201025Y-84081759D01*
X116183321Y-84067113D01*
X116139891Y-84013863D01*
X116090791Y-83959332D01*
X116079582Y-83939918D01*
X116069165Y-83927145D01*
X116033719Y-83860480D01*
X115993990Y-83791667D01*
X115989055Y-83776478D01*
X115984369Y-83767665D01*
X115960441Y-83688414D01*
X115934164Y-83607540D01*
X115933171Y-83598091D01*
X115932163Y-83594753D01*
X115923030Y-83501604D01*
X115919000Y-83463265D01*
X115919000Y-82906734D01*
X115934164Y-82762459D01*
X115961120Y-82679496D01*
X115989377Y-82590420D01*
X115991053Y-82587372D01*
X115993990Y-82578332D01*
X116036499Y-82504706D01*
X116076388Y-82432147D01*
X116082809Y-82424495D01*
X116090792Y-82410668D01*
X116143950Y-82351630D01*
X116192489Y-82293784D01*
X116205334Y-82283456D01*
X116220337Y-82266794D01*
X116279709Y-82223658D01*
X116333256Y-82180605D01*
X116353616Y-82169961D01*
X116376965Y-82152997D01*
X116438301Y-82125689D01*
X116493318Y-82096926D01*
X116521594Y-82088604D01*
X116553829Y-82074252D01*
X116613331Y-82061604D01*
X116666582Y-82045932D01*
X116702401Y-82042672D01*
X116743200Y-82034000D01*
X116797690Y-82034000D01*
X116846465Y-82029561D01*
X116888697Y-82034000D01*
X116888697Y-82034000D01*
G37*
G36*
X119428697Y-82034000D02*
G01*
X119476801Y-82034000D01*
X119523858Y-82044002D01*
X119566088Y-82048441D01*
X119612870Y-82062922D01*
X119666172Y-82074252D01*
X119704276Y-82091217D01*
X119738633Y-82101852D01*
X119787458Y-82128252D01*
X119843037Y-82152997D01*
X119871589Y-82173741D01*
X119897512Y-82187758D01*
X119945342Y-82227327D01*
X119999664Y-82266794D01*
X120018975Y-82288241D01*
X120036679Y-82302887D01*
X120080109Y-82356137D01*
X120129209Y-82410668D01*
X120140418Y-82430083D01*
X120150835Y-82442855D01*
X120186277Y-82509513D01*
X120226010Y-82578332D01*
X120230946Y-82593524D01*
X120235631Y-82602335D01*
X120259554Y-82681571D01*
X120285836Y-82762459D01*
X120286829Y-82771909D01*
X120287837Y-82775247D01*
X120296970Y-82868392D01*
X120301000Y-82906735D01*
X120301000Y-83463266D01*
X120285836Y-83607541D01*
X120258895Y-83690459D01*
X120230625Y-83779576D01*
X120228947Y-83782628D01*
X120226010Y-83791668D01*
X120183487Y-83865320D01*
X120143610Y-83937856D01*
X120137193Y-83945504D01*
X120129209Y-83959332D01*
X120076048Y-84018373D01*
X120027512Y-84076216D01*
X120014667Y-84086544D01*
X119999664Y-84103206D01*
X119940297Y-84146338D01*
X119886749Y-84189392D01*
X119866386Y-84200037D01*
X119843035Y-84217003D01*
X119781688Y-84244316D01*
X119726678Y-84273075D01*
X119698407Y-84281396D01*
X119666171Y-84295748D01*
X119606668Y-84308396D01*
X119553418Y-84324068D01*
X119517599Y-84327328D01*
X119476800Y-84336000D01*
X119422310Y-84336000D01*
X119373535Y-84340439D01*
X119331303Y-84336000D01*
X119283199Y-84336000D01*
X119236142Y-84325998D01*
X119193912Y-84321559D01*
X119147130Y-84307078D01*
X119093828Y-84295748D01*
X119055724Y-84278783D01*
X119021367Y-84268148D01*
X118972542Y-84241748D01*
X118916963Y-84217003D01*
X118888411Y-84196259D01*
X118862488Y-84182242D01*
X118814658Y-84142673D01*
X118760336Y-84103206D01*
X118741025Y-84081759D01*
X118723321Y-84067113D01*
X118679891Y-84013863D01*
X118630791Y-83959332D01*
X118619582Y-83939918D01*
X118609165Y-83927145D01*
X118573719Y-83860480D01*
X118533990Y-83791667D01*
X118529055Y-83776478D01*
X118524369Y-83767665D01*
X118500441Y-83688414D01*
X118474164Y-83607540D01*
X118473171Y-83598091D01*
X118472163Y-83594753D01*
X118463030Y-83501604D01*
X118459000Y-83463265D01*
X118459000Y-82906734D01*
X118474164Y-82762459D01*
X118501120Y-82679496D01*
X118529377Y-82590420D01*
X118531053Y-82587372D01*
X118533990Y-82578332D01*
X118576499Y-82504706D01*
X118616388Y-82432147D01*
X118622809Y-82424495D01*
X118630792Y-82410668D01*
X118683950Y-82351630D01*
X118732489Y-82293784D01*
X118745334Y-82283456D01*
X118760337Y-82266794D01*
X118819709Y-82223658D01*
X118873256Y-82180605D01*
X118893616Y-82169961D01*
X118916965Y-82152997D01*
X118978301Y-82125689D01*
X119033318Y-82096926D01*
X119061594Y-82088604D01*
X119093829Y-82074252D01*
X119153331Y-82061604D01*
X119206582Y-82045932D01*
X119242401Y-82042672D01*
X119283200Y-82034000D01*
X119337690Y-82034000D01*
X119386465Y-82029561D01*
X119428697Y-82034000D01*
X119428697Y-82034000D01*
G37*
G36*
X125166756Y-82046764D02*
G01*
X125178227Y-82052288D01*
X125186287Y-82053795D01*
X125203547Y-82064482D01*
X125248638Y-82086197D01*
X125268738Y-82104847D01*
X125281964Y-82113036D01*
X125292265Y-82126676D01*
X125315264Y-82148016D01*
X125337614Y-82186727D01*
X125349781Y-82202839D01*
X125351751Y-82211213D01*
X125359506Y-82224646D01*
X125378419Y-82324601D01*
X125381883Y-82339330D01*
X125381883Y-82342909D01*
X125383194Y-82349838D01*
X125383194Y-84022517D01*
X125368236Y-84121756D01*
X125362712Y-84133227D01*
X125361205Y-84141287D01*
X125350518Y-84158547D01*
X125328803Y-84203638D01*
X125310153Y-84223738D01*
X125301964Y-84236964D01*
X125288324Y-84247265D01*
X125266984Y-84270264D01*
X125228273Y-84292614D01*
X125212161Y-84304781D01*
X125203787Y-84306751D01*
X125190354Y-84314506D01*
X125090399Y-84333419D01*
X125075670Y-84336883D01*
X125072091Y-84336883D01*
X125065162Y-84338194D01*
X123852483Y-84338194D01*
X123753244Y-84323236D01*
X123741773Y-84317712D01*
X123733713Y-84316205D01*
X123716453Y-84305518D01*
X123671362Y-84283803D01*
X123651262Y-84265153D01*
X123638036Y-84256964D01*
X123627735Y-84243324D01*
X123604736Y-84221984D01*
X123582386Y-84183273D01*
X123570219Y-84167161D01*
X123568249Y-84158787D01*
X123560494Y-84145354D01*
X123541581Y-84045399D01*
X123538117Y-84030670D01*
X123538117Y-84027091D01*
X123536806Y-84020162D01*
X123536806Y-82347483D01*
X123551764Y-82248244D01*
X123557288Y-82236773D01*
X123558795Y-82228713D01*
X123569482Y-82211453D01*
X123591197Y-82166362D01*
X123609847Y-82146262D01*
X123618036Y-82133036D01*
X123631676Y-82122735D01*
X123653016Y-82099736D01*
X123691727Y-82077386D01*
X123707839Y-82065219D01*
X123716213Y-82063249D01*
X123729646Y-82055494D01*
X123829601Y-82036581D01*
X123844330Y-82033117D01*
X123847909Y-82033117D01*
X123854838Y-82031806D01*
X125067517Y-82031806D01*
X125166756Y-82046764D01*
X125166756Y-82046764D01*
G37*
G36*
X95438360Y-80393835D02*
G01*
X95519397Y-80420166D01*
X95606663Y-80447848D01*
X95609655Y-80449493D01*
X95618488Y-80452363D01*
X95690466Y-80493919D01*
X95761499Y-80532970D01*
X95768986Y-80539253D01*
X95782511Y-80547061D01*
X95840259Y-80599057D01*
X95896857Y-80646549D01*
X95906962Y-80659118D01*
X95923261Y-80673793D01*
X95965454Y-80731867D01*
X96007579Y-80784260D01*
X96017994Y-80804182D01*
X96034586Y-80827019D01*
X96061297Y-80887012D01*
X96089439Y-80940843D01*
X96097582Y-80968510D01*
X96111621Y-81000042D01*
X96123992Y-81058241D01*
X96139328Y-81110349D01*
X96142518Y-81145401D01*
X96150999Y-81185301D01*
X96150999Y-81238592D01*
X96155343Y-81286324D01*
X96150999Y-81327653D01*
X96150999Y-81374699D01*
X96141217Y-81420721D01*
X96136873Y-81462047D01*
X96122702Y-81507827D01*
X96111621Y-81559958D01*
X96095028Y-81597226D01*
X96084622Y-81630843D01*
X96058789Y-81678620D01*
X96034586Y-81732981D01*
X96014298Y-81760905D01*
X96000580Y-81786276D01*
X95961859Y-81833082D01*
X95923261Y-81886207D01*
X95902284Y-81905095D01*
X95887952Y-81922419D01*
X95835845Y-81964917D01*
X95782511Y-82012939D01*
X95763524Y-82023901D01*
X95751025Y-82034095D01*
X95685780Y-82068786D01*
X95618488Y-82107637D01*
X95603636Y-82112463D01*
X95595003Y-82117053D01*
X95517430Y-82140473D01*
X95438360Y-82166165D01*
X95429114Y-82167137D01*
X95425851Y-82168122D01*
X95334710Y-82177059D01*
X95297211Y-82181000D01*
X95202789Y-82181000D01*
X95061640Y-82166165D01*
X94980603Y-82139834D01*
X94893337Y-82112152D01*
X94890345Y-82110507D01*
X94881512Y-82107637D01*
X94809534Y-82066081D01*
X94738501Y-82027030D01*
X94731014Y-82020747D01*
X94717489Y-82012939D01*
X94659741Y-81960943D01*
X94603143Y-81913451D01*
X94593038Y-81900882D01*
X94576739Y-81886207D01*
X94534546Y-81828133D01*
X94492421Y-81775740D01*
X94482006Y-81755818D01*
X94465414Y-81732981D01*
X94438703Y-81672988D01*
X94410561Y-81619157D01*
X94402418Y-81591490D01*
X94388379Y-81559958D01*
X94376008Y-81501759D01*
X94360672Y-81449651D01*
X94357482Y-81414599D01*
X94349001Y-81374699D01*
X94349001Y-81321408D01*
X94344657Y-81273676D01*
X94349001Y-81232347D01*
X94349001Y-81185301D01*
X94358783Y-81139279D01*
X94363127Y-81097953D01*
X94377298Y-81052173D01*
X94388379Y-81000042D01*
X94404972Y-80962774D01*
X94415378Y-80929157D01*
X94441211Y-80881380D01*
X94465414Y-80827019D01*
X94485702Y-80799095D01*
X94499420Y-80773724D01*
X94538141Y-80726918D01*
X94576739Y-80673793D01*
X94597716Y-80654905D01*
X94612048Y-80637581D01*
X94664155Y-80595083D01*
X94717489Y-80547061D01*
X94736476Y-80536099D01*
X94748975Y-80525905D01*
X94814220Y-80491214D01*
X94881512Y-80452363D01*
X94896364Y-80447537D01*
X94904997Y-80442947D01*
X94982570Y-80419527D01*
X95061640Y-80393835D01*
X95070886Y-80392863D01*
X95074149Y-80391878D01*
X95165290Y-80382941D01*
X95202789Y-80379000D01*
X95297211Y-80379000D01*
X95438360Y-80393835D01*
X95438360Y-80393835D01*
G37*
G36*
X124626756Y-79906764D02*
G01*
X124638227Y-79912288D01*
X124646287Y-79913795D01*
X124663547Y-79924482D01*
X124708638Y-79946197D01*
X124728738Y-79964847D01*
X124741964Y-79973036D01*
X124752265Y-79986676D01*
X124775264Y-80008016D01*
X124797614Y-80046727D01*
X124809781Y-80062839D01*
X124811751Y-80071213D01*
X124819506Y-80084646D01*
X124838419Y-80184601D01*
X124841883Y-80199330D01*
X124841883Y-80202909D01*
X124843194Y-80209838D01*
X124843194Y-81082517D01*
X124828236Y-81181756D01*
X124822712Y-81193227D01*
X124821205Y-81201287D01*
X124810518Y-81218547D01*
X124788803Y-81263638D01*
X124770153Y-81283738D01*
X124761964Y-81296964D01*
X124748324Y-81307265D01*
X124726984Y-81330264D01*
X124688273Y-81352614D01*
X124672161Y-81364781D01*
X124663787Y-81366751D01*
X124650354Y-81374506D01*
X124550399Y-81393419D01*
X124535670Y-81396883D01*
X124532091Y-81396883D01*
X124525162Y-81398194D01*
X123902483Y-81398194D01*
X123803244Y-81383236D01*
X123791773Y-81377712D01*
X123783713Y-81376205D01*
X123766453Y-81365518D01*
X123721362Y-81343803D01*
X123701262Y-81325153D01*
X123688036Y-81316964D01*
X123677735Y-81303324D01*
X123654736Y-81281984D01*
X123632386Y-81243273D01*
X123620219Y-81227161D01*
X123618249Y-81218787D01*
X123610494Y-81205354D01*
X123591581Y-81105399D01*
X123588117Y-81090670D01*
X123588117Y-81087091D01*
X123586806Y-81080162D01*
X123586806Y-80207483D01*
X123601764Y-80108244D01*
X123607288Y-80096773D01*
X123608795Y-80088713D01*
X123619482Y-80071453D01*
X123641197Y-80026362D01*
X123659847Y-80006262D01*
X123668036Y-79993036D01*
X123681676Y-79982735D01*
X123703016Y-79959736D01*
X123741727Y-79937386D01*
X123757839Y-79925219D01*
X123766213Y-79923249D01*
X123779646Y-79915494D01*
X123879601Y-79896581D01*
X123894330Y-79893117D01*
X123897909Y-79893117D01*
X123904838Y-79891806D01*
X124527517Y-79891806D01*
X124626756Y-79906764D01*
X124626756Y-79906764D01*
G37*
G36*
X122576756Y-79906764D02*
G01*
X122588227Y-79912288D01*
X122596287Y-79913795D01*
X122613547Y-79924482D01*
X122658638Y-79946197D01*
X122678738Y-79964847D01*
X122691964Y-79973036D01*
X122702265Y-79986676D01*
X122725264Y-80008016D01*
X122747614Y-80046727D01*
X122759781Y-80062839D01*
X122761751Y-80071213D01*
X122769506Y-80084646D01*
X122788419Y-80184601D01*
X122791883Y-80199330D01*
X122791883Y-80202909D01*
X122793194Y-80209838D01*
X122793194Y-81082517D01*
X122778236Y-81181756D01*
X122772712Y-81193227D01*
X122771205Y-81201287D01*
X122760518Y-81218547D01*
X122738803Y-81263638D01*
X122720153Y-81283738D01*
X122711964Y-81296964D01*
X122698324Y-81307265D01*
X122676984Y-81330264D01*
X122638273Y-81352614D01*
X122622161Y-81364781D01*
X122613787Y-81366751D01*
X122600354Y-81374506D01*
X122500399Y-81393419D01*
X122485670Y-81396883D01*
X122482091Y-81396883D01*
X122475162Y-81398194D01*
X121852483Y-81398194D01*
X121753244Y-81383236D01*
X121741773Y-81377712D01*
X121733713Y-81376205D01*
X121716453Y-81365518D01*
X121671362Y-81343803D01*
X121651262Y-81325153D01*
X121638036Y-81316964D01*
X121627735Y-81303324D01*
X121604736Y-81281984D01*
X121582386Y-81243273D01*
X121570219Y-81227161D01*
X121568249Y-81218787D01*
X121560494Y-81205354D01*
X121541581Y-81105399D01*
X121538117Y-81090670D01*
X121538117Y-81087091D01*
X121536806Y-81080162D01*
X121536806Y-80207483D01*
X121551764Y-80108244D01*
X121557288Y-80096773D01*
X121558795Y-80088713D01*
X121569482Y-80071453D01*
X121591197Y-80026362D01*
X121609847Y-80006262D01*
X121618036Y-79993036D01*
X121631676Y-79982735D01*
X121653016Y-79959736D01*
X121691727Y-79937386D01*
X121707839Y-79925219D01*
X121716213Y-79923249D01*
X121729646Y-79915494D01*
X121829601Y-79896581D01*
X121844330Y-79893117D01*
X121847909Y-79893117D01*
X121854838Y-79891806D01*
X122477517Y-79891806D01*
X122576756Y-79906764D01*
X122576756Y-79906764D01*
G37*
G36*
X110931483Y-79658001D02*
G01*
X110932061Y-79658001D01*
X110936575Y-79658899D01*
X111002492Y-79670522D01*
X111006426Y-79672793D01*
X111010487Y-79673601D01*
X111027405Y-79684905D01*
X111063879Y-79705963D01*
X111070207Y-79713504D01*
X111076974Y-79718026D01*
X111088598Y-79735422D01*
X111105797Y-79755920D01*
X111108142Y-79764673D01*
X111121399Y-79784513D01*
X111136999Y-79862939D01*
X111136999Y-79872367D01*
X111138715Y-79878771D01*
X111138715Y-80146751D01*
X111136999Y-80156483D01*
X111136999Y-80157061D01*
X111136101Y-80161575D01*
X111124478Y-80227492D01*
X111122207Y-80231426D01*
X111121399Y-80235487D01*
X111110095Y-80252405D01*
X111089037Y-80288879D01*
X111081496Y-80295207D01*
X111076974Y-80301974D01*
X111059578Y-80313598D01*
X111039080Y-80330797D01*
X111030327Y-80333142D01*
X111010487Y-80346399D01*
X110932061Y-80361999D01*
X110922633Y-80361999D01*
X110916229Y-80363715D01*
X109198249Y-80363715D01*
X109188517Y-80361999D01*
X109187939Y-80361999D01*
X109183425Y-80361101D01*
X109117508Y-80349478D01*
X109113574Y-80347207D01*
X109109513Y-80346399D01*
X109092595Y-80335095D01*
X109056121Y-80314037D01*
X109049793Y-80306496D01*
X109043026Y-80301974D01*
X109031402Y-80284578D01*
X109014203Y-80264080D01*
X109011858Y-80255327D01*
X108998601Y-80235487D01*
X108983001Y-80157061D01*
X108983001Y-80147633D01*
X108981285Y-80141229D01*
X108981285Y-79873249D01*
X108983001Y-79863517D01*
X108983001Y-79862939D01*
X108983899Y-79858425D01*
X108995522Y-79792508D01*
X108997793Y-79788574D01*
X108998601Y-79784513D01*
X109009905Y-79767595D01*
X109030963Y-79731121D01*
X109038504Y-79724793D01*
X109043026Y-79718026D01*
X109060422Y-79706402D01*
X109080920Y-79689203D01*
X109089673Y-79686858D01*
X109109513Y-79673601D01*
X109187939Y-79658001D01*
X109197367Y-79658001D01*
X109203771Y-79656285D01*
X110921751Y-79656285D01*
X110931483Y-79658001D01*
X110931483Y-79658001D01*
G37*
G36*
X101631483Y-79658001D02*
G01*
X101632061Y-79658001D01*
X101636575Y-79658899D01*
X101702492Y-79670522D01*
X101706426Y-79672793D01*
X101710487Y-79673601D01*
X101727405Y-79684905D01*
X101763879Y-79705963D01*
X101770207Y-79713504D01*
X101776974Y-79718026D01*
X101788598Y-79735422D01*
X101805797Y-79755920D01*
X101808142Y-79764673D01*
X101821399Y-79784513D01*
X101836999Y-79862939D01*
X101836999Y-79872367D01*
X101838715Y-79878771D01*
X101838715Y-80146751D01*
X101836999Y-80156483D01*
X101836999Y-80157061D01*
X101836101Y-80161575D01*
X101824478Y-80227492D01*
X101822207Y-80231426D01*
X101821399Y-80235487D01*
X101810095Y-80252405D01*
X101789037Y-80288879D01*
X101781496Y-80295207D01*
X101776974Y-80301974D01*
X101759578Y-80313598D01*
X101739080Y-80330797D01*
X101730327Y-80333142D01*
X101710487Y-80346399D01*
X101632061Y-80361999D01*
X101622633Y-80361999D01*
X101616229Y-80363715D01*
X99898249Y-80363715D01*
X99888517Y-80361999D01*
X99887939Y-80361999D01*
X99883425Y-80361101D01*
X99817508Y-80349478D01*
X99813574Y-80347207D01*
X99809513Y-80346399D01*
X99792595Y-80335095D01*
X99756121Y-80314037D01*
X99749793Y-80306496D01*
X99743026Y-80301974D01*
X99731402Y-80284578D01*
X99714203Y-80264080D01*
X99711858Y-80255327D01*
X99698601Y-80235487D01*
X99683001Y-80157061D01*
X99683001Y-80147633D01*
X99681285Y-80141229D01*
X99681285Y-79873249D01*
X99683001Y-79863517D01*
X99683001Y-79862939D01*
X99683899Y-79858425D01*
X99695522Y-79792508D01*
X99697793Y-79788574D01*
X99698601Y-79784513D01*
X99709905Y-79767595D01*
X99730963Y-79731121D01*
X99738504Y-79724793D01*
X99743026Y-79718026D01*
X99760422Y-79706402D01*
X99780920Y-79689203D01*
X99789673Y-79686858D01*
X99809513Y-79673601D01*
X99887939Y-79658001D01*
X99897367Y-79658001D01*
X99903771Y-79656285D01*
X101621751Y-79656285D01*
X101631483Y-79658001D01*
X101631483Y-79658001D01*
G37*
G36*
X95438360Y-77853835D02*
G01*
X95519397Y-77880166D01*
X95606663Y-77907848D01*
X95609655Y-77909493D01*
X95618488Y-77912363D01*
X95690466Y-77953919D01*
X95761499Y-77992970D01*
X95768986Y-77999253D01*
X95782511Y-78007061D01*
X95840259Y-78059057D01*
X95896857Y-78106549D01*
X95906962Y-78119118D01*
X95923261Y-78133793D01*
X95965454Y-78191867D01*
X96007579Y-78244260D01*
X96017994Y-78264182D01*
X96034586Y-78287019D01*
X96061297Y-78347012D01*
X96089439Y-78400843D01*
X96097582Y-78428510D01*
X96111621Y-78460042D01*
X96123992Y-78518241D01*
X96139328Y-78570349D01*
X96142518Y-78605401D01*
X96150999Y-78645301D01*
X96150999Y-78698592D01*
X96155343Y-78746324D01*
X96150999Y-78787653D01*
X96150999Y-78834699D01*
X96141217Y-78880721D01*
X96136873Y-78922047D01*
X96122702Y-78967827D01*
X96111621Y-79019958D01*
X96095028Y-79057226D01*
X96084622Y-79090843D01*
X96058789Y-79138620D01*
X96034586Y-79192981D01*
X96014298Y-79220905D01*
X96000580Y-79246276D01*
X95961859Y-79293082D01*
X95923261Y-79346207D01*
X95902284Y-79365095D01*
X95887952Y-79382419D01*
X95835845Y-79424917D01*
X95782511Y-79472939D01*
X95763524Y-79483901D01*
X95751025Y-79494095D01*
X95685780Y-79528786D01*
X95618488Y-79567637D01*
X95603636Y-79572463D01*
X95595003Y-79577053D01*
X95517430Y-79600473D01*
X95438360Y-79626165D01*
X95429114Y-79627137D01*
X95425851Y-79628122D01*
X95334710Y-79637059D01*
X95297211Y-79641000D01*
X95202789Y-79641000D01*
X95061640Y-79626165D01*
X94980603Y-79599834D01*
X94893337Y-79572152D01*
X94890345Y-79570507D01*
X94881512Y-79567637D01*
X94809534Y-79526081D01*
X94738501Y-79487030D01*
X94731014Y-79480747D01*
X94717489Y-79472939D01*
X94659741Y-79420943D01*
X94603143Y-79373451D01*
X94593038Y-79360882D01*
X94576739Y-79346207D01*
X94534546Y-79288133D01*
X94492421Y-79235740D01*
X94482006Y-79215818D01*
X94465414Y-79192981D01*
X94438703Y-79132988D01*
X94410561Y-79079157D01*
X94402418Y-79051490D01*
X94388379Y-79019958D01*
X94376008Y-78961759D01*
X94360672Y-78909651D01*
X94357482Y-78874599D01*
X94349001Y-78834699D01*
X94349001Y-78781408D01*
X94344657Y-78733676D01*
X94349001Y-78692347D01*
X94349001Y-78645301D01*
X94358783Y-78599279D01*
X94363127Y-78557953D01*
X94377298Y-78512173D01*
X94388379Y-78460042D01*
X94404972Y-78422774D01*
X94415378Y-78389157D01*
X94441211Y-78341380D01*
X94465414Y-78287019D01*
X94485702Y-78259095D01*
X94499420Y-78233724D01*
X94538141Y-78186918D01*
X94576739Y-78133793D01*
X94597716Y-78114905D01*
X94612048Y-78097581D01*
X94664155Y-78055083D01*
X94717489Y-78007061D01*
X94736476Y-77996099D01*
X94748975Y-77985905D01*
X94814220Y-77951214D01*
X94881512Y-77912363D01*
X94896364Y-77907537D01*
X94904997Y-77902947D01*
X94982570Y-77879527D01*
X95061640Y-77853835D01*
X95070886Y-77852863D01*
X95074149Y-77851878D01*
X95165290Y-77842941D01*
X95202789Y-77839000D01*
X95297211Y-77839000D01*
X95438360Y-77853835D01*
X95438360Y-77853835D01*
G37*
G36*
X110931483Y-78388001D02*
G01*
X110932061Y-78388001D01*
X110936575Y-78388899D01*
X111002492Y-78400522D01*
X111006426Y-78402793D01*
X111010487Y-78403601D01*
X111027405Y-78414905D01*
X111063879Y-78435963D01*
X111070207Y-78443504D01*
X111076974Y-78448026D01*
X111088598Y-78465422D01*
X111105797Y-78485920D01*
X111108142Y-78494673D01*
X111121399Y-78514513D01*
X111136999Y-78592939D01*
X111136999Y-78602367D01*
X111138715Y-78608771D01*
X111138715Y-78876751D01*
X111136999Y-78886483D01*
X111136999Y-78887061D01*
X111136101Y-78891575D01*
X111124478Y-78957492D01*
X111122207Y-78961426D01*
X111121399Y-78965487D01*
X111110095Y-78982405D01*
X111089037Y-79018879D01*
X111081496Y-79025207D01*
X111076974Y-79031974D01*
X111059578Y-79043598D01*
X111039080Y-79060797D01*
X111030327Y-79063142D01*
X111010487Y-79076399D01*
X110932061Y-79091999D01*
X110922633Y-79091999D01*
X110916229Y-79093715D01*
X109198249Y-79093715D01*
X109188517Y-79091999D01*
X109187939Y-79091999D01*
X109183425Y-79091101D01*
X109117508Y-79079478D01*
X109113574Y-79077207D01*
X109109513Y-79076399D01*
X109092595Y-79065095D01*
X109056121Y-79044037D01*
X109049793Y-79036496D01*
X109043026Y-79031974D01*
X109031402Y-79014578D01*
X109014203Y-78994080D01*
X109011858Y-78985327D01*
X108998601Y-78965487D01*
X108983001Y-78887061D01*
X108983001Y-78877633D01*
X108981285Y-78871229D01*
X108981285Y-78603249D01*
X108983001Y-78593517D01*
X108983001Y-78592939D01*
X108983899Y-78588425D01*
X108995522Y-78522508D01*
X108997793Y-78518574D01*
X108998601Y-78514513D01*
X109009905Y-78497595D01*
X109030963Y-78461121D01*
X109038504Y-78454793D01*
X109043026Y-78448026D01*
X109060422Y-78436402D01*
X109080920Y-78419203D01*
X109089673Y-78416858D01*
X109109513Y-78403601D01*
X109187939Y-78388001D01*
X109197367Y-78388001D01*
X109203771Y-78386285D01*
X110921751Y-78386285D01*
X110931483Y-78388001D01*
X110931483Y-78388001D01*
G37*
G36*
X101631483Y-78388001D02*
G01*
X101632061Y-78388001D01*
X101636575Y-78388899D01*
X101702492Y-78400522D01*
X101706426Y-78402793D01*
X101710487Y-78403601D01*
X101727405Y-78414905D01*
X101763879Y-78435963D01*
X101770207Y-78443504D01*
X101776974Y-78448026D01*
X101788598Y-78465422D01*
X101805797Y-78485920D01*
X101808142Y-78494673D01*
X101821399Y-78514513D01*
X101836999Y-78592939D01*
X101836999Y-78602367D01*
X101838715Y-78608771D01*
X101838715Y-78876751D01*
X101836999Y-78886483D01*
X101836999Y-78887061D01*
X101836101Y-78891575D01*
X101824478Y-78957492D01*
X101822207Y-78961426D01*
X101821399Y-78965487D01*
X101810095Y-78982405D01*
X101789037Y-79018879D01*
X101781496Y-79025207D01*
X101776974Y-79031974D01*
X101759578Y-79043598D01*
X101739080Y-79060797D01*
X101730327Y-79063142D01*
X101710487Y-79076399D01*
X101632061Y-79091999D01*
X101622633Y-79091999D01*
X101616229Y-79093715D01*
X99898249Y-79093715D01*
X99888517Y-79091999D01*
X99887939Y-79091999D01*
X99883425Y-79091101D01*
X99817508Y-79079478D01*
X99813574Y-79077207D01*
X99809513Y-79076399D01*
X99792595Y-79065095D01*
X99756121Y-79044037D01*
X99749793Y-79036496D01*
X99743026Y-79031974D01*
X99731402Y-79014578D01*
X99714203Y-78994080D01*
X99711858Y-78985327D01*
X99698601Y-78965487D01*
X99683001Y-78887061D01*
X99683001Y-78877633D01*
X99681285Y-78871229D01*
X99681285Y-78603249D01*
X99683001Y-78593517D01*
X99683001Y-78592939D01*
X99683899Y-78588425D01*
X99695522Y-78522508D01*
X99697793Y-78518574D01*
X99698601Y-78514513D01*
X99709905Y-78497595D01*
X99730963Y-78461121D01*
X99738504Y-78454793D01*
X99743026Y-78448026D01*
X99760422Y-78436402D01*
X99780920Y-78419203D01*
X99789673Y-78416858D01*
X99809513Y-78403601D01*
X99887939Y-78388001D01*
X99897367Y-78388001D01*
X99903771Y-78386285D01*
X101621751Y-78386285D01*
X101631483Y-78388001D01*
X101631483Y-78388001D01*
G37*
G36*
X101631483Y-77118001D02*
G01*
X101632061Y-77118001D01*
X101636575Y-77118899D01*
X101702492Y-77130522D01*
X101706426Y-77132793D01*
X101710487Y-77133601D01*
X101727405Y-77144905D01*
X101763879Y-77165963D01*
X101770207Y-77173504D01*
X101776974Y-77178026D01*
X101788598Y-77195422D01*
X101805797Y-77215920D01*
X101808142Y-77224673D01*
X101821399Y-77244513D01*
X101836999Y-77322939D01*
X101836999Y-77332367D01*
X101838715Y-77338771D01*
X101838715Y-77606751D01*
X101836999Y-77616483D01*
X101836999Y-77617061D01*
X101836101Y-77621575D01*
X101824478Y-77687492D01*
X101822207Y-77691426D01*
X101821399Y-77695487D01*
X101810095Y-77712405D01*
X101789037Y-77748879D01*
X101781496Y-77755207D01*
X101776974Y-77761974D01*
X101759578Y-77773598D01*
X101739080Y-77790797D01*
X101730327Y-77793142D01*
X101710487Y-77806399D01*
X101632061Y-77821999D01*
X101622633Y-77821999D01*
X101616229Y-77823715D01*
X99898249Y-77823715D01*
X99888517Y-77821999D01*
X99887939Y-77821999D01*
X99883425Y-77821101D01*
X99817508Y-77809478D01*
X99813574Y-77807207D01*
X99809513Y-77806399D01*
X99792595Y-77795095D01*
X99756121Y-77774037D01*
X99749793Y-77766496D01*
X99743026Y-77761974D01*
X99731402Y-77744578D01*
X99714203Y-77724080D01*
X99711858Y-77715327D01*
X99698601Y-77695487D01*
X99683001Y-77617061D01*
X99683001Y-77607633D01*
X99681285Y-77601229D01*
X99681285Y-77333249D01*
X99683001Y-77323517D01*
X99683001Y-77322939D01*
X99683899Y-77318425D01*
X99695522Y-77252508D01*
X99697793Y-77248574D01*
X99698601Y-77244513D01*
X99709905Y-77227595D01*
X99730963Y-77191121D01*
X99738504Y-77184793D01*
X99743026Y-77178026D01*
X99760422Y-77166402D01*
X99780920Y-77149203D01*
X99789673Y-77146858D01*
X99809513Y-77133601D01*
X99887939Y-77118001D01*
X99897367Y-77118001D01*
X99903771Y-77116285D01*
X101621751Y-77116285D01*
X101631483Y-77118001D01*
X101631483Y-77118001D01*
G37*
G36*
X110931483Y-77118001D02*
G01*
X110932061Y-77118001D01*
X110936575Y-77118899D01*
X111002492Y-77130522D01*
X111006426Y-77132793D01*
X111010487Y-77133601D01*
X111027405Y-77144905D01*
X111063879Y-77165963D01*
X111070207Y-77173504D01*
X111076974Y-77178026D01*
X111088598Y-77195422D01*
X111105797Y-77215920D01*
X111108142Y-77224673D01*
X111121399Y-77244513D01*
X111136999Y-77322939D01*
X111136999Y-77332367D01*
X111138715Y-77338771D01*
X111138715Y-77606751D01*
X111136999Y-77616483D01*
X111136999Y-77617061D01*
X111136101Y-77621575D01*
X111124478Y-77687492D01*
X111122207Y-77691426D01*
X111121399Y-77695487D01*
X111110095Y-77712405D01*
X111089037Y-77748879D01*
X111081496Y-77755207D01*
X111076974Y-77761974D01*
X111059578Y-77773598D01*
X111039080Y-77790797D01*
X111030327Y-77793142D01*
X111010487Y-77806399D01*
X110932061Y-77821999D01*
X110922633Y-77821999D01*
X110916229Y-77823715D01*
X109198249Y-77823715D01*
X109188517Y-77821999D01*
X109187939Y-77821999D01*
X109183425Y-77821101D01*
X109117508Y-77809478D01*
X109113574Y-77807207D01*
X109109513Y-77806399D01*
X109092595Y-77795095D01*
X109056121Y-77774037D01*
X109049793Y-77766496D01*
X109043026Y-77761974D01*
X109031402Y-77744578D01*
X109014203Y-77724080D01*
X109011858Y-77715327D01*
X108998601Y-77695487D01*
X108983001Y-77617061D01*
X108983001Y-77607633D01*
X108981285Y-77601229D01*
X108981285Y-77333249D01*
X108983001Y-77323517D01*
X108983001Y-77322939D01*
X108983899Y-77318425D01*
X108995522Y-77252508D01*
X108997793Y-77248574D01*
X108998601Y-77244513D01*
X109009905Y-77227595D01*
X109030963Y-77191121D01*
X109038504Y-77184793D01*
X109043026Y-77178026D01*
X109060422Y-77166402D01*
X109080920Y-77149203D01*
X109089673Y-77146858D01*
X109109513Y-77133601D01*
X109187939Y-77118001D01*
X109197367Y-77118001D01*
X109203771Y-77116285D01*
X110921751Y-77116285D01*
X110931483Y-77118001D01*
X110931483Y-77118001D01*
G37*
G36*
X116888697Y-75049000D02*
G01*
X116936801Y-75049000D01*
X116983858Y-75059002D01*
X117026088Y-75063441D01*
X117072870Y-75077922D01*
X117126172Y-75089252D01*
X117164276Y-75106217D01*
X117198633Y-75116852D01*
X117247458Y-75143252D01*
X117303037Y-75167997D01*
X117331589Y-75188741D01*
X117357512Y-75202758D01*
X117405342Y-75242327D01*
X117459664Y-75281794D01*
X117478975Y-75303241D01*
X117496679Y-75317887D01*
X117540109Y-75371137D01*
X117589209Y-75425668D01*
X117600418Y-75445083D01*
X117610835Y-75457855D01*
X117646277Y-75524513D01*
X117686010Y-75593332D01*
X117690946Y-75608524D01*
X117695631Y-75617335D01*
X117719554Y-75696571D01*
X117745836Y-75777459D01*
X117746829Y-75786909D01*
X117747837Y-75790247D01*
X117756970Y-75883392D01*
X117761000Y-75921735D01*
X117761000Y-76478266D01*
X117745836Y-76622541D01*
X117718895Y-76705459D01*
X117690625Y-76794576D01*
X117688947Y-76797628D01*
X117686010Y-76806668D01*
X117643487Y-76880320D01*
X117603610Y-76952856D01*
X117597193Y-76960504D01*
X117589209Y-76974332D01*
X117536048Y-77033373D01*
X117487512Y-77091216D01*
X117474667Y-77101544D01*
X117459664Y-77118206D01*
X117400297Y-77161338D01*
X117346749Y-77204392D01*
X117326386Y-77215037D01*
X117303035Y-77232003D01*
X117241688Y-77259316D01*
X117186678Y-77288075D01*
X117158407Y-77296396D01*
X117126171Y-77310748D01*
X117066668Y-77323396D01*
X117013418Y-77339068D01*
X116977599Y-77342328D01*
X116936800Y-77351000D01*
X116882310Y-77351000D01*
X116833535Y-77355439D01*
X116791303Y-77351000D01*
X116743199Y-77351000D01*
X116696142Y-77340998D01*
X116653912Y-77336559D01*
X116607130Y-77322078D01*
X116553828Y-77310748D01*
X116515724Y-77293783D01*
X116481367Y-77283148D01*
X116432542Y-77256748D01*
X116376963Y-77232003D01*
X116348411Y-77211259D01*
X116322488Y-77197242D01*
X116274658Y-77157673D01*
X116220336Y-77118206D01*
X116201025Y-77096759D01*
X116183321Y-77082113D01*
X116139891Y-77028863D01*
X116090791Y-76974332D01*
X116079582Y-76954918D01*
X116069165Y-76942145D01*
X116033719Y-76875480D01*
X115993990Y-76806667D01*
X115989055Y-76791478D01*
X115984369Y-76782665D01*
X115960441Y-76703414D01*
X115934164Y-76622540D01*
X115933171Y-76613091D01*
X115932163Y-76609753D01*
X115923030Y-76516604D01*
X115919000Y-76478265D01*
X115919000Y-75921734D01*
X115934164Y-75777459D01*
X115961120Y-75694496D01*
X115989377Y-75605420D01*
X115991053Y-75602372D01*
X115993990Y-75593332D01*
X116036499Y-75519706D01*
X116076388Y-75447147D01*
X116082809Y-75439495D01*
X116090792Y-75425668D01*
X116143950Y-75366630D01*
X116192489Y-75308784D01*
X116205334Y-75298456D01*
X116220337Y-75281794D01*
X116279709Y-75238658D01*
X116333256Y-75195605D01*
X116353616Y-75184961D01*
X116376965Y-75167997D01*
X116438301Y-75140689D01*
X116493318Y-75111926D01*
X116521594Y-75103604D01*
X116553829Y-75089252D01*
X116613331Y-75076604D01*
X116666582Y-75060932D01*
X116702401Y-75057672D01*
X116743200Y-75049000D01*
X116797690Y-75049000D01*
X116846465Y-75044561D01*
X116888697Y-75049000D01*
X116888697Y-75049000D01*
G37*
G36*
X119428697Y-75049000D02*
G01*
X119476801Y-75049000D01*
X119523858Y-75059002D01*
X119566088Y-75063441D01*
X119612870Y-75077922D01*
X119666172Y-75089252D01*
X119704276Y-75106217D01*
X119738633Y-75116852D01*
X119787458Y-75143252D01*
X119843037Y-75167997D01*
X119871589Y-75188741D01*
X119897512Y-75202758D01*
X119945342Y-75242327D01*
X119999664Y-75281794D01*
X120018975Y-75303241D01*
X120036679Y-75317887D01*
X120080109Y-75371137D01*
X120129209Y-75425668D01*
X120140418Y-75445083D01*
X120150835Y-75457855D01*
X120186277Y-75524513D01*
X120226010Y-75593332D01*
X120230946Y-75608524D01*
X120235631Y-75617335D01*
X120259554Y-75696571D01*
X120285836Y-75777459D01*
X120286829Y-75786909D01*
X120287837Y-75790247D01*
X120296970Y-75883392D01*
X120301000Y-75921735D01*
X120301000Y-76478266D01*
X120285836Y-76622541D01*
X120258895Y-76705459D01*
X120230625Y-76794576D01*
X120228947Y-76797628D01*
X120226010Y-76806668D01*
X120183487Y-76880320D01*
X120143610Y-76952856D01*
X120137193Y-76960504D01*
X120129209Y-76974332D01*
X120076048Y-77033373D01*
X120027512Y-77091216D01*
X120014667Y-77101544D01*
X119999664Y-77118206D01*
X119940297Y-77161338D01*
X119886749Y-77204392D01*
X119866386Y-77215037D01*
X119843035Y-77232003D01*
X119781688Y-77259316D01*
X119726678Y-77288075D01*
X119698407Y-77296396D01*
X119666171Y-77310748D01*
X119606668Y-77323396D01*
X119553418Y-77339068D01*
X119517599Y-77342328D01*
X119476800Y-77351000D01*
X119422310Y-77351000D01*
X119373535Y-77355439D01*
X119331303Y-77351000D01*
X119283199Y-77351000D01*
X119236142Y-77340998D01*
X119193912Y-77336559D01*
X119147130Y-77322078D01*
X119093828Y-77310748D01*
X119055724Y-77293783D01*
X119021367Y-77283148D01*
X118972542Y-77256748D01*
X118916963Y-77232003D01*
X118888411Y-77211259D01*
X118862488Y-77197242D01*
X118814658Y-77157673D01*
X118760336Y-77118206D01*
X118741025Y-77096759D01*
X118723321Y-77082113D01*
X118679891Y-77028863D01*
X118630791Y-76974332D01*
X118619582Y-76954918D01*
X118609165Y-76942145D01*
X118573719Y-76875480D01*
X118533990Y-76806667D01*
X118529055Y-76791478D01*
X118524369Y-76782665D01*
X118500441Y-76703414D01*
X118474164Y-76622540D01*
X118473171Y-76613091D01*
X118472163Y-76609753D01*
X118463030Y-76516604D01*
X118459000Y-76478265D01*
X118459000Y-75921734D01*
X118474164Y-75777459D01*
X118501120Y-75694496D01*
X118529377Y-75605420D01*
X118531053Y-75602372D01*
X118533990Y-75593332D01*
X118576499Y-75519706D01*
X118616388Y-75447147D01*
X118622809Y-75439495D01*
X118630792Y-75425668D01*
X118683950Y-75366630D01*
X118732489Y-75308784D01*
X118745334Y-75298456D01*
X118760337Y-75281794D01*
X118819709Y-75238658D01*
X118873256Y-75195605D01*
X118893616Y-75184961D01*
X118916965Y-75167997D01*
X118978301Y-75140689D01*
X119033318Y-75111926D01*
X119061594Y-75103604D01*
X119093829Y-75089252D01*
X119153331Y-75076604D01*
X119206582Y-75060932D01*
X119242401Y-75057672D01*
X119283200Y-75049000D01*
X119337690Y-75049000D01*
X119386465Y-75044561D01*
X119428697Y-75049000D01*
X119428697Y-75049000D01*
G37*
G36*
X121968697Y-75049000D02*
G01*
X122016801Y-75049000D01*
X122063858Y-75059002D01*
X122106088Y-75063441D01*
X122152870Y-75077922D01*
X122206172Y-75089252D01*
X122244276Y-75106217D01*
X122278633Y-75116852D01*
X122327458Y-75143252D01*
X122383037Y-75167997D01*
X122411589Y-75188741D01*
X122437512Y-75202758D01*
X122485342Y-75242327D01*
X122539664Y-75281794D01*
X122558975Y-75303241D01*
X122576679Y-75317887D01*
X122620109Y-75371137D01*
X122669209Y-75425668D01*
X122680418Y-75445083D01*
X122690835Y-75457855D01*
X122726277Y-75524513D01*
X122766010Y-75593332D01*
X122770946Y-75608524D01*
X122775631Y-75617335D01*
X122799554Y-75696571D01*
X122825836Y-75777459D01*
X122826829Y-75786909D01*
X122827837Y-75790247D01*
X122836970Y-75883392D01*
X122841000Y-75921735D01*
X122841000Y-76478266D01*
X122825836Y-76622541D01*
X122798895Y-76705459D01*
X122770625Y-76794576D01*
X122768947Y-76797628D01*
X122766010Y-76806668D01*
X122723487Y-76880320D01*
X122683610Y-76952856D01*
X122677193Y-76960504D01*
X122669209Y-76974332D01*
X122616048Y-77033373D01*
X122567512Y-77091216D01*
X122554667Y-77101544D01*
X122539664Y-77118206D01*
X122480297Y-77161338D01*
X122426749Y-77204392D01*
X122406386Y-77215037D01*
X122383035Y-77232003D01*
X122321688Y-77259316D01*
X122266678Y-77288075D01*
X122238407Y-77296396D01*
X122206171Y-77310748D01*
X122146668Y-77323396D01*
X122093418Y-77339068D01*
X122057599Y-77342328D01*
X122016800Y-77351000D01*
X121962310Y-77351000D01*
X121913535Y-77355439D01*
X121871303Y-77351000D01*
X121823199Y-77351000D01*
X121776142Y-77340998D01*
X121733912Y-77336559D01*
X121687130Y-77322078D01*
X121633828Y-77310748D01*
X121595724Y-77293783D01*
X121561367Y-77283148D01*
X121512542Y-77256748D01*
X121456963Y-77232003D01*
X121428411Y-77211259D01*
X121402488Y-77197242D01*
X121354658Y-77157673D01*
X121300336Y-77118206D01*
X121281025Y-77096759D01*
X121263321Y-77082113D01*
X121219891Y-77028863D01*
X121170791Y-76974332D01*
X121159582Y-76954918D01*
X121149165Y-76942145D01*
X121113719Y-76875480D01*
X121073990Y-76806667D01*
X121069055Y-76791478D01*
X121064369Y-76782665D01*
X121040441Y-76703414D01*
X121014164Y-76622540D01*
X121013171Y-76613091D01*
X121012163Y-76609753D01*
X121003030Y-76516604D01*
X120999000Y-76478265D01*
X120999000Y-75921734D01*
X121014164Y-75777459D01*
X121041120Y-75694496D01*
X121069377Y-75605420D01*
X121071053Y-75602372D01*
X121073990Y-75593332D01*
X121116499Y-75519706D01*
X121156388Y-75447147D01*
X121162809Y-75439495D01*
X121170792Y-75425668D01*
X121223950Y-75366630D01*
X121272489Y-75308784D01*
X121285334Y-75298456D01*
X121300337Y-75281794D01*
X121359709Y-75238658D01*
X121413256Y-75195605D01*
X121433616Y-75184961D01*
X121456965Y-75167997D01*
X121518301Y-75140689D01*
X121573318Y-75111926D01*
X121601594Y-75103604D01*
X121633829Y-75089252D01*
X121693331Y-75076604D01*
X121746582Y-75060932D01*
X121782401Y-75057672D01*
X121823200Y-75049000D01*
X121877690Y-75049000D01*
X121926465Y-75044561D01*
X121968697Y-75049000D01*
X121968697Y-75049000D01*
G37*
G36*
X125166756Y-75061764D02*
G01*
X125178227Y-75067288D01*
X125186287Y-75068795D01*
X125203547Y-75079482D01*
X125248638Y-75101197D01*
X125268738Y-75119847D01*
X125281964Y-75128036D01*
X125292265Y-75141676D01*
X125315264Y-75163016D01*
X125337614Y-75201727D01*
X125349781Y-75217839D01*
X125351751Y-75226213D01*
X125359506Y-75239646D01*
X125378419Y-75339601D01*
X125381883Y-75354330D01*
X125381883Y-75357909D01*
X125383194Y-75364838D01*
X125383194Y-77037517D01*
X125368236Y-77136756D01*
X125362712Y-77148227D01*
X125361205Y-77156287D01*
X125350518Y-77173547D01*
X125328803Y-77218638D01*
X125310153Y-77238738D01*
X125301964Y-77251964D01*
X125288324Y-77262265D01*
X125266984Y-77285264D01*
X125228273Y-77307614D01*
X125212161Y-77319781D01*
X125203787Y-77321751D01*
X125190354Y-77329506D01*
X125090399Y-77348419D01*
X125075670Y-77351883D01*
X125072091Y-77351883D01*
X125065162Y-77353194D01*
X123852483Y-77353194D01*
X123753244Y-77338236D01*
X123741773Y-77332712D01*
X123733713Y-77331205D01*
X123716453Y-77320518D01*
X123671362Y-77298803D01*
X123651262Y-77280153D01*
X123638036Y-77271964D01*
X123627735Y-77258324D01*
X123604736Y-77236984D01*
X123582386Y-77198273D01*
X123570219Y-77182161D01*
X123568249Y-77173787D01*
X123560494Y-77160354D01*
X123541581Y-77060399D01*
X123538117Y-77045670D01*
X123538117Y-77042091D01*
X123536806Y-77035162D01*
X123536806Y-75362483D01*
X123551764Y-75263244D01*
X123557288Y-75251773D01*
X123558795Y-75243713D01*
X123569482Y-75226453D01*
X123591197Y-75181362D01*
X123609847Y-75161262D01*
X123618036Y-75148036D01*
X123631676Y-75137735D01*
X123653016Y-75114736D01*
X123691727Y-75092386D01*
X123707839Y-75080219D01*
X123716213Y-75078249D01*
X123729646Y-75070494D01*
X123829601Y-75051581D01*
X123844330Y-75048117D01*
X123847909Y-75048117D01*
X123854838Y-75046806D01*
X125067517Y-75046806D01*
X125166756Y-75061764D01*
X125166756Y-75061764D01*
G37*
G36*
X95438360Y-75313835D02*
G01*
X95519397Y-75340166D01*
X95606663Y-75367848D01*
X95609655Y-75369493D01*
X95618488Y-75372363D01*
X95690466Y-75413919D01*
X95761499Y-75452970D01*
X95768986Y-75459253D01*
X95782511Y-75467061D01*
X95840259Y-75519057D01*
X95896857Y-75566549D01*
X95906962Y-75579118D01*
X95923261Y-75593793D01*
X95965454Y-75651867D01*
X96007579Y-75704260D01*
X96017994Y-75724182D01*
X96034586Y-75747019D01*
X96061297Y-75807012D01*
X96089439Y-75860843D01*
X96097582Y-75888510D01*
X96111621Y-75920042D01*
X96123992Y-75978241D01*
X96139328Y-76030349D01*
X96142518Y-76065401D01*
X96150999Y-76105301D01*
X96150999Y-76158592D01*
X96155343Y-76206324D01*
X96150999Y-76247653D01*
X96150999Y-76294699D01*
X96141217Y-76340721D01*
X96136873Y-76382047D01*
X96122702Y-76427827D01*
X96111621Y-76479958D01*
X96095028Y-76517226D01*
X96084622Y-76550843D01*
X96058789Y-76598620D01*
X96034586Y-76652981D01*
X96014298Y-76680905D01*
X96000580Y-76706276D01*
X95961859Y-76753082D01*
X95923261Y-76806207D01*
X95902284Y-76825095D01*
X95887952Y-76842419D01*
X95835845Y-76884917D01*
X95782511Y-76932939D01*
X95763524Y-76943901D01*
X95751025Y-76954095D01*
X95685780Y-76988786D01*
X95618488Y-77027637D01*
X95603636Y-77032463D01*
X95595003Y-77037053D01*
X95517430Y-77060473D01*
X95438360Y-77086165D01*
X95429114Y-77087137D01*
X95425851Y-77088122D01*
X95334710Y-77097059D01*
X95297211Y-77101000D01*
X95202789Y-77101000D01*
X95061640Y-77086165D01*
X94980603Y-77059834D01*
X94893337Y-77032152D01*
X94890345Y-77030507D01*
X94881512Y-77027637D01*
X94809534Y-76986081D01*
X94738501Y-76947030D01*
X94731014Y-76940747D01*
X94717489Y-76932939D01*
X94659741Y-76880943D01*
X94603143Y-76833451D01*
X94593038Y-76820882D01*
X94576739Y-76806207D01*
X94534546Y-76748133D01*
X94492421Y-76695740D01*
X94482006Y-76675818D01*
X94465414Y-76652981D01*
X94438703Y-76592988D01*
X94410561Y-76539157D01*
X94402418Y-76511490D01*
X94388379Y-76479958D01*
X94376008Y-76421759D01*
X94360672Y-76369651D01*
X94357482Y-76334599D01*
X94349001Y-76294699D01*
X94349001Y-76241408D01*
X94344657Y-76193676D01*
X94349001Y-76152347D01*
X94349001Y-76105301D01*
X94358783Y-76059279D01*
X94363127Y-76017953D01*
X94377298Y-75972173D01*
X94388379Y-75920042D01*
X94404972Y-75882774D01*
X94415378Y-75849157D01*
X94441211Y-75801380D01*
X94465414Y-75747019D01*
X94485702Y-75719095D01*
X94499420Y-75693724D01*
X94538141Y-75646918D01*
X94576739Y-75593793D01*
X94597716Y-75574905D01*
X94612048Y-75557581D01*
X94664155Y-75515083D01*
X94717489Y-75467061D01*
X94736476Y-75456099D01*
X94748975Y-75445905D01*
X94814220Y-75411214D01*
X94881512Y-75372363D01*
X94896364Y-75367537D01*
X94904997Y-75362947D01*
X94982570Y-75339527D01*
X95061640Y-75313835D01*
X95070886Y-75312863D01*
X95074149Y-75311878D01*
X95165290Y-75302941D01*
X95202789Y-75299000D01*
X95297211Y-75299000D01*
X95438360Y-75313835D01*
X95438360Y-75313835D01*
G37*
G36*
X101631483Y-75848001D02*
G01*
X101632061Y-75848001D01*
X101636575Y-75848899D01*
X101702492Y-75860522D01*
X101706426Y-75862793D01*
X101710487Y-75863601D01*
X101727405Y-75874905D01*
X101763879Y-75895963D01*
X101770207Y-75903504D01*
X101776974Y-75908026D01*
X101788598Y-75925422D01*
X101805797Y-75945920D01*
X101808142Y-75954673D01*
X101821399Y-75974513D01*
X101836999Y-76052939D01*
X101836999Y-76062367D01*
X101838715Y-76068771D01*
X101838715Y-76336751D01*
X101836999Y-76346483D01*
X101836999Y-76347061D01*
X101836101Y-76351575D01*
X101824478Y-76417492D01*
X101822207Y-76421426D01*
X101821399Y-76425487D01*
X101810095Y-76442405D01*
X101789037Y-76478879D01*
X101781496Y-76485207D01*
X101776974Y-76491974D01*
X101759578Y-76503598D01*
X101739080Y-76520797D01*
X101730327Y-76523142D01*
X101710487Y-76536399D01*
X101632061Y-76551999D01*
X101622633Y-76551999D01*
X101616229Y-76553715D01*
X99898249Y-76553715D01*
X99888517Y-76551999D01*
X99887939Y-76551999D01*
X99883425Y-76551101D01*
X99817508Y-76539478D01*
X99813574Y-76537207D01*
X99809513Y-76536399D01*
X99792595Y-76525095D01*
X99756121Y-76504037D01*
X99749793Y-76496496D01*
X99743026Y-76491974D01*
X99731402Y-76474578D01*
X99714203Y-76454080D01*
X99711858Y-76445327D01*
X99698601Y-76425487D01*
X99683001Y-76347061D01*
X99683001Y-76337633D01*
X99681285Y-76331229D01*
X99681285Y-76063249D01*
X99683001Y-76053517D01*
X99683001Y-76052939D01*
X99683899Y-76048425D01*
X99695522Y-75982508D01*
X99697793Y-75978574D01*
X99698601Y-75974513D01*
X99709905Y-75957595D01*
X99730963Y-75921121D01*
X99738504Y-75914793D01*
X99743026Y-75908026D01*
X99760422Y-75896402D01*
X99780920Y-75879203D01*
X99789673Y-75876858D01*
X99809513Y-75863601D01*
X99887939Y-75848001D01*
X99897367Y-75848001D01*
X99903771Y-75846285D01*
X101621751Y-75846285D01*
X101631483Y-75848001D01*
X101631483Y-75848001D01*
G37*
G36*
X110931483Y-75848001D02*
G01*
X110932061Y-75848001D01*
X110936575Y-75848899D01*
X111002492Y-75860522D01*
X111006426Y-75862793D01*
X111010487Y-75863601D01*
X111027405Y-75874905D01*
X111063879Y-75895963D01*
X111070207Y-75903504D01*
X111076974Y-75908026D01*
X111088598Y-75925422D01*
X111105797Y-75945920D01*
X111108142Y-75954673D01*
X111121399Y-75974513D01*
X111136999Y-76052939D01*
X111136999Y-76062367D01*
X111138715Y-76068771D01*
X111138715Y-76336751D01*
X111136999Y-76346483D01*
X111136999Y-76347061D01*
X111136101Y-76351575D01*
X111124478Y-76417492D01*
X111122207Y-76421426D01*
X111121399Y-76425487D01*
X111110095Y-76442405D01*
X111089037Y-76478879D01*
X111081496Y-76485207D01*
X111076974Y-76491974D01*
X111059578Y-76503598D01*
X111039080Y-76520797D01*
X111030327Y-76523142D01*
X111010487Y-76536399D01*
X110932061Y-76551999D01*
X110922633Y-76551999D01*
X110916229Y-76553715D01*
X109198249Y-76553715D01*
X109188517Y-76551999D01*
X109187939Y-76551999D01*
X109183425Y-76551101D01*
X109117508Y-76539478D01*
X109113574Y-76537207D01*
X109109513Y-76536399D01*
X109092595Y-76525095D01*
X109056121Y-76504037D01*
X109049793Y-76496496D01*
X109043026Y-76491974D01*
X109031402Y-76474578D01*
X109014203Y-76454080D01*
X109011858Y-76445327D01*
X108998601Y-76425487D01*
X108983001Y-76347061D01*
X108983001Y-76337633D01*
X108981285Y-76331229D01*
X108981285Y-76063249D01*
X108983001Y-76053517D01*
X108983001Y-76052939D01*
X108983899Y-76048425D01*
X108995522Y-75982508D01*
X108997793Y-75978574D01*
X108998601Y-75974513D01*
X109009905Y-75957595D01*
X109030963Y-75921121D01*
X109038504Y-75914793D01*
X109043026Y-75908026D01*
X109060422Y-75896402D01*
X109080920Y-75879203D01*
X109089673Y-75876858D01*
X109109513Y-75863601D01*
X109187939Y-75848001D01*
X109197367Y-75848001D01*
X109203771Y-75846285D01*
X110921751Y-75846285D01*
X110931483Y-75848001D01*
X110931483Y-75848001D01*
G37*
G36*
X110931483Y-74578001D02*
G01*
X110932061Y-74578001D01*
X110936575Y-74578899D01*
X111002492Y-74590522D01*
X111006426Y-74592793D01*
X111010487Y-74593601D01*
X111027405Y-74604905D01*
X111063879Y-74625963D01*
X111070207Y-74633504D01*
X111076974Y-74638026D01*
X111088598Y-74655422D01*
X111105797Y-74675920D01*
X111108142Y-74684673D01*
X111121399Y-74704513D01*
X111136999Y-74782939D01*
X111136999Y-74792367D01*
X111138715Y-74798771D01*
X111138715Y-75066751D01*
X111136999Y-75076483D01*
X111136999Y-75077061D01*
X111136101Y-75081575D01*
X111124478Y-75147492D01*
X111122207Y-75151426D01*
X111121399Y-75155487D01*
X111110095Y-75172405D01*
X111089037Y-75208879D01*
X111081496Y-75215207D01*
X111076974Y-75221974D01*
X111059578Y-75233598D01*
X111039080Y-75250797D01*
X111030327Y-75253142D01*
X111010487Y-75266399D01*
X110932061Y-75281999D01*
X110922633Y-75281999D01*
X110916229Y-75283715D01*
X109198249Y-75283715D01*
X109188517Y-75281999D01*
X109187939Y-75281999D01*
X109183425Y-75281101D01*
X109117508Y-75269478D01*
X109113574Y-75267207D01*
X109109513Y-75266399D01*
X109092595Y-75255095D01*
X109056121Y-75234037D01*
X109049793Y-75226496D01*
X109043026Y-75221974D01*
X109031402Y-75204578D01*
X109014203Y-75184080D01*
X109011858Y-75175327D01*
X108998601Y-75155487D01*
X108983001Y-75077061D01*
X108983001Y-75067633D01*
X108981285Y-75061229D01*
X108981285Y-74793249D01*
X108983001Y-74783517D01*
X108983001Y-74782939D01*
X108983899Y-74778425D01*
X108995522Y-74712508D01*
X108997793Y-74708574D01*
X108998601Y-74704513D01*
X109009905Y-74687595D01*
X109030963Y-74651121D01*
X109038504Y-74644793D01*
X109043026Y-74638026D01*
X109060422Y-74626402D01*
X109080920Y-74609203D01*
X109089673Y-74606858D01*
X109109513Y-74593601D01*
X109187939Y-74578001D01*
X109197367Y-74578001D01*
X109203771Y-74576285D01*
X110921751Y-74576285D01*
X110931483Y-74578001D01*
X110931483Y-74578001D01*
G37*
G36*
X101631483Y-74578001D02*
G01*
X101632061Y-74578001D01*
X101636575Y-74578899D01*
X101702492Y-74590522D01*
X101706426Y-74592793D01*
X101710487Y-74593601D01*
X101727405Y-74604905D01*
X101763879Y-74625963D01*
X101770207Y-74633504D01*
X101776974Y-74638026D01*
X101788598Y-74655422D01*
X101805797Y-74675920D01*
X101808142Y-74684673D01*
X101821399Y-74704513D01*
X101836999Y-74782939D01*
X101836999Y-74792367D01*
X101838715Y-74798771D01*
X101838715Y-75066751D01*
X101836999Y-75076483D01*
X101836999Y-75077061D01*
X101836101Y-75081575D01*
X101824478Y-75147492D01*
X101822207Y-75151426D01*
X101821399Y-75155487D01*
X101810095Y-75172405D01*
X101789037Y-75208879D01*
X101781496Y-75215207D01*
X101776974Y-75221974D01*
X101759578Y-75233598D01*
X101739080Y-75250797D01*
X101730327Y-75253142D01*
X101710487Y-75266399D01*
X101632061Y-75281999D01*
X101622633Y-75281999D01*
X101616229Y-75283715D01*
X99898249Y-75283715D01*
X99888517Y-75281999D01*
X99887939Y-75281999D01*
X99883425Y-75281101D01*
X99817508Y-75269478D01*
X99813574Y-75267207D01*
X99809513Y-75266399D01*
X99792595Y-75255095D01*
X99756121Y-75234037D01*
X99749793Y-75226496D01*
X99743026Y-75221974D01*
X99731402Y-75204578D01*
X99714203Y-75184080D01*
X99711858Y-75175327D01*
X99698601Y-75155487D01*
X99683001Y-75077061D01*
X99683001Y-75067633D01*
X99681285Y-75061229D01*
X99681285Y-74793249D01*
X99683001Y-74783517D01*
X99683001Y-74782939D01*
X99683899Y-74778425D01*
X99695522Y-74712508D01*
X99697793Y-74708574D01*
X99698601Y-74704513D01*
X99709905Y-74687595D01*
X99730963Y-74651121D01*
X99738504Y-74644793D01*
X99743026Y-74638026D01*
X99760422Y-74626402D01*
X99780920Y-74609203D01*
X99789673Y-74606858D01*
X99809513Y-74593601D01*
X99887939Y-74578001D01*
X99897367Y-74578001D01*
X99903771Y-74576285D01*
X101621751Y-74576285D01*
X101631483Y-74578001D01*
X101631483Y-74578001D01*
G37*
G36*
X96119899Y-72761959D02*
G01*
X96136769Y-72773231D01*
X96148041Y-72790101D01*
X96154448Y-72822312D01*
X96154448Y-74497688D01*
X96151999Y-74510000D01*
X96148041Y-74529899D01*
X96136769Y-74546769D01*
X96119899Y-74558041D01*
X96100000Y-74561999D01*
X96087688Y-74564448D01*
X94412312Y-74564448D01*
X94380101Y-74558041D01*
X94363231Y-74546769D01*
X94351959Y-74529899D01*
X94345552Y-74497688D01*
X94345552Y-72822312D01*
X94351959Y-72790101D01*
X94363231Y-72773231D01*
X94380101Y-72761959D01*
X94412312Y-72755552D01*
X96087688Y-72755552D01*
X96119899Y-72761959D01*
X96119899Y-72761959D01*
G37*
G36*
X122576756Y-72921764D02*
G01*
X122588227Y-72927288D01*
X122596287Y-72928795D01*
X122613547Y-72939482D01*
X122658638Y-72961197D01*
X122678738Y-72979847D01*
X122691964Y-72988036D01*
X122702265Y-73001676D01*
X122725264Y-73023016D01*
X122747614Y-73061727D01*
X122759781Y-73077839D01*
X122761751Y-73086213D01*
X122769506Y-73099646D01*
X122788419Y-73199601D01*
X122791883Y-73214330D01*
X122791883Y-73217909D01*
X122793194Y-73224838D01*
X122793194Y-74097517D01*
X122778236Y-74196756D01*
X122772712Y-74208227D01*
X122771205Y-74216287D01*
X122760518Y-74233547D01*
X122738803Y-74278638D01*
X122720153Y-74298738D01*
X122711964Y-74311964D01*
X122698324Y-74322265D01*
X122676984Y-74345264D01*
X122638273Y-74367614D01*
X122622161Y-74379781D01*
X122613787Y-74381751D01*
X122600354Y-74389506D01*
X122500399Y-74408419D01*
X122485670Y-74411883D01*
X122482091Y-74411883D01*
X122475162Y-74413194D01*
X121852483Y-74413194D01*
X121753244Y-74398236D01*
X121741773Y-74392712D01*
X121733713Y-74391205D01*
X121716453Y-74380518D01*
X121671362Y-74358803D01*
X121651262Y-74340153D01*
X121638036Y-74331964D01*
X121627735Y-74318324D01*
X121604736Y-74296984D01*
X121582386Y-74258273D01*
X121570219Y-74242161D01*
X121568249Y-74233787D01*
X121560494Y-74220354D01*
X121541581Y-74120399D01*
X121538117Y-74105670D01*
X121538117Y-74102091D01*
X121536806Y-74095162D01*
X121536806Y-73222483D01*
X121551764Y-73123244D01*
X121557288Y-73111773D01*
X121558795Y-73103713D01*
X121569482Y-73086453D01*
X121591197Y-73041362D01*
X121609847Y-73021262D01*
X121618036Y-73008036D01*
X121631676Y-72997735D01*
X121653016Y-72974736D01*
X121691727Y-72952386D01*
X121707839Y-72940219D01*
X121716213Y-72938249D01*
X121729646Y-72930494D01*
X121829601Y-72911581D01*
X121844330Y-72908117D01*
X121847909Y-72908117D01*
X121854838Y-72906806D01*
X122477517Y-72906806D01*
X122576756Y-72921764D01*
X122576756Y-72921764D01*
G37*
G36*
X124626756Y-72921764D02*
G01*
X124638227Y-72927288D01*
X124646287Y-72928795D01*
X124663547Y-72939482D01*
X124708638Y-72961197D01*
X124728738Y-72979847D01*
X124741964Y-72988036D01*
X124752265Y-73001676D01*
X124775264Y-73023016D01*
X124797614Y-73061727D01*
X124809781Y-73077839D01*
X124811751Y-73086213D01*
X124819506Y-73099646D01*
X124838419Y-73199601D01*
X124841883Y-73214330D01*
X124841883Y-73217909D01*
X124843194Y-73224838D01*
X124843194Y-74097517D01*
X124828236Y-74196756D01*
X124822712Y-74208227D01*
X124821205Y-74216287D01*
X124810518Y-74233547D01*
X124788803Y-74278638D01*
X124770153Y-74298738D01*
X124761964Y-74311964D01*
X124748324Y-74322265D01*
X124726984Y-74345264D01*
X124688273Y-74367614D01*
X124672161Y-74379781D01*
X124663787Y-74381751D01*
X124650354Y-74389506D01*
X124550399Y-74408419D01*
X124535670Y-74411883D01*
X124532091Y-74411883D01*
X124525162Y-74413194D01*
X123902483Y-74413194D01*
X123803244Y-74398236D01*
X123791773Y-74392712D01*
X123783713Y-74391205D01*
X123766453Y-74380518D01*
X123721362Y-74358803D01*
X123701262Y-74340153D01*
X123688036Y-74331964D01*
X123677735Y-74318324D01*
X123654736Y-74296984D01*
X123632386Y-74258273D01*
X123620219Y-74242161D01*
X123618249Y-74233787D01*
X123610494Y-74220354D01*
X123591581Y-74120399D01*
X123588117Y-74105670D01*
X123588117Y-74102091D01*
X123586806Y-74095162D01*
X123586806Y-73222483D01*
X123601764Y-73123244D01*
X123607288Y-73111773D01*
X123608795Y-73103713D01*
X123619482Y-73086453D01*
X123641197Y-73041362D01*
X123659847Y-73021262D01*
X123668036Y-73008036D01*
X123681676Y-72997735D01*
X123703016Y-72974736D01*
X123741727Y-72952386D01*
X123757839Y-72940219D01*
X123766213Y-72938249D01*
X123779646Y-72930494D01*
X123879601Y-72911581D01*
X123894330Y-72908117D01*
X123897909Y-72908117D01*
X123904838Y-72906806D01*
X124527517Y-72906806D01*
X124626756Y-72921764D01*
X124626756Y-72921764D01*
G37*
G36*
X110931483Y-73308001D02*
G01*
X110932061Y-73308001D01*
X110936575Y-73308899D01*
X111002492Y-73320522D01*
X111006426Y-73322793D01*
X111010487Y-73323601D01*
X111027405Y-73334905D01*
X111063879Y-73355963D01*
X111070207Y-73363504D01*
X111076974Y-73368026D01*
X111088598Y-73385422D01*
X111105797Y-73405920D01*
X111108142Y-73414673D01*
X111121399Y-73434513D01*
X111136999Y-73512939D01*
X111136999Y-73522367D01*
X111138715Y-73528771D01*
X111138715Y-73796751D01*
X111136999Y-73806483D01*
X111136999Y-73807061D01*
X111136101Y-73811575D01*
X111124478Y-73877492D01*
X111122207Y-73881426D01*
X111121399Y-73885487D01*
X111110095Y-73902405D01*
X111089037Y-73938879D01*
X111081496Y-73945207D01*
X111076974Y-73951974D01*
X111059578Y-73963598D01*
X111039080Y-73980797D01*
X111030327Y-73983142D01*
X111010487Y-73996399D01*
X110932061Y-74011999D01*
X110922633Y-74011999D01*
X110916229Y-74013715D01*
X109198249Y-74013715D01*
X109188517Y-74011999D01*
X109187939Y-74011999D01*
X109183425Y-74011101D01*
X109117508Y-73999478D01*
X109113574Y-73997207D01*
X109109513Y-73996399D01*
X109092595Y-73985095D01*
X109056121Y-73964037D01*
X109049793Y-73956496D01*
X109043026Y-73951974D01*
X109031402Y-73934578D01*
X109014203Y-73914080D01*
X109011858Y-73905327D01*
X108998601Y-73885487D01*
X108983001Y-73807061D01*
X108983001Y-73797633D01*
X108981285Y-73791229D01*
X108981285Y-73523249D01*
X108983001Y-73513517D01*
X108983001Y-73512939D01*
X108983899Y-73508425D01*
X108995522Y-73442508D01*
X108997793Y-73438574D01*
X108998601Y-73434513D01*
X109009905Y-73417595D01*
X109030963Y-73381121D01*
X109038504Y-73374793D01*
X109043026Y-73368026D01*
X109060422Y-73356402D01*
X109080920Y-73339203D01*
X109089673Y-73336858D01*
X109109513Y-73323601D01*
X109187939Y-73308001D01*
X109197367Y-73308001D01*
X109203771Y-73306285D01*
X110921751Y-73306285D01*
X110931483Y-73308001D01*
X110931483Y-73308001D01*
G37*
G36*
X101631483Y-73308001D02*
G01*
X101632061Y-73308001D01*
X101636575Y-73308899D01*
X101702492Y-73320522D01*
X101706426Y-73322793D01*
X101710487Y-73323601D01*
X101727405Y-73334905D01*
X101763879Y-73355963D01*
X101770207Y-73363504D01*
X101776974Y-73368026D01*
X101788598Y-73385422D01*
X101805797Y-73405920D01*
X101808142Y-73414673D01*
X101821399Y-73434513D01*
X101836999Y-73512939D01*
X101836999Y-73522367D01*
X101838715Y-73528771D01*
X101838715Y-73796751D01*
X101836999Y-73806483D01*
X101836999Y-73807061D01*
X101836101Y-73811575D01*
X101824478Y-73877492D01*
X101822207Y-73881426D01*
X101821399Y-73885487D01*
X101810095Y-73902405D01*
X101789037Y-73938879D01*
X101781496Y-73945207D01*
X101776974Y-73951974D01*
X101759578Y-73963598D01*
X101739080Y-73980797D01*
X101730327Y-73983142D01*
X101710487Y-73996399D01*
X101632061Y-74011999D01*
X101622633Y-74011999D01*
X101616229Y-74013715D01*
X99898249Y-74013715D01*
X99888517Y-74011999D01*
X99887939Y-74011999D01*
X99883425Y-74011101D01*
X99817508Y-73999478D01*
X99813574Y-73997207D01*
X99809513Y-73996399D01*
X99792595Y-73985095D01*
X99756121Y-73964037D01*
X99749793Y-73956496D01*
X99743026Y-73951974D01*
X99731402Y-73934578D01*
X99714203Y-73914080D01*
X99711858Y-73905327D01*
X99698601Y-73885487D01*
X99683001Y-73807061D01*
X99683001Y-73797633D01*
X99681285Y-73791229D01*
X99681285Y-73523249D01*
X99683001Y-73513517D01*
X99683001Y-73512939D01*
X99683899Y-73508425D01*
X99695522Y-73442508D01*
X99697793Y-73438574D01*
X99698601Y-73434513D01*
X99709905Y-73417595D01*
X99730963Y-73381121D01*
X99738504Y-73374793D01*
X99743026Y-73368026D01*
X99760422Y-73356402D01*
X99780920Y-73339203D01*
X99789673Y-73336858D01*
X99809513Y-73323601D01*
X99887939Y-73308001D01*
X99897367Y-73308001D01*
X99903771Y-73306285D01*
X101621751Y-73306285D01*
X101631483Y-73308001D01*
X101631483Y-73308001D01*
G37*
G36*
X110931483Y-72038001D02*
G01*
X110932061Y-72038001D01*
X110936575Y-72038899D01*
X111002492Y-72050522D01*
X111006426Y-72052793D01*
X111010487Y-72053601D01*
X111027405Y-72064905D01*
X111063879Y-72085963D01*
X111070207Y-72093504D01*
X111076974Y-72098026D01*
X111088598Y-72115422D01*
X111105797Y-72135920D01*
X111108142Y-72144673D01*
X111121399Y-72164513D01*
X111136999Y-72242939D01*
X111136999Y-72252367D01*
X111138715Y-72258771D01*
X111138715Y-72526751D01*
X111136999Y-72536483D01*
X111136999Y-72537061D01*
X111136101Y-72541575D01*
X111124478Y-72607492D01*
X111122207Y-72611426D01*
X111121399Y-72615487D01*
X111110095Y-72632405D01*
X111089037Y-72668879D01*
X111081496Y-72675207D01*
X111076974Y-72681974D01*
X111059578Y-72693598D01*
X111039080Y-72710797D01*
X111030327Y-72713142D01*
X111010487Y-72726399D01*
X110932061Y-72741999D01*
X110922633Y-72741999D01*
X110916229Y-72743715D01*
X109198249Y-72743715D01*
X109188517Y-72741999D01*
X109187939Y-72741999D01*
X109183425Y-72741101D01*
X109117508Y-72729478D01*
X109113574Y-72727207D01*
X109109513Y-72726399D01*
X109092595Y-72715095D01*
X109056121Y-72694037D01*
X109049793Y-72686496D01*
X109043026Y-72681974D01*
X109031402Y-72664578D01*
X109014203Y-72644080D01*
X109011858Y-72635327D01*
X108998601Y-72615487D01*
X108983001Y-72537061D01*
X108983001Y-72527633D01*
X108981285Y-72521229D01*
X108981285Y-72253249D01*
X108983001Y-72243517D01*
X108983001Y-72242939D01*
X108983899Y-72238425D01*
X108995522Y-72172508D01*
X108997793Y-72168574D01*
X108998601Y-72164513D01*
X109009905Y-72147595D01*
X109030963Y-72111121D01*
X109038504Y-72104793D01*
X109043026Y-72098026D01*
X109060422Y-72086402D01*
X109080920Y-72069203D01*
X109089673Y-72066858D01*
X109109513Y-72053601D01*
X109187939Y-72038001D01*
X109197367Y-72038001D01*
X109203771Y-72036285D01*
X110921751Y-72036285D01*
X110931483Y-72038001D01*
X110931483Y-72038001D01*
G37*
G36*
X101631483Y-72038001D02*
G01*
X101632061Y-72038001D01*
X101636575Y-72038899D01*
X101702492Y-72050522D01*
X101706426Y-72052793D01*
X101710487Y-72053601D01*
X101727405Y-72064905D01*
X101763879Y-72085963D01*
X101770207Y-72093504D01*
X101776974Y-72098026D01*
X101788598Y-72115422D01*
X101805797Y-72135920D01*
X101808142Y-72144673D01*
X101821399Y-72164513D01*
X101836999Y-72242939D01*
X101836999Y-72252367D01*
X101838715Y-72258771D01*
X101838715Y-72526751D01*
X101836999Y-72536483D01*
X101836999Y-72537061D01*
X101836101Y-72541575D01*
X101824478Y-72607492D01*
X101822207Y-72611426D01*
X101821399Y-72615487D01*
X101810095Y-72632405D01*
X101789037Y-72668879D01*
X101781496Y-72675207D01*
X101776974Y-72681974D01*
X101759578Y-72693598D01*
X101739080Y-72710797D01*
X101730327Y-72713142D01*
X101710487Y-72726399D01*
X101632061Y-72741999D01*
X101622633Y-72741999D01*
X101616229Y-72743715D01*
X99898249Y-72743715D01*
X99888517Y-72741999D01*
X99887939Y-72741999D01*
X99883425Y-72741101D01*
X99817508Y-72729478D01*
X99813574Y-72727207D01*
X99809513Y-72726399D01*
X99792595Y-72715095D01*
X99756121Y-72694037D01*
X99749793Y-72686496D01*
X99743026Y-72681974D01*
X99731402Y-72664578D01*
X99714203Y-72644080D01*
X99711858Y-72635327D01*
X99698601Y-72615487D01*
X99683001Y-72537061D01*
X99683001Y-72527633D01*
X99681285Y-72521229D01*
X99681285Y-72253249D01*
X99683001Y-72243517D01*
X99683001Y-72242939D01*
X99683899Y-72238425D01*
X99695522Y-72172508D01*
X99697793Y-72168574D01*
X99698601Y-72164513D01*
X99709905Y-72147595D01*
X99730963Y-72111121D01*
X99738504Y-72104793D01*
X99743026Y-72098026D01*
X99760422Y-72086402D01*
X99780920Y-72069203D01*
X99789673Y-72066858D01*
X99809513Y-72053601D01*
X99887939Y-72038001D01*
X99897367Y-72038001D01*
X99903771Y-72036285D01*
X101621751Y-72036285D01*
X101631483Y-72038001D01*
X101631483Y-72038001D01*
G37*
G36*
X110931483Y-70768001D02*
G01*
X110932061Y-70768001D01*
X110936575Y-70768899D01*
X111002492Y-70780522D01*
X111006426Y-70782793D01*
X111010487Y-70783601D01*
X111027405Y-70794905D01*
X111063879Y-70815963D01*
X111070207Y-70823504D01*
X111076974Y-70828026D01*
X111088598Y-70845422D01*
X111105797Y-70865920D01*
X111108142Y-70874673D01*
X111121399Y-70894513D01*
X111136999Y-70972939D01*
X111136999Y-70982367D01*
X111138715Y-70988771D01*
X111138715Y-71256751D01*
X111136999Y-71266483D01*
X111136999Y-71267061D01*
X111136101Y-71271575D01*
X111124478Y-71337492D01*
X111122207Y-71341426D01*
X111121399Y-71345487D01*
X111110095Y-71362405D01*
X111089037Y-71398879D01*
X111081496Y-71405207D01*
X111076974Y-71411974D01*
X111059578Y-71423598D01*
X111039080Y-71440797D01*
X111030327Y-71443142D01*
X111010487Y-71456399D01*
X110932061Y-71471999D01*
X110922633Y-71471999D01*
X110916229Y-71473715D01*
X109198249Y-71473715D01*
X109188517Y-71471999D01*
X109187939Y-71471999D01*
X109183425Y-71471101D01*
X109117508Y-71459478D01*
X109113574Y-71457207D01*
X109109513Y-71456399D01*
X109092595Y-71445095D01*
X109056121Y-71424037D01*
X109049793Y-71416496D01*
X109043026Y-71411974D01*
X109031402Y-71394578D01*
X109014203Y-71374080D01*
X109011858Y-71365327D01*
X108998601Y-71345487D01*
X108983001Y-71267061D01*
X108983001Y-71257633D01*
X108981285Y-71251229D01*
X108981285Y-70983249D01*
X108983001Y-70973517D01*
X108983001Y-70972939D01*
X108983899Y-70968425D01*
X108995522Y-70902508D01*
X108997793Y-70898574D01*
X108998601Y-70894513D01*
X109009905Y-70877595D01*
X109030963Y-70841121D01*
X109038504Y-70834793D01*
X109043026Y-70828026D01*
X109060422Y-70816402D01*
X109080920Y-70799203D01*
X109089673Y-70796858D01*
X109109513Y-70783601D01*
X109187939Y-70768001D01*
X109197367Y-70768001D01*
X109203771Y-70766285D01*
X110921751Y-70766285D01*
X110931483Y-70768001D01*
X110931483Y-70768001D01*
G37*
G36*
X101631483Y-70768001D02*
G01*
X101632061Y-70768001D01*
X101636575Y-70768899D01*
X101702492Y-70780522D01*
X101706426Y-70782793D01*
X101710487Y-70783601D01*
X101727405Y-70794905D01*
X101763879Y-70815963D01*
X101770207Y-70823504D01*
X101776974Y-70828026D01*
X101788598Y-70845422D01*
X101805797Y-70865920D01*
X101808142Y-70874673D01*
X101821399Y-70894513D01*
X101836999Y-70972939D01*
X101836999Y-70982367D01*
X101838715Y-70988771D01*
X101838715Y-71256751D01*
X101836999Y-71266483D01*
X101836999Y-71267061D01*
X101836101Y-71271575D01*
X101824478Y-71337492D01*
X101822207Y-71341426D01*
X101821399Y-71345487D01*
X101810095Y-71362405D01*
X101789037Y-71398879D01*
X101781496Y-71405207D01*
X101776974Y-71411974D01*
X101759578Y-71423598D01*
X101739080Y-71440797D01*
X101730327Y-71443142D01*
X101710487Y-71456399D01*
X101632061Y-71471999D01*
X101622633Y-71471999D01*
X101616229Y-71473715D01*
X99898249Y-71473715D01*
X99888517Y-71471999D01*
X99887939Y-71471999D01*
X99883425Y-71471101D01*
X99817508Y-71459478D01*
X99813574Y-71457207D01*
X99809513Y-71456399D01*
X99792595Y-71445095D01*
X99756121Y-71424037D01*
X99749793Y-71416496D01*
X99743026Y-71411974D01*
X99731402Y-71394578D01*
X99714203Y-71374080D01*
X99711858Y-71365327D01*
X99698601Y-71345487D01*
X99683001Y-71267061D01*
X99683001Y-71257633D01*
X99681285Y-71251229D01*
X99681285Y-70983249D01*
X99683001Y-70973517D01*
X99683001Y-70972939D01*
X99683899Y-70968425D01*
X99695522Y-70902508D01*
X99697793Y-70898574D01*
X99698601Y-70894513D01*
X99709905Y-70877595D01*
X99730963Y-70841121D01*
X99738504Y-70834793D01*
X99743026Y-70828026D01*
X99760422Y-70816402D01*
X99780920Y-70799203D01*
X99789673Y-70796858D01*
X99809513Y-70783601D01*
X99887939Y-70768001D01*
X99897367Y-70768001D01*
X99903771Y-70766285D01*
X101621751Y-70766285D01*
X101631483Y-70768001D01*
X101631483Y-70768001D01*
G37*
G36*
X121968697Y-68064000D02*
G01*
X122016801Y-68064000D01*
X122063858Y-68074002D01*
X122106088Y-68078441D01*
X122152870Y-68092922D01*
X122206172Y-68104252D01*
X122244276Y-68121217D01*
X122278633Y-68131852D01*
X122327458Y-68158252D01*
X122383037Y-68182997D01*
X122411589Y-68203741D01*
X122437512Y-68217758D01*
X122485342Y-68257327D01*
X122539664Y-68296794D01*
X122558975Y-68318241D01*
X122576679Y-68332887D01*
X122620109Y-68386137D01*
X122669209Y-68440668D01*
X122680418Y-68460083D01*
X122690835Y-68472855D01*
X122726277Y-68539513D01*
X122766010Y-68608332D01*
X122770946Y-68623524D01*
X122775631Y-68632335D01*
X122799554Y-68711571D01*
X122825836Y-68792459D01*
X122826829Y-68801909D01*
X122827837Y-68805247D01*
X122836970Y-68898392D01*
X122841000Y-68936735D01*
X122841000Y-69493266D01*
X122825836Y-69637541D01*
X122798895Y-69720459D01*
X122770625Y-69809576D01*
X122768947Y-69812628D01*
X122766010Y-69821668D01*
X122723487Y-69895320D01*
X122683610Y-69967856D01*
X122677193Y-69975504D01*
X122669209Y-69989332D01*
X122616048Y-70048373D01*
X122567512Y-70106216D01*
X122554667Y-70116544D01*
X122539664Y-70133206D01*
X122480297Y-70176338D01*
X122426749Y-70219392D01*
X122406386Y-70230037D01*
X122383035Y-70247003D01*
X122321688Y-70274316D01*
X122266678Y-70303075D01*
X122238407Y-70311396D01*
X122206171Y-70325748D01*
X122146668Y-70338396D01*
X122093418Y-70354068D01*
X122057599Y-70357328D01*
X122016800Y-70366000D01*
X121962310Y-70366000D01*
X121913535Y-70370439D01*
X121871303Y-70366000D01*
X121823199Y-70366000D01*
X121776142Y-70355998D01*
X121733912Y-70351559D01*
X121687130Y-70337078D01*
X121633828Y-70325748D01*
X121595724Y-70308783D01*
X121561367Y-70298148D01*
X121512542Y-70271748D01*
X121456963Y-70247003D01*
X121428411Y-70226259D01*
X121402488Y-70212242D01*
X121354658Y-70172673D01*
X121300336Y-70133206D01*
X121281025Y-70111759D01*
X121263321Y-70097113D01*
X121219891Y-70043863D01*
X121170791Y-69989332D01*
X121159582Y-69969918D01*
X121149165Y-69957145D01*
X121113719Y-69890480D01*
X121073990Y-69821667D01*
X121069055Y-69806478D01*
X121064369Y-69797665D01*
X121040441Y-69718414D01*
X121014164Y-69637540D01*
X121013171Y-69628091D01*
X121012163Y-69624753D01*
X121003030Y-69531604D01*
X120999000Y-69493265D01*
X120999000Y-68936734D01*
X121014164Y-68792459D01*
X121041120Y-68709496D01*
X121069377Y-68620420D01*
X121071053Y-68617372D01*
X121073990Y-68608332D01*
X121116499Y-68534706D01*
X121156388Y-68462147D01*
X121162809Y-68454495D01*
X121170792Y-68440668D01*
X121223950Y-68381630D01*
X121272489Y-68323784D01*
X121285334Y-68313456D01*
X121300337Y-68296794D01*
X121359709Y-68253658D01*
X121413256Y-68210605D01*
X121433616Y-68199961D01*
X121456965Y-68182997D01*
X121518301Y-68155689D01*
X121573318Y-68126926D01*
X121601594Y-68118604D01*
X121633829Y-68104252D01*
X121693331Y-68091604D01*
X121746582Y-68075932D01*
X121782401Y-68072672D01*
X121823200Y-68064000D01*
X121877690Y-68064000D01*
X121926465Y-68059561D01*
X121968697Y-68064000D01*
X121968697Y-68064000D01*
G37*
G36*
X119428697Y-68064000D02*
G01*
X119476801Y-68064000D01*
X119523858Y-68074002D01*
X119566088Y-68078441D01*
X119612870Y-68092922D01*
X119666172Y-68104252D01*
X119704276Y-68121217D01*
X119738633Y-68131852D01*
X119787458Y-68158252D01*
X119843037Y-68182997D01*
X119871589Y-68203741D01*
X119897512Y-68217758D01*
X119945342Y-68257327D01*
X119999664Y-68296794D01*
X120018975Y-68318241D01*
X120036679Y-68332887D01*
X120080109Y-68386137D01*
X120129209Y-68440668D01*
X120140418Y-68460083D01*
X120150835Y-68472855D01*
X120186277Y-68539513D01*
X120226010Y-68608332D01*
X120230946Y-68623524D01*
X120235631Y-68632335D01*
X120259554Y-68711571D01*
X120285836Y-68792459D01*
X120286829Y-68801909D01*
X120287837Y-68805247D01*
X120296970Y-68898392D01*
X120301000Y-68936735D01*
X120301000Y-69493266D01*
X120285836Y-69637541D01*
X120258895Y-69720459D01*
X120230625Y-69809576D01*
X120228947Y-69812628D01*
X120226010Y-69821668D01*
X120183487Y-69895320D01*
X120143610Y-69967856D01*
X120137193Y-69975504D01*
X120129209Y-69989332D01*
X120076048Y-70048373D01*
X120027512Y-70106216D01*
X120014667Y-70116544D01*
X119999664Y-70133206D01*
X119940297Y-70176338D01*
X119886749Y-70219392D01*
X119866386Y-70230037D01*
X119843035Y-70247003D01*
X119781688Y-70274316D01*
X119726678Y-70303075D01*
X119698407Y-70311396D01*
X119666171Y-70325748D01*
X119606668Y-70338396D01*
X119553418Y-70354068D01*
X119517599Y-70357328D01*
X119476800Y-70366000D01*
X119422310Y-70366000D01*
X119373535Y-70370439D01*
X119331303Y-70366000D01*
X119283199Y-70366000D01*
X119236142Y-70355998D01*
X119193912Y-70351559D01*
X119147130Y-70337078D01*
X119093828Y-70325748D01*
X119055724Y-70308783D01*
X119021367Y-70298148D01*
X118972542Y-70271748D01*
X118916963Y-70247003D01*
X118888411Y-70226259D01*
X118862488Y-70212242D01*
X118814658Y-70172673D01*
X118760336Y-70133206D01*
X118741025Y-70111759D01*
X118723321Y-70097113D01*
X118679891Y-70043863D01*
X118630791Y-69989332D01*
X118619582Y-69969918D01*
X118609165Y-69957145D01*
X118573719Y-69890480D01*
X118533990Y-69821667D01*
X118529055Y-69806478D01*
X118524369Y-69797665D01*
X118500441Y-69718414D01*
X118474164Y-69637540D01*
X118473171Y-69628091D01*
X118472163Y-69624753D01*
X118463030Y-69531604D01*
X118459000Y-69493265D01*
X118459000Y-68936734D01*
X118474164Y-68792459D01*
X118501120Y-68709496D01*
X118529377Y-68620420D01*
X118531053Y-68617372D01*
X118533990Y-68608332D01*
X118576499Y-68534706D01*
X118616388Y-68462147D01*
X118622809Y-68454495D01*
X118630792Y-68440668D01*
X118683950Y-68381630D01*
X118732489Y-68323784D01*
X118745334Y-68313456D01*
X118760337Y-68296794D01*
X118819709Y-68253658D01*
X118873256Y-68210605D01*
X118893616Y-68199961D01*
X118916965Y-68182997D01*
X118978301Y-68155689D01*
X119033318Y-68126926D01*
X119061594Y-68118604D01*
X119093829Y-68104252D01*
X119153331Y-68091604D01*
X119206582Y-68075932D01*
X119242401Y-68072672D01*
X119283200Y-68064000D01*
X119337690Y-68064000D01*
X119386465Y-68059561D01*
X119428697Y-68064000D01*
X119428697Y-68064000D01*
G37*
G36*
X116888697Y-68064000D02*
G01*
X116936801Y-68064000D01*
X116983858Y-68074002D01*
X117026088Y-68078441D01*
X117072870Y-68092922D01*
X117126172Y-68104252D01*
X117164276Y-68121217D01*
X117198633Y-68131852D01*
X117247458Y-68158252D01*
X117303037Y-68182997D01*
X117331589Y-68203741D01*
X117357512Y-68217758D01*
X117405342Y-68257327D01*
X117459664Y-68296794D01*
X117478975Y-68318241D01*
X117496679Y-68332887D01*
X117540109Y-68386137D01*
X117589209Y-68440668D01*
X117600418Y-68460083D01*
X117610835Y-68472855D01*
X117646277Y-68539513D01*
X117686010Y-68608332D01*
X117690946Y-68623524D01*
X117695631Y-68632335D01*
X117719554Y-68711571D01*
X117745836Y-68792459D01*
X117746829Y-68801909D01*
X117747837Y-68805247D01*
X117756970Y-68898392D01*
X117761000Y-68936735D01*
X117761000Y-69493266D01*
X117745836Y-69637541D01*
X117718895Y-69720459D01*
X117690625Y-69809576D01*
X117688947Y-69812628D01*
X117686010Y-69821668D01*
X117643487Y-69895320D01*
X117603610Y-69967856D01*
X117597193Y-69975504D01*
X117589209Y-69989332D01*
X117536048Y-70048373D01*
X117487512Y-70106216D01*
X117474667Y-70116544D01*
X117459664Y-70133206D01*
X117400297Y-70176338D01*
X117346749Y-70219392D01*
X117326386Y-70230037D01*
X117303035Y-70247003D01*
X117241688Y-70274316D01*
X117186678Y-70303075D01*
X117158407Y-70311396D01*
X117126171Y-70325748D01*
X117066668Y-70338396D01*
X117013418Y-70354068D01*
X116977599Y-70357328D01*
X116936800Y-70366000D01*
X116882310Y-70366000D01*
X116833535Y-70370439D01*
X116791303Y-70366000D01*
X116743199Y-70366000D01*
X116696142Y-70355998D01*
X116653912Y-70351559D01*
X116607130Y-70337078D01*
X116553828Y-70325748D01*
X116515724Y-70308783D01*
X116481367Y-70298148D01*
X116432542Y-70271748D01*
X116376963Y-70247003D01*
X116348411Y-70226259D01*
X116322488Y-70212242D01*
X116274658Y-70172673D01*
X116220336Y-70133206D01*
X116201025Y-70111759D01*
X116183321Y-70097113D01*
X116139891Y-70043863D01*
X116090791Y-69989332D01*
X116079582Y-69969918D01*
X116069165Y-69957145D01*
X116033719Y-69890480D01*
X115993990Y-69821667D01*
X115989055Y-69806478D01*
X115984369Y-69797665D01*
X115960441Y-69718414D01*
X115934164Y-69637540D01*
X115933171Y-69628091D01*
X115932163Y-69624753D01*
X115923030Y-69531604D01*
X115919000Y-69493265D01*
X115919000Y-68936734D01*
X115934164Y-68792459D01*
X115961120Y-68709496D01*
X115989377Y-68620420D01*
X115991053Y-68617372D01*
X115993990Y-68608332D01*
X116036499Y-68534706D01*
X116076388Y-68462147D01*
X116082809Y-68454495D01*
X116090792Y-68440668D01*
X116143950Y-68381630D01*
X116192489Y-68323784D01*
X116205334Y-68313456D01*
X116220337Y-68296794D01*
X116279709Y-68253658D01*
X116333256Y-68210605D01*
X116353616Y-68199961D01*
X116376965Y-68182997D01*
X116438301Y-68155689D01*
X116493318Y-68126926D01*
X116521594Y-68118604D01*
X116553829Y-68104252D01*
X116613331Y-68091604D01*
X116666582Y-68075932D01*
X116702401Y-68072672D01*
X116743200Y-68064000D01*
X116797690Y-68064000D01*
X116846465Y-68059561D01*
X116888697Y-68064000D01*
X116888697Y-68064000D01*
G37*
G36*
X125166756Y-68076764D02*
G01*
X125178227Y-68082288D01*
X125186287Y-68083795D01*
X125203547Y-68094482D01*
X125248638Y-68116197D01*
X125268738Y-68134847D01*
X125281964Y-68143036D01*
X125292265Y-68156676D01*
X125315264Y-68178016D01*
X125337614Y-68216727D01*
X125349781Y-68232839D01*
X125351751Y-68241213D01*
X125359506Y-68254646D01*
X125378419Y-68354601D01*
X125381883Y-68369330D01*
X125381883Y-68372909D01*
X125383194Y-68379838D01*
X125383194Y-70052517D01*
X125368236Y-70151756D01*
X125362712Y-70163227D01*
X125361205Y-70171287D01*
X125350518Y-70188547D01*
X125328803Y-70233638D01*
X125310153Y-70253738D01*
X125301964Y-70266964D01*
X125288324Y-70277265D01*
X125266984Y-70300264D01*
X125228273Y-70322614D01*
X125212161Y-70334781D01*
X125203787Y-70336751D01*
X125190354Y-70344506D01*
X125090399Y-70363419D01*
X125075670Y-70366883D01*
X125072091Y-70366883D01*
X125065162Y-70368194D01*
X123852483Y-70368194D01*
X123753244Y-70353236D01*
X123741773Y-70347712D01*
X123733713Y-70346205D01*
X123716453Y-70335518D01*
X123671362Y-70313803D01*
X123651262Y-70295153D01*
X123638036Y-70286964D01*
X123627735Y-70273324D01*
X123604736Y-70251984D01*
X123582386Y-70213273D01*
X123570219Y-70197161D01*
X123568249Y-70188787D01*
X123560494Y-70175354D01*
X123541581Y-70075399D01*
X123538117Y-70060670D01*
X123538117Y-70057091D01*
X123536806Y-70050162D01*
X123536806Y-68377483D01*
X123551764Y-68278244D01*
X123557288Y-68266773D01*
X123558795Y-68258713D01*
X123569482Y-68241453D01*
X123591197Y-68196362D01*
X123609847Y-68176262D01*
X123618036Y-68163036D01*
X123631676Y-68152735D01*
X123653016Y-68129736D01*
X123691727Y-68107386D01*
X123707839Y-68095219D01*
X123716213Y-68093249D01*
X123729646Y-68085494D01*
X123829601Y-68066581D01*
X123844330Y-68063117D01*
X123847909Y-68063117D01*
X123854838Y-68061806D01*
X125067517Y-68061806D01*
X125166756Y-68076764D01*
X125166756Y-68076764D01*
G37*
G36*
X110931483Y-69498001D02*
G01*
X110932061Y-69498001D01*
X110936575Y-69498899D01*
X111002492Y-69510522D01*
X111006426Y-69512793D01*
X111010487Y-69513601D01*
X111027405Y-69524905D01*
X111063879Y-69545963D01*
X111070207Y-69553504D01*
X111076974Y-69558026D01*
X111088598Y-69575422D01*
X111105797Y-69595920D01*
X111108142Y-69604673D01*
X111121399Y-69624513D01*
X111136999Y-69702939D01*
X111136999Y-69712367D01*
X111138715Y-69718771D01*
X111138715Y-69986751D01*
X111136999Y-69996483D01*
X111136999Y-69997061D01*
X111136101Y-70001575D01*
X111124478Y-70067492D01*
X111122207Y-70071426D01*
X111121399Y-70075487D01*
X111110095Y-70092405D01*
X111089037Y-70128879D01*
X111081496Y-70135207D01*
X111076974Y-70141974D01*
X111059578Y-70153598D01*
X111039080Y-70170797D01*
X111030327Y-70173142D01*
X111010487Y-70186399D01*
X110932061Y-70201999D01*
X110922633Y-70201999D01*
X110916229Y-70203715D01*
X109198249Y-70203715D01*
X109188517Y-70201999D01*
X109187939Y-70201999D01*
X109183425Y-70201101D01*
X109117508Y-70189478D01*
X109113574Y-70187207D01*
X109109513Y-70186399D01*
X109092595Y-70175095D01*
X109056121Y-70154037D01*
X109049793Y-70146496D01*
X109043026Y-70141974D01*
X109031402Y-70124578D01*
X109014203Y-70104080D01*
X109011858Y-70095327D01*
X108998601Y-70075487D01*
X108983001Y-69997061D01*
X108983001Y-69987633D01*
X108981285Y-69981229D01*
X108981285Y-69713249D01*
X108983001Y-69703517D01*
X108983001Y-69702939D01*
X108983899Y-69698425D01*
X108995522Y-69632508D01*
X108997793Y-69628574D01*
X108998601Y-69624513D01*
X109009905Y-69607595D01*
X109030963Y-69571121D01*
X109038504Y-69564793D01*
X109043026Y-69558026D01*
X109060422Y-69546402D01*
X109080920Y-69529203D01*
X109089673Y-69526858D01*
X109109513Y-69513601D01*
X109187939Y-69498001D01*
X109197367Y-69498001D01*
X109203771Y-69496285D01*
X110921751Y-69496285D01*
X110931483Y-69498001D01*
X110931483Y-69498001D01*
G37*
G36*
X101631483Y-69498001D02*
G01*
X101632061Y-69498001D01*
X101636575Y-69498899D01*
X101702492Y-69510522D01*
X101706426Y-69512793D01*
X101710487Y-69513601D01*
X101727405Y-69524905D01*
X101763879Y-69545963D01*
X101770207Y-69553504D01*
X101776974Y-69558026D01*
X101788598Y-69575422D01*
X101805797Y-69595920D01*
X101808142Y-69604673D01*
X101821399Y-69624513D01*
X101836999Y-69702939D01*
X101836999Y-69712367D01*
X101838715Y-69718771D01*
X101838715Y-69986751D01*
X101836999Y-69996483D01*
X101836999Y-69997061D01*
X101836101Y-70001575D01*
X101824478Y-70067492D01*
X101822207Y-70071426D01*
X101821399Y-70075487D01*
X101810095Y-70092405D01*
X101789037Y-70128879D01*
X101781496Y-70135207D01*
X101776974Y-70141974D01*
X101759578Y-70153598D01*
X101739080Y-70170797D01*
X101730327Y-70173142D01*
X101710487Y-70186399D01*
X101632061Y-70201999D01*
X101622633Y-70201999D01*
X101616229Y-70203715D01*
X99898249Y-70203715D01*
X99888517Y-70201999D01*
X99887939Y-70201999D01*
X99883425Y-70201101D01*
X99817508Y-70189478D01*
X99813574Y-70187207D01*
X99809513Y-70186399D01*
X99792595Y-70175095D01*
X99756121Y-70154037D01*
X99749793Y-70146496D01*
X99743026Y-70141974D01*
X99731402Y-70124578D01*
X99714203Y-70104080D01*
X99711858Y-70095327D01*
X99698601Y-70075487D01*
X99683001Y-69997061D01*
X99683001Y-69987633D01*
X99681285Y-69981229D01*
X99681285Y-69713249D01*
X99683001Y-69703517D01*
X99683001Y-69702939D01*
X99683899Y-69698425D01*
X99695522Y-69632508D01*
X99697793Y-69628574D01*
X99698601Y-69624513D01*
X99709905Y-69607595D01*
X99730963Y-69571121D01*
X99738504Y-69564793D01*
X99743026Y-69558026D01*
X99760422Y-69546402D01*
X99780920Y-69529203D01*
X99789673Y-69526858D01*
X99809513Y-69513601D01*
X99887939Y-69498001D01*
X99897367Y-69498001D01*
X99903771Y-69496285D01*
X101621751Y-69496285D01*
X101631483Y-69498001D01*
X101631483Y-69498001D01*
G37*
G36*
X95438360Y-66423835D02*
G01*
X95519397Y-66450166D01*
X95606663Y-66477848D01*
X95609655Y-66479493D01*
X95618488Y-66482363D01*
X95690466Y-66523919D01*
X95761499Y-66562970D01*
X95768986Y-66569253D01*
X95782511Y-66577061D01*
X95840259Y-66629057D01*
X95896857Y-66676549D01*
X95906962Y-66689118D01*
X95923261Y-66703793D01*
X95965454Y-66761867D01*
X96007579Y-66814260D01*
X96017994Y-66834182D01*
X96034586Y-66857019D01*
X96061297Y-66917012D01*
X96089439Y-66970843D01*
X96097582Y-66998510D01*
X96111621Y-67030042D01*
X96123992Y-67088241D01*
X96139328Y-67140349D01*
X96142518Y-67175401D01*
X96150999Y-67215301D01*
X96150999Y-67268592D01*
X96155343Y-67316324D01*
X96150999Y-67357653D01*
X96150999Y-67404699D01*
X96141217Y-67450721D01*
X96136873Y-67492047D01*
X96122702Y-67537827D01*
X96111621Y-67589958D01*
X96095028Y-67627226D01*
X96084622Y-67660843D01*
X96058789Y-67708620D01*
X96034586Y-67762981D01*
X96014298Y-67790905D01*
X96000580Y-67816276D01*
X95961859Y-67863082D01*
X95923261Y-67916207D01*
X95902284Y-67935095D01*
X95887952Y-67952419D01*
X95835845Y-67994917D01*
X95782511Y-68042939D01*
X95763524Y-68053901D01*
X95751025Y-68064095D01*
X95685780Y-68098786D01*
X95618488Y-68137637D01*
X95603636Y-68142463D01*
X95595003Y-68147053D01*
X95517430Y-68170473D01*
X95438360Y-68196165D01*
X95429114Y-68197137D01*
X95425851Y-68198122D01*
X95334710Y-68207059D01*
X95297211Y-68211000D01*
X95202789Y-68211000D01*
X95061640Y-68196165D01*
X94980603Y-68169834D01*
X94893337Y-68142152D01*
X94890345Y-68140507D01*
X94881512Y-68137637D01*
X94809534Y-68096081D01*
X94738501Y-68057030D01*
X94731014Y-68050747D01*
X94717489Y-68042939D01*
X94659741Y-67990943D01*
X94603143Y-67943451D01*
X94593038Y-67930882D01*
X94576739Y-67916207D01*
X94534546Y-67858133D01*
X94492421Y-67805740D01*
X94482006Y-67785818D01*
X94465414Y-67762981D01*
X94438703Y-67702988D01*
X94410561Y-67649157D01*
X94402418Y-67621490D01*
X94388379Y-67589958D01*
X94376008Y-67531759D01*
X94360672Y-67479651D01*
X94357482Y-67444599D01*
X94349001Y-67404699D01*
X94349001Y-67351408D01*
X94344657Y-67303676D01*
X94349001Y-67262347D01*
X94349001Y-67215301D01*
X94358783Y-67169279D01*
X94363127Y-67127953D01*
X94377298Y-67082173D01*
X94388379Y-67030042D01*
X94404972Y-66992774D01*
X94415378Y-66959157D01*
X94441211Y-66911380D01*
X94465414Y-66857019D01*
X94485702Y-66829095D01*
X94499420Y-66803724D01*
X94538141Y-66756918D01*
X94576739Y-66703793D01*
X94597716Y-66684905D01*
X94612048Y-66667581D01*
X94664155Y-66625083D01*
X94717489Y-66577061D01*
X94736476Y-66566099D01*
X94748975Y-66555905D01*
X94814220Y-66521214D01*
X94881512Y-66482363D01*
X94896364Y-66477537D01*
X94904997Y-66472947D01*
X94982570Y-66449527D01*
X95061640Y-66423835D01*
X95070886Y-66422863D01*
X95074149Y-66421878D01*
X95165290Y-66412941D01*
X95202789Y-66409000D01*
X95297211Y-66409000D01*
X95438360Y-66423835D01*
X95438360Y-66423835D01*
G37*
G36*
X108606756Y-66571764D02*
G01*
X108618227Y-66577288D01*
X108626287Y-66578795D01*
X108643547Y-66589482D01*
X108688638Y-66611197D01*
X108708738Y-66629847D01*
X108721964Y-66638036D01*
X108732265Y-66651676D01*
X108755264Y-66673016D01*
X108777614Y-66711727D01*
X108789781Y-66727839D01*
X108791751Y-66736213D01*
X108799506Y-66749646D01*
X108818419Y-66849601D01*
X108821883Y-66864330D01*
X108821883Y-66867909D01*
X108823194Y-66874838D01*
X108823194Y-67747517D01*
X108808236Y-67846756D01*
X108802712Y-67858227D01*
X108801205Y-67866287D01*
X108790518Y-67883547D01*
X108768803Y-67928638D01*
X108750153Y-67948738D01*
X108741964Y-67961964D01*
X108728324Y-67972265D01*
X108706984Y-67995264D01*
X108668273Y-68017614D01*
X108652161Y-68029781D01*
X108643787Y-68031751D01*
X108630354Y-68039506D01*
X108530399Y-68058419D01*
X108515670Y-68061883D01*
X108512091Y-68061883D01*
X108505162Y-68063194D01*
X107882483Y-68063194D01*
X107783244Y-68048236D01*
X107771773Y-68042712D01*
X107763713Y-68041205D01*
X107746453Y-68030518D01*
X107701362Y-68008803D01*
X107681262Y-67990153D01*
X107668036Y-67981964D01*
X107657735Y-67968324D01*
X107634736Y-67946984D01*
X107612386Y-67908273D01*
X107600219Y-67892161D01*
X107598249Y-67883787D01*
X107590494Y-67870354D01*
X107571581Y-67770399D01*
X107568117Y-67755670D01*
X107568117Y-67752091D01*
X107566806Y-67745162D01*
X107566806Y-66872483D01*
X107581764Y-66773244D01*
X107587288Y-66761773D01*
X107588795Y-66753713D01*
X107599482Y-66736453D01*
X107621197Y-66691362D01*
X107639847Y-66671262D01*
X107648036Y-66658036D01*
X107661676Y-66647735D01*
X107683016Y-66624736D01*
X107721727Y-66602386D01*
X107737839Y-66590219D01*
X107746213Y-66588249D01*
X107759646Y-66580494D01*
X107859601Y-66561581D01*
X107874330Y-66558117D01*
X107877909Y-66558117D01*
X107884838Y-66556806D01*
X108507517Y-66556806D01*
X108606756Y-66571764D01*
X108606756Y-66571764D01*
G37*
G36*
X110656756Y-66571764D02*
G01*
X110668227Y-66577288D01*
X110676287Y-66578795D01*
X110693547Y-66589482D01*
X110738638Y-66611197D01*
X110758738Y-66629847D01*
X110771964Y-66638036D01*
X110782265Y-66651676D01*
X110805264Y-66673016D01*
X110827614Y-66711727D01*
X110839781Y-66727839D01*
X110841751Y-66736213D01*
X110849506Y-66749646D01*
X110868419Y-66849601D01*
X110871883Y-66864330D01*
X110871883Y-66867909D01*
X110873194Y-66874838D01*
X110873194Y-67747517D01*
X110858236Y-67846756D01*
X110852712Y-67858227D01*
X110851205Y-67866287D01*
X110840518Y-67883547D01*
X110818803Y-67928638D01*
X110800153Y-67948738D01*
X110791964Y-67961964D01*
X110778324Y-67972265D01*
X110756984Y-67995264D01*
X110718273Y-68017614D01*
X110702161Y-68029781D01*
X110693787Y-68031751D01*
X110680354Y-68039506D01*
X110580399Y-68058419D01*
X110565670Y-68061883D01*
X110562091Y-68061883D01*
X110555162Y-68063194D01*
X109932483Y-68063194D01*
X109833244Y-68048236D01*
X109821773Y-68042712D01*
X109813713Y-68041205D01*
X109796453Y-68030518D01*
X109751362Y-68008803D01*
X109731262Y-67990153D01*
X109718036Y-67981964D01*
X109707735Y-67968324D01*
X109684736Y-67946984D01*
X109662386Y-67908273D01*
X109650219Y-67892161D01*
X109648249Y-67883787D01*
X109640494Y-67870354D01*
X109621581Y-67770399D01*
X109618117Y-67755670D01*
X109618117Y-67752091D01*
X109616806Y-67745162D01*
X109616806Y-66872483D01*
X109631764Y-66773244D01*
X109637288Y-66761773D01*
X109638795Y-66753713D01*
X109649482Y-66736453D01*
X109671197Y-66691362D01*
X109689847Y-66671262D01*
X109698036Y-66658036D01*
X109711676Y-66647735D01*
X109733016Y-66624736D01*
X109771727Y-66602386D01*
X109787839Y-66590219D01*
X109796213Y-66588249D01*
X109809646Y-66580494D01*
X109909601Y-66561581D01*
X109924330Y-66558117D01*
X109927909Y-66558117D01*
X109934838Y-66556806D01*
X110557517Y-66556806D01*
X110656756Y-66571764D01*
X110656756Y-66571764D01*
G37*
G36*
X122576756Y-65936764D02*
G01*
X122588227Y-65942288D01*
X122596287Y-65943795D01*
X122613547Y-65954482D01*
X122658638Y-65976197D01*
X122678738Y-65994847D01*
X122691964Y-66003036D01*
X122702265Y-66016676D01*
X122725264Y-66038016D01*
X122747614Y-66076727D01*
X122759781Y-66092839D01*
X122761751Y-66101213D01*
X122769506Y-66114646D01*
X122788419Y-66214601D01*
X122791883Y-66229330D01*
X122791883Y-66232909D01*
X122793194Y-66239838D01*
X122793194Y-67112517D01*
X122778236Y-67211756D01*
X122772712Y-67223227D01*
X122771205Y-67231287D01*
X122760518Y-67248547D01*
X122738803Y-67293638D01*
X122720153Y-67313738D01*
X122711964Y-67326964D01*
X122698324Y-67337265D01*
X122676984Y-67360264D01*
X122638273Y-67382614D01*
X122622161Y-67394781D01*
X122613787Y-67396751D01*
X122600354Y-67404506D01*
X122500399Y-67423419D01*
X122485670Y-67426883D01*
X122482091Y-67426883D01*
X122475162Y-67428194D01*
X121852483Y-67428194D01*
X121753244Y-67413236D01*
X121741773Y-67407712D01*
X121733713Y-67406205D01*
X121716453Y-67395518D01*
X121671362Y-67373803D01*
X121651262Y-67355153D01*
X121638036Y-67346964D01*
X121627735Y-67333324D01*
X121604736Y-67311984D01*
X121582386Y-67273273D01*
X121570219Y-67257161D01*
X121568249Y-67248787D01*
X121560494Y-67235354D01*
X121541581Y-67135399D01*
X121538117Y-67120670D01*
X121538117Y-67117091D01*
X121536806Y-67110162D01*
X121536806Y-66237483D01*
X121551764Y-66138244D01*
X121557288Y-66126773D01*
X121558795Y-66118713D01*
X121569482Y-66101453D01*
X121591197Y-66056362D01*
X121609847Y-66036262D01*
X121618036Y-66023036D01*
X121631676Y-66012735D01*
X121653016Y-65989736D01*
X121691727Y-65967386D01*
X121707839Y-65955219D01*
X121716213Y-65953249D01*
X121729646Y-65945494D01*
X121829601Y-65926581D01*
X121844330Y-65923117D01*
X121847909Y-65923117D01*
X121854838Y-65921806D01*
X122477517Y-65921806D01*
X122576756Y-65936764D01*
X122576756Y-65936764D01*
G37*
G36*
X124626756Y-65936764D02*
G01*
X124638227Y-65942288D01*
X124646287Y-65943795D01*
X124663547Y-65954482D01*
X124708638Y-65976197D01*
X124728738Y-65994847D01*
X124741964Y-66003036D01*
X124752265Y-66016676D01*
X124775264Y-66038016D01*
X124797614Y-66076727D01*
X124809781Y-66092839D01*
X124811751Y-66101213D01*
X124819506Y-66114646D01*
X124838419Y-66214601D01*
X124841883Y-66229330D01*
X124841883Y-66232909D01*
X124843194Y-66239838D01*
X124843194Y-67112517D01*
X124828236Y-67211756D01*
X124822712Y-67223227D01*
X124821205Y-67231287D01*
X124810518Y-67248547D01*
X124788803Y-67293638D01*
X124770153Y-67313738D01*
X124761964Y-67326964D01*
X124748324Y-67337265D01*
X124726984Y-67360264D01*
X124688273Y-67382614D01*
X124672161Y-67394781D01*
X124663787Y-67396751D01*
X124650354Y-67404506D01*
X124550399Y-67423419D01*
X124535670Y-67426883D01*
X124532091Y-67426883D01*
X124525162Y-67428194D01*
X123902483Y-67428194D01*
X123803244Y-67413236D01*
X123791773Y-67407712D01*
X123783713Y-67406205D01*
X123766453Y-67395518D01*
X123721362Y-67373803D01*
X123701262Y-67355153D01*
X123688036Y-67346964D01*
X123677735Y-67333324D01*
X123654736Y-67311984D01*
X123632386Y-67273273D01*
X123620219Y-67257161D01*
X123618249Y-67248787D01*
X123610494Y-67235354D01*
X123591581Y-67135399D01*
X123588117Y-67120670D01*
X123588117Y-67117091D01*
X123586806Y-67110162D01*
X123586806Y-66237483D01*
X123601764Y-66138244D01*
X123607288Y-66126773D01*
X123608795Y-66118713D01*
X123619482Y-66101453D01*
X123641197Y-66056362D01*
X123659847Y-66036262D01*
X123668036Y-66023036D01*
X123681676Y-66012735D01*
X123703016Y-65989736D01*
X123741727Y-65967386D01*
X123757839Y-65955219D01*
X123766213Y-65953249D01*
X123779646Y-65945494D01*
X123879601Y-65926581D01*
X123894330Y-65923117D01*
X123897909Y-65923117D01*
X123904838Y-65921806D01*
X124527517Y-65921806D01*
X124626756Y-65936764D01*
X124626756Y-65936764D01*
G37*
G36*
X105946756Y-65816764D02*
G01*
X105958227Y-65822288D01*
X105966287Y-65823795D01*
X105983547Y-65834482D01*
X106028638Y-65856197D01*
X106048738Y-65874847D01*
X106061964Y-65883036D01*
X106072265Y-65896676D01*
X106095264Y-65918016D01*
X106117614Y-65956727D01*
X106129781Y-65972839D01*
X106131751Y-65981213D01*
X106139506Y-65994646D01*
X106158419Y-66094601D01*
X106161883Y-66109330D01*
X106161883Y-66112909D01*
X106163194Y-66119838D01*
X106163194Y-66742517D01*
X106148236Y-66841756D01*
X106142712Y-66853227D01*
X106141205Y-66861287D01*
X106130518Y-66878547D01*
X106108803Y-66923638D01*
X106090153Y-66943738D01*
X106081964Y-66956964D01*
X106068324Y-66967265D01*
X106046984Y-66990264D01*
X106008273Y-67012614D01*
X105992161Y-67024781D01*
X105983787Y-67026751D01*
X105970354Y-67034506D01*
X105870399Y-67053419D01*
X105855670Y-67056883D01*
X105852091Y-67056883D01*
X105845162Y-67058194D01*
X104972483Y-67058194D01*
X104873244Y-67043236D01*
X104861773Y-67037712D01*
X104853713Y-67036205D01*
X104836453Y-67025518D01*
X104791362Y-67003803D01*
X104771262Y-66985153D01*
X104758036Y-66976964D01*
X104747735Y-66963324D01*
X104724736Y-66941984D01*
X104702386Y-66903273D01*
X104690219Y-66887161D01*
X104688249Y-66878787D01*
X104680494Y-66865354D01*
X104661581Y-66765399D01*
X104658117Y-66750670D01*
X104658117Y-66747091D01*
X104656806Y-66740162D01*
X104656806Y-66117483D01*
X104671764Y-66018244D01*
X104677288Y-66006773D01*
X104678795Y-65998713D01*
X104689482Y-65981453D01*
X104711197Y-65936362D01*
X104729847Y-65916262D01*
X104738036Y-65903036D01*
X104751676Y-65892735D01*
X104773016Y-65869736D01*
X104811727Y-65847386D01*
X104827839Y-65835219D01*
X104836213Y-65833249D01*
X104849646Y-65825494D01*
X104949601Y-65806581D01*
X104964330Y-65803117D01*
X104967909Y-65803117D01*
X104974838Y-65801806D01*
X105847517Y-65801806D01*
X105946756Y-65816764D01*
X105946756Y-65816764D01*
G37*
G36*
X95438360Y-63883835D02*
G01*
X95519397Y-63910166D01*
X95606663Y-63937848D01*
X95609655Y-63939493D01*
X95618488Y-63942363D01*
X95690466Y-63983919D01*
X95761499Y-64022970D01*
X95768986Y-64029253D01*
X95782511Y-64037061D01*
X95840259Y-64089057D01*
X95896857Y-64136549D01*
X95906962Y-64149118D01*
X95923261Y-64163793D01*
X95965454Y-64221867D01*
X96007579Y-64274260D01*
X96017994Y-64294182D01*
X96034586Y-64317019D01*
X96061297Y-64377012D01*
X96089439Y-64430843D01*
X96097582Y-64458510D01*
X96111621Y-64490042D01*
X96123992Y-64548241D01*
X96139328Y-64600349D01*
X96142518Y-64635401D01*
X96150999Y-64675301D01*
X96150999Y-64728592D01*
X96155343Y-64776324D01*
X96150999Y-64817653D01*
X96150999Y-64864699D01*
X96141217Y-64910721D01*
X96136873Y-64952047D01*
X96122702Y-64997827D01*
X96111621Y-65049958D01*
X96095028Y-65087226D01*
X96084622Y-65120843D01*
X96058789Y-65168620D01*
X96034586Y-65222981D01*
X96014298Y-65250905D01*
X96000580Y-65276276D01*
X95961859Y-65323082D01*
X95923261Y-65376207D01*
X95902284Y-65395095D01*
X95887952Y-65412419D01*
X95835845Y-65454917D01*
X95782511Y-65502939D01*
X95763524Y-65513901D01*
X95751025Y-65524095D01*
X95685780Y-65558786D01*
X95618488Y-65597637D01*
X95603636Y-65602463D01*
X95595003Y-65607053D01*
X95517430Y-65630473D01*
X95438360Y-65656165D01*
X95429114Y-65657137D01*
X95425851Y-65658122D01*
X95334710Y-65667059D01*
X95297211Y-65671000D01*
X95202789Y-65671000D01*
X95061640Y-65656165D01*
X94980603Y-65629834D01*
X94893337Y-65602152D01*
X94890345Y-65600507D01*
X94881512Y-65597637D01*
X94809534Y-65556081D01*
X94738501Y-65517030D01*
X94731014Y-65510747D01*
X94717489Y-65502939D01*
X94659741Y-65450943D01*
X94603143Y-65403451D01*
X94593038Y-65390882D01*
X94576739Y-65376207D01*
X94534546Y-65318133D01*
X94492421Y-65265740D01*
X94482006Y-65245818D01*
X94465414Y-65222981D01*
X94438703Y-65162988D01*
X94410561Y-65109157D01*
X94402418Y-65081490D01*
X94388379Y-65049958D01*
X94376008Y-64991759D01*
X94360672Y-64939651D01*
X94357482Y-64904599D01*
X94349001Y-64864699D01*
X94349001Y-64811408D01*
X94344657Y-64763676D01*
X94349001Y-64722347D01*
X94349001Y-64675301D01*
X94358783Y-64629279D01*
X94363127Y-64587953D01*
X94377298Y-64542173D01*
X94388379Y-64490042D01*
X94404972Y-64452774D01*
X94415378Y-64419157D01*
X94441211Y-64371380D01*
X94465414Y-64317019D01*
X94485702Y-64289095D01*
X94499420Y-64263724D01*
X94538141Y-64216918D01*
X94576739Y-64163793D01*
X94597716Y-64144905D01*
X94612048Y-64127581D01*
X94664155Y-64085083D01*
X94717489Y-64037061D01*
X94736476Y-64026099D01*
X94748975Y-64015905D01*
X94814220Y-63981214D01*
X94881512Y-63942363D01*
X94896364Y-63937537D01*
X94904997Y-63932947D01*
X94982570Y-63909527D01*
X95061640Y-63883835D01*
X95070886Y-63882863D01*
X95074149Y-63881878D01*
X95165290Y-63872941D01*
X95202789Y-63869000D01*
X95297211Y-63869000D01*
X95438360Y-63883835D01*
X95438360Y-63883835D01*
G37*
G36*
X100237976Y-63917826D02*
G01*
X100279766Y-63915782D01*
X100324056Y-63922639D01*
X100374810Y-63925476D01*
X100415163Y-63936743D01*
X100450621Y-63942232D01*
X100498204Y-63959928D01*
X100552898Y-63975199D01*
X100584622Y-63992067D01*
X100612659Y-64002494D01*
X100660757Y-64032549D01*
X100716153Y-64062004D01*
X100738968Y-64081421D01*
X100759271Y-64094108D01*
X100804641Y-64137313D01*
X100856961Y-64181841D01*
X100871463Y-64200947D01*
X100884472Y-64213335D01*
X100923616Y-64269655D01*
X100968751Y-64329118D01*
X100976302Y-64345459D01*
X100983142Y-64355301D01*
X101012508Y-64423817D01*
X101046307Y-64496965D01*
X101048885Y-64508692D01*
X101051247Y-64514202D01*
X101067429Y-64593036D01*
X101086011Y-64677551D01*
X101085345Y-64868388D01*
X101066181Y-64952738D01*
X101049443Y-65031485D01*
X101047041Y-65036982D01*
X101044381Y-65048692D01*
X101010069Y-65121609D01*
X100980227Y-65189915D01*
X100973318Y-65199709D01*
X100965655Y-65215994D01*
X100920114Y-65275130D01*
X100880570Y-65331187D01*
X100867472Y-65343487D01*
X100852840Y-65362487D01*
X100800227Y-65406635D01*
X100754544Y-65449534D01*
X100734147Y-65462082D01*
X100711199Y-65481338D01*
X100655600Y-65510405D01*
X100607293Y-65540123D01*
X100579184Y-65550354D01*
X100547341Y-65567001D01*
X100492534Y-65581892D01*
X100444831Y-65599254D01*
X100409340Y-65604495D01*
X100368911Y-65615479D01*
X100318139Y-65617962D01*
X100273803Y-65624509D01*
X100232027Y-65622174D01*
X100184233Y-65624511D01*
X100139992Y-65617028D01*
X100101189Y-65614859D01*
X100054980Y-65602650D01*
X100001923Y-65593676D01*
X99965839Y-65579097D01*
X99934035Y-65570694D01*
X99885897Y-65546799D01*
X99830488Y-65524412D01*
X99803311Y-65505804D01*
X99779182Y-65493826D01*
X99732128Y-65457063D01*
X99677926Y-65419950D01*
X99659469Y-65400295D01*
X99642950Y-65387389D01*
X99600400Y-65337393D01*
X99551354Y-65285164D01*
X99540608Y-65267138D01*
X99530896Y-65255726D01*
X99496401Y-65192981D01*
X99456678Y-65126344D01*
X99451943Y-65112111D01*
X99447610Y-65104229D01*
X99424692Y-65030192D01*
X99398314Y-64950898D01*
X99397372Y-64941934D01*
X99396486Y-64939072D01*
X99388347Y-64856068D01*
X99378987Y-64767012D01*
X99388967Y-64678044D01*
X99397687Y-64595078D01*
X99398593Y-64592220D01*
X99399598Y-64583265D01*
X99426530Y-64504153D01*
X99449963Y-64430281D01*
X99454350Y-64422432D01*
X99459184Y-64408231D01*
X99499382Y-64341857D01*
X99534304Y-64279371D01*
X99544092Y-64268031D01*
X99554967Y-64250075D01*
X99604385Y-64198181D01*
X99647273Y-64148495D01*
X99663879Y-64135707D01*
X99682477Y-64116177D01*
X99736952Y-64079433D01*
X99784250Y-64043009D01*
X99808458Y-64031202D01*
X99835765Y-64012783D01*
X99891319Y-63990787D01*
X99939633Y-63967223D01*
X99971503Y-63959040D01*
X100007679Y-63944717D01*
X100060795Y-63936114D01*
X100107088Y-63924228D01*
X100145903Y-63922330D01*
X100190199Y-63915155D01*
X100237976Y-63917826D01*
X100237976Y-63917826D01*
G37*
G36*
X103054899Y-63921959D02*
G01*
X103071769Y-63933231D01*
X103083041Y-63950101D01*
X103089448Y-63982312D01*
X103089448Y-65557688D01*
X103086999Y-65570000D01*
X103083041Y-65589899D01*
X103071769Y-65606769D01*
X103054899Y-65618041D01*
X103035000Y-65621999D01*
X103022688Y-65624448D01*
X101447312Y-65624448D01*
X101415101Y-65618041D01*
X101398231Y-65606769D01*
X101386959Y-65589899D01*
X101380552Y-65557688D01*
X101380552Y-63982312D01*
X101386959Y-63950101D01*
X101398231Y-63933231D01*
X101415101Y-63921959D01*
X101447312Y-63915552D01*
X103022688Y-63915552D01*
X103054899Y-63921959D01*
X103054899Y-63921959D01*
G37*
G36*
X105946756Y-63766764D02*
G01*
X105958227Y-63772288D01*
X105966287Y-63773795D01*
X105983547Y-63784482D01*
X106028638Y-63806197D01*
X106048738Y-63824847D01*
X106061964Y-63833036D01*
X106072265Y-63846676D01*
X106095264Y-63868016D01*
X106117614Y-63906727D01*
X106129781Y-63922839D01*
X106131751Y-63931213D01*
X106139506Y-63944646D01*
X106158419Y-64044601D01*
X106161883Y-64059330D01*
X106161883Y-64062909D01*
X106163194Y-64069838D01*
X106163194Y-64692517D01*
X106148236Y-64791756D01*
X106142712Y-64803227D01*
X106141205Y-64811287D01*
X106130518Y-64828547D01*
X106108803Y-64873638D01*
X106090153Y-64893738D01*
X106081964Y-64906964D01*
X106068324Y-64917265D01*
X106046984Y-64940264D01*
X106008273Y-64962614D01*
X105992161Y-64974781D01*
X105983787Y-64976751D01*
X105970354Y-64984506D01*
X105870399Y-65003419D01*
X105855670Y-65006883D01*
X105852091Y-65006883D01*
X105845162Y-65008194D01*
X104972483Y-65008194D01*
X104873244Y-64993236D01*
X104861773Y-64987712D01*
X104853713Y-64986205D01*
X104836453Y-64975518D01*
X104791362Y-64953803D01*
X104771262Y-64935153D01*
X104758036Y-64926964D01*
X104747735Y-64913324D01*
X104724736Y-64891984D01*
X104702386Y-64853273D01*
X104690219Y-64837161D01*
X104688249Y-64828787D01*
X104680494Y-64815354D01*
X104661581Y-64715399D01*
X104658117Y-64700670D01*
X104658117Y-64697091D01*
X104656806Y-64690162D01*
X104656806Y-64067483D01*
X104671764Y-63968244D01*
X104677288Y-63956773D01*
X104678795Y-63948713D01*
X104689482Y-63931453D01*
X104711197Y-63886362D01*
X104729847Y-63866262D01*
X104738036Y-63853036D01*
X104751676Y-63842735D01*
X104773016Y-63819736D01*
X104811727Y-63797386D01*
X104827839Y-63785219D01*
X104836213Y-63783249D01*
X104849646Y-63775494D01*
X104949601Y-63756581D01*
X104964330Y-63753117D01*
X104967909Y-63753117D01*
X104974838Y-63751806D01*
X105847517Y-63751806D01*
X105946756Y-63766764D01*
X105946756Y-63766764D01*
G37*
G36*
X117714899Y-58646959D02*
G01*
X117731769Y-58658231D01*
X117743041Y-58675101D01*
X117749448Y-58707312D01*
X117749448Y-64482688D01*
X117746999Y-64495000D01*
X117743041Y-64514899D01*
X117731769Y-64531769D01*
X117714899Y-64543041D01*
X117695000Y-64546999D01*
X117682688Y-64549448D01*
X111307312Y-64549448D01*
X111275101Y-64543041D01*
X111258231Y-64531769D01*
X111246959Y-64514899D01*
X111240552Y-64482688D01*
X111240552Y-58707312D01*
X111246959Y-58675101D01*
X111258231Y-58658231D01*
X111275101Y-58646959D01*
X111307312Y-58640552D01*
X117682688Y-58640552D01*
X117714899Y-58646959D01*
X117714899Y-58646959D01*
G37*
G36*
X109314899Y-63226959D02*
G01*
X109331769Y-63238231D01*
X109343041Y-63255101D01*
X109349448Y-63287312D01*
X109349448Y-64462688D01*
X109346999Y-64475000D01*
X109343041Y-64494899D01*
X109331769Y-64511769D01*
X109314899Y-64523041D01*
X109295000Y-64526999D01*
X109282688Y-64529448D01*
X107107312Y-64529448D01*
X107075101Y-64523041D01*
X107058231Y-64511769D01*
X107046959Y-64494899D01*
X107040552Y-64462688D01*
X107040552Y-63287312D01*
X107046959Y-63255101D01*
X107058231Y-63238231D01*
X107075101Y-63226959D01*
X107107312Y-63220552D01*
X109282688Y-63220552D01*
X109314899Y-63226959D01*
X109314899Y-63226959D01*
G37*
G36*
X95438360Y-61343835D02*
G01*
X95519397Y-61370166D01*
X95606663Y-61397848D01*
X95609655Y-61399493D01*
X95618488Y-61402363D01*
X95690466Y-61443919D01*
X95761499Y-61482970D01*
X95768986Y-61489253D01*
X95782511Y-61497061D01*
X95840259Y-61549057D01*
X95896857Y-61596549D01*
X95906962Y-61609118D01*
X95923261Y-61623793D01*
X95965454Y-61681867D01*
X96007579Y-61734260D01*
X96017994Y-61754182D01*
X96034586Y-61777019D01*
X96061297Y-61837012D01*
X96089439Y-61890843D01*
X96097582Y-61918510D01*
X96111621Y-61950042D01*
X96123992Y-62008241D01*
X96139328Y-62060349D01*
X96142518Y-62095401D01*
X96150999Y-62135301D01*
X96150999Y-62188592D01*
X96155343Y-62236324D01*
X96150999Y-62277653D01*
X96150999Y-62324699D01*
X96141217Y-62370721D01*
X96136873Y-62412047D01*
X96122702Y-62457827D01*
X96111621Y-62509958D01*
X96095028Y-62547226D01*
X96084622Y-62580843D01*
X96058789Y-62628620D01*
X96034586Y-62682981D01*
X96014298Y-62710905D01*
X96000580Y-62736276D01*
X95961859Y-62783082D01*
X95923261Y-62836207D01*
X95902284Y-62855095D01*
X95887952Y-62872419D01*
X95835845Y-62914917D01*
X95782511Y-62962939D01*
X95763524Y-62973901D01*
X95751025Y-62984095D01*
X95685780Y-63018786D01*
X95618488Y-63057637D01*
X95603636Y-63062463D01*
X95595003Y-63067053D01*
X95517430Y-63090473D01*
X95438360Y-63116165D01*
X95429114Y-63117137D01*
X95425851Y-63118122D01*
X95334710Y-63127059D01*
X95297211Y-63131000D01*
X95202789Y-63131000D01*
X95061640Y-63116165D01*
X94980603Y-63089834D01*
X94893337Y-63062152D01*
X94890345Y-63060507D01*
X94881512Y-63057637D01*
X94809534Y-63016081D01*
X94738501Y-62977030D01*
X94731014Y-62970747D01*
X94717489Y-62962939D01*
X94659741Y-62910943D01*
X94603143Y-62863451D01*
X94593038Y-62850882D01*
X94576739Y-62836207D01*
X94534546Y-62778133D01*
X94492421Y-62725740D01*
X94482006Y-62705818D01*
X94465414Y-62682981D01*
X94438703Y-62622988D01*
X94410561Y-62569157D01*
X94402418Y-62541490D01*
X94388379Y-62509958D01*
X94376008Y-62451759D01*
X94360672Y-62399651D01*
X94357482Y-62364599D01*
X94349001Y-62324699D01*
X94349001Y-62271408D01*
X94344657Y-62223676D01*
X94349001Y-62182347D01*
X94349001Y-62135301D01*
X94358783Y-62089279D01*
X94363127Y-62047953D01*
X94377298Y-62002173D01*
X94388379Y-61950042D01*
X94404972Y-61912774D01*
X94415378Y-61879157D01*
X94441211Y-61831380D01*
X94465414Y-61777019D01*
X94485702Y-61749095D01*
X94499420Y-61723724D01*
X94538141Y-61676918D01*
X94576739Y-61623793D01*
X94597716Y-61604905D01*
X94612048Y-61587581D01*
X94664155Y-61545083D01*
X94717489Y-61497061D01*
X94736476Y-61486099D01*
X94748975Y-61475905D01*
X94814220Y-61441214D01*
X94881512Y-61402363D01*
X94896364Y-61397537D01*
X94904997Y-61392947D01*
X94982570Y-61369527D01*
X95061640Y-61343835D01*
X95070886Y-61342863D01*
X95074149Y-61341878D01*
X95165290Y-61332941D01*
X95202789Y-61329000D01*
X95297211Y-61329000D01*
X95438360Y-61343835D01*
X95438360Y-61343835D01*
G37*
G36*
X123263730Y-59309000D02*
G01*
X123319937Y-59309000D01*
X123390874Y-59320235D01*
X123457558Y-59326128D01*
X123514072Y-59339748D01*
X123576610Y-59349653D01*
X123638179Y-59369658D01*
X123696121Y-59383622D01*
X123756809Y-59408203D01*
X123823764Y-59429958D01*
X123875106Y-59456118D01*
X123923565Y-59475746D01*
X123986309Y-59512779D01*
X124055312Y-59547938D01*
X124096161Y-59577616D01*
X124134891Y-59600476D01*
X124197232Y-59651049D01*
X124265554Y-59700688D01*
X124296207Y-59731341D01*
X124325465Y-59755076D01*
X124384718Y-59819852D01*
X124449312Y-59884446D01*
X124470574Y-59913711D01*
X124491091Y-59936140D01*
X124544400Y-60015323D01*
X124602062Y-60094688D01*
X124615230Y-60120531D01*
X124628137Y-60139703D01*
X124672562Y-60233052D01*
X124720042Y-60326236D01*
X124726784Y-60346987D01*
X124733587Y-60361281D01*
X124766245Y-60468436D01*
X124800347Y-60573390D01*
X124802634Y-60587830D01*
X124805129Y-60596016D01*
X124823244Y-60717955D01*
X124841000Y-60830063D01*
X124841000Y-61089937D01*
X124832684Y-61142440D01*
X124831885Y-61171983D01*
X124814640Y-61256367D01*
X124800347Y-61346610D01*
X124789164Y-61381027D01*
X124783080Y-61410799D01*
X124750365Y-61500439D01*
X124720042Y-61593764D01*
X124706872Y-61619612D01*
X124698950Y-61641318D01*
X124649540Y-61732131D01*
X124602062Y-61825312D01*
X124589241Y-61842959D01*
X124581672Y-61856870D01*
X124514158Y-61946301D01*
X124449312Y-62035554D01*
X124438976Y-62045890D01*
X124433819Y-62052721D01*
X124345782Y-62139084D01*
X124265554Y-62219312D01*
X124259558Y-62223668D01*
X124258640Y-62224569D01*
X124083110Y-62351866D01*
X124055312Y-62372062D01*
X123954629Y-62423363D01*
X123842223Y-62481753D01*
X123835505Y-62484060D01*
X123823764Y-62490042D01*
X123717902Y-62524439D01*
X123610133Y-62561441D01*
X123595994Y-62564049D01*
X123576610Y-62570347D01*
X123472080Y-62586903D01*
X123368808Y-62605950D01*
X123347170Y-62606687D01*
X123319937Y-62611000D01*
X123220480Y-62611000D01*
X123123553Y-62614300D01*
X123094812Y-62611000D01*
X123060063Y-62611000D01*
X122968482Y-62596495D01*
X122879768Y-62586309D01*
X122844791Y-62576904D01*
X122803390Y-62570347D01*
X122721749Y-62543820D01*
X122642788Y-62522589D01*
X122602903Y-62505205D01*
X122556236Y-62490042D01*
X122485965Y-62454237D01*
X122417832Y-62424541D01*
X122374765Y-62397578D01*
X122324688Y-62372062D01*
X122266590Y-62329851D01*
X122209843Y-62294323D01*
X122165667Y-62256526D01*
X122114446Y-62219312D01*
X122068671Y-62173537D01*
X122023382Y-62134788D01*
X121980465Y-62085331D01*
X121930688Y-62035554D01*
X121896823Y-61988943D01*
X121862556Y-61949454D01*
X121823461Y-61887969D01*
X121777938Y-61825312D01*
X121755015Y-61780323D01*
X121730884Y-61742372D01*
X121698299Y-61669012D01*
X121659958Y-61593764D01*
X121646561Y-61552533D01*
X121631269Y-61518105D01*
X121607885Y-61433501D01*
X121579653Y-61346610D01*
X121573993Y-61310874D01*
X121565897Y-61281582D01*
X121554348Y-61186843D01*
X121539000Y-61089937D01*
X121539000Y-61060932D01*
X121536203Y-61037987D01*
X121539000Y-60934628D01*
X121539000Y-60830063D01*
X121542413Y-60808516D01*
X121542841Y-60792689D01*
X121562390Y-60682382D01*
X121579653Y-60573390D01*
X121584171Y-60559485D01*
X121585664Y-60551061D01*
X121624876Y-60434207D01*
X121659958Y-60326236D01*
X121663325Y-60319628D01*
X121663732Y-60318415D01*
X121761710Y-60126538D01*
X121777938Y-60094688D01*
X121844366Y-60003258D01*
X121918002Y-59900214D01*
X121922942Y-59895107D01*
X121930688Y-59884446D01*
X122009390Y-59805744D01*
X122088621Y-59723841D01*
X122100037Y-59715097D01*
X122114446Y-59700688D01*
X122200048Y-59638494D01*
X122283440Y-59574621D01*
X122302390Y-59564139D01*
X122324688Y-59547938D01*
X122413279Y-59502798D01*
X122498164Y-59455843D01*
X122525275Y-59445734D01*
X122556236Y-59429958D01*
X122644418Y-59401306D01*
X122728091Y-59370105D01*
X122763527Y-59362605D01*
X122803390Y-59349653D01*
X122888177Y-59336224D01*
X122968171Y-59319294D01*
X123011600Y-59316676D01*
X123060063Y-59309000D01*
X123138917Y-59309000D01*
X123213111Y-59304527D01*
X123263730Y-59309000D01*
X123263730Y-59309000D01*
G37*
G36*
X100869899Y-58741959D02*
G01*
X100886769Y-58753231D01*
X100898041Y-58770101D01*
X100904448Y-58802312D01*
X100904448Y-60577688D01*
X100901999Y-60590000D01*
X100898041Y-60609899D01*
X100886769Y-60626769D01*
X100869899Y-60638041D01*
X100850000Y-60641999D01*
X100837688Y-60644448D01*
X97362312Y-60644448D01*
X97330101Y-60638041D01*
X97313231Y-60626769D01*
X97301959Y-60609899D01*
X97295552Y-60577688D01*
X97295552Y-58802312D01*
X97301959Y-58770101D01*
X97313231Y-58753231D01*
X97330101Y-58741959D01*
X97362312Y-58735552D01*
X100837688Y-58735552D01*
X100869899Y-58741959D01*
X100869899Y-58741959D01*
G37*
G36*
X105869899Y-58741959D02*
G01*
X105886769Y-58753231D01*
X105898041Y-58770101D01*
X105904448Y-58802312D01*
X105904448Y-60577688D01*
X105901999Y-60590000D01*
X105898041Y-60609899D01*
X105886769Y-60626769D01*
X105869899Y-60638041D01*
X105850000Y-60641999D01*
X105837688Y-60644448D01*
X102362312Y-60644448D01*
X102330101Y-60638041D01*
X102313231Y-60626769D01*
X102301959Y-60609899D01*
X102295552Y-60577688D01*
X102295552Y-58802312D01*
X102301959Y-58770101D01*
X102313231Y-58753231D01*
X102330101Y-58741959D01*
X102362312Y-58735552D01*
X105837688Y-58735552D01*
X105869899Y-58741959D01*
X105869899Y-58741959D01*
G37*
G36*
X96119899Y-58791959D02*
G01*
X96136769Y-58803231D01*
X96148041Y-58820101D01*
X96154448Y-58852312D01*
X96154448Y-60527688D01*
X96151999Y-60540000D01*
X96148041Y-60559899D01*
X96136769Y-60576769D01*
X96119899Y-60588041D01*
X96100000Y-60591999D01*
X96087688Y-60594448D01*
X94412312Y-60594448D01*
X94380101Y-60588041D01*
X94363231Y-60576769D01*
X94351959Y-60559899D01*
X94345552Y-60527688D01*
X94345552Y-58852312D01*
X94351959Y-58820101D01*
X94363231Y-58803231D01*
X94380101Y-58791959D01*
X94412312Y-58785552D01*
X96087688Y-58785552D01*
X96119899Y-58791959D01*
X96119899Y-58791959D01*
G37*
G36*
X109314899Y-58666959D02*
G01*
X109331769Y-58678231D01*
X109343041Y-58695101D01*
X109349448Y-58727312D01*
X109349448Y-59902688D01*
X109346999Y-59915000D01*
X109343041Y-59934899D01*
X109331769Y-59951769D01*
X109314899Y-59963041D01*
X109295000Y-59966999D01*
X109282688Y-59969448D01*
X107107312Y-59969448D01*
X107075101Y-59963041D01*
X107058231Y-59951769D01*
X107046959Y-59934899D01*
X107040552Y-59902688D01*
X107040552Y-58727312D01*
X107046959Y-58695101D01*
X107058231Y-58678231D01*
X107075101Y-58666959D01*
X107107312Y-58660552D01*
X109282688Y-58660552D01*
X109314899Y-58666959D01*
X109314899Y-58666959D01*
G37*
M02*
