G04 #@! TF.GenerationSoftware,KiCad,Pcbnew,(5.1.0-1195-gcea9cd417)*
G04 #@! TF.CreationDate,2019-08-04T23:05:19-07:00*
G04 #@! TF.ProjectId,URanger,5552616e-6765-4722-9e6b-696361645f70,n/c*
G04 #@! TF.SameCoordinates,Original*
G04 #@! TF.FileFunction,Paste,Top*
G04 #@! TF.FilePolarity,Positive*
%FSLAX46Y46*%
G04 Gerber Fmt 4.6, Leading zero omitted, Abs format (unit mm)*
G04 Created by KiCad (PCBNEW (5.1.0-1195-gcea9cd417)) date 2019-08-04 23:05:19*
%MOMM*%
%LPD*%
G04 APERTURE LIST*
%ADD10R,3.050000X2.750000*%
%ADD11R,2.200000X1.200000*%
%ADD12C,0.100000*%
%ADD13C,0.600000*%
%ADD14R,3.500000X1.800000*%
%ADD15C,1.150000*%
G04 APERTURE END LIST*
D10*
X112820000Y-63120000D03*
X116170000Y-60070000D03*
X112820000Y-60070000D03*
X116170000Y-63120000D03*
D11*
X108195000Y-63875000D03*
X108195000Y-59315000D03*
D12*
G36*
X110992403Y-69561418D02*
G01*
X111041066Y-69593934D01*
X111073582Y-69642597D01*
X111085000Y-69700000D01*
X111085000Y-70000000D01*
X111073582Y-70057403D01*
X111041066Y-70106066D01*
X110992403Y-70138582D01*
X110935000Y-70150000D01*
X109185000Y-70150000D01*
X109127597Y-70138582D01*
X109078934Y-70106066D01*
X109046418Y-70057403D01*
X109035000Y-70000000D01*
X109035000Y-69700000D01*
X109046418Y-69642597D01*
X109078934Y-69593934D01*
X109127597Y-69561418D01*
X109185000Y-69550000D01*
X110935000Y-69550000D01*
X110992403Y-69561418D01*
X110992403Y-69561418D01*
G37*
D13*
X110060000Y-69850000D03*
D12*
G36*
X110992403Y-70831418D02*
G01*
X111041066Y-70863934D01*
X111073582Y-70912597D01*
X111085000Y-70970000D01*
X111085000Y-71270000D01*
X111073582Y-71327403D01*
X111041066Y-71376066D01*
X110992403Y-71408582D01*
X110935000Y-71420000D01*
X109185000Y-71420000D01*
X109127597Y-71408582D01*
X109078934Y-71376066D01*
X109046418Y-71327403D01*
X109035000Y-71270000D01*
X109035000Y-70970000D01*
X109046418Y-70912597D01*
X109078934Y-70863934D01*
X109127597Y-70831418D01*
X109185000Y-70820000D01*
X110935000Y-70820000D01*
X110992403Y-70831418D01*
X110992403Y-70831418D01*
G37*
D13*
X110060000Y-71120000D03*
D12*
G36*
X110992403Y-72101418D02*
G01*
X111041066Y-72133934D01*
X111073582Y-72182597D01*
X111085000Y-72240000D01*
X111085000Y-72540000D01*
X111073582Y-72597403D01*
X111041066Y-72646066D01*
X110992403Y-72678582D01*
X110935000Y-72690000D01*
X109185000Y-72690000D01*
X109127597Y-72678582D01*
X109078934Y-72646066D01*
X109046418Y-72597403D01*
X109035000Y-72540000D01*
X109035000Y-72240000D01*
X109046418Y-72182597D01*
X109078934Y-72133934D01*
X109127597Y-72101418D01*
X109185000Y-72090000D01*
X110935000Y-72090000D01*
X110992403Y-72101418D01*
X110992403Y-72101418D01*
G37*
D13*
X110060000Y-72390000D03*
D12*
G36*
X110992403Y-73371418D02*
G01*
X111041066Y-73403934D01*
X111073582Y-73452597D01*
X111085000Y-73510000D01*
X111085000Y-73810000D01*
X111073582Y-73867403D01*
X111041066Y-73916066D01*
X110992403Y-73948582D01*
X110935000Y-73960000D01*
X109185000Y-73960000D01*
X109127597Y-73948582D01*
X109078934Y-73916066D01*
X109046418Y-73867403D01*
X109035000Y-73810000D01*
X109035000Y-73510000D01*
X109046418Y-73452597D01*
X109078934Y-73403934D01*
X109127597Y-73371418D01*
X109185000Y-73360000D01*
X110935000Y-73360000D01*
X110992403Y-73371418D01*
X110992403Y-73371418D01*
G37*
D13*
X110060000Y-73660000D03*
D12*
G36*
X110992403Y-74641418D02*
G01*
X111041066Y-74673934D01*
X111073582Y-74722597D01*
X111085000Y-74780000D01*
X111085000Y-75080000D01*
X111073582Y-75137403D01*
X111041066Y-75186066D01*
X110992403Y-75218582D01*
X110935000Y-75230000D01*
X109185000Y-75230000D01*
X109127597Y-75218582D01*
X109078934Y-75186066D01*
X109046418Y-75137403D01*
X109035000Y-75080000D01*
X109035000Y-74780000D01*
X109046418Y-74722597D01*
X109078934Y-74673934D01*
X109127597Y-74641418D01*
X109185000Y-74630000D01*
X110935000Y-74630000D01*
X110992403Y-74641418D01*
X110992403Y-74641418D01*
G37*
D13*
X110060000Y-74930000D03*
D12*
G36*
X110992403Y-75911418D02*
G01*
X111041066Y-75943934D01*
X111073582Y-75992597D01*
X111085000Y-76050000D01*
X111085000Y-76350000D01*
X111073582Y-76407403D01*
X111041066Y-76456066D01*
X110992403Y-76488582D01*
X110935000Y-76500000D01*
X109185000Y-76500000D01*
X109127597Y-76488582D01*
X109078934Y-76456066D01*
X109046418Y-76407403D01*
X109035000Y-76350000D01*
X109035000Y-76050000D01*
X109046418Y-75992597D01*
X109078934Y-75943934D01*
X109127597Y-75911418D01*
X109185000Y-75900000D01*
X110935000Y-75900000D01*
X110992403Y-75911418D01*
X110992403Y-75911418D01*
G37*
D13*
X110060000Y-76200000D03*
D12*
G36*
X110992403Y-77181418D02*
G01*
X111041066Y-77213934D01*
X111073582Y-77262597D01*
X111085000Y-77320000D01*
X111085000Y-77620000D01*
X111073582Y-77677403D01*
X111041066Y-77726066D01*
X110992403Y-77758582D01*
X110935000Y-77770000D01*
X109185000Y-77770000D01*
X109127597Y-77758582D01*
X109078934Y-77726066D01*
X109046418Y-77677403D01*
X109035000Y-77620000D01*
X109035000Y-77320000D01*
X109046418Y-77262597D01*
X109078934Y-77213934D01*
X109127597Y-77181418D01*
X109185000Y-77170000D01*
X110935000Y-77170000D01*
X110992403Y-77181418D01*
X110992403Y-77181418D01*
G37*
D13*
X110060000Y-77470000D03*
D12*
G36*
X110992403Y-78451418D02*
G01*
X111041066Y-78483934D01*
X111073582Y-78532597D01*
X111085000Y-78590000D01*
X111085000Y-78890000D01*
X111073582Y-78947403D01*
X111041066Y-78996066D01*
X110992403Y-79028582D01*
X110935000Y-79040000D01*
X109185000Y-79040000D01*
X109127597Y-79028582D01*
X109078934Y-78996066D01*
X109046418Y-78947403D01*
X109035000Y-78890000D01*
X109035000Y-78590000D01*
X109046418Y-78532597D01*
X109078934Y-78483934D01*
X109127597Y-78451418D01*
X109185000Y-78440000D01*
X110935000Y-78440000D01*
X110992403Y-78451418D01*
X110992403Y-78451418D01*
G37*
D13*
X110060000Y-78740000D03*
D12*
G36*
X110992403Y-79721418D02*
G01*
X111041066Y-79753934D01*
X111073582Y-79802597D01*
X111085000Y-79860000D01*
X111085000Y-80160000D01*
X111073582Y-80217403D01*
X111041066Y-80266066D01*
X110992403Y-80298582D01*
X110935000Y-80310000D01*
X109185000Y-80310000D01*
X109127597Y-80298582D01*
X109078934Y-80266066D01*
X109046418Y-80217403D01*
X109035000Y-80160000D01*
X109035000Y-79860000D01*
X109046418Y-79802597D01*
X109078934Y-79753934D01*
X109127597Y-79721418D01*
X109185000Y-79710000D01*
X110935000Y-79710000D01*
X110992403Y-79721418D01*
X110992403Y-79721418D01*
G37*
D13*
X110060000Y-80010000D03*
D12*
G36*
X101692403Y-79721418D02*
G01*
X101741066Y-79753934D01*
X101773582Y-79802597D01*
X101785000Y-79860000D01*
X101785000Y-80160000D01*
X101773582Y-80217403D01*
X101741066Y-80266066D01*
X101692403Y-80298582D01*
X101635000Y-80310000D01*
X99885000Y-80310000D01*
X99827597Y-80298582D01*
X99778934Y-80266066D01*
X99746418Y-80217403D01*
X99735000Y-80160000D01*
X99735000Y-79860000D01*
X99746418Y-79802597D01*
X99778934Y-79753934D01*
X99827597Y-79721418D01*
X99885000Y-79710000D01*
X101635000Y-79710000D01*
X101692403Y-79721418D01*
X101692403Y-79721418D01*
G37*
D13*
X100760000Y-80010000D03*
D12*
G36*
X101692403Y-78451418D02*
G01*
X101741066Y-78483934D01*
X101773582Y-78532597D01*
X101785000Y-78590000D01*
X101785000Y-78890000D01*
X101773582Y-78947403D01*
X101741066Y-78996066D01*
X101692403Y-79028582D01*
X101635000Y-79040000D01*
X99885000Y-79040000D01*
X99827597Y-79028582D01*
X99778934Y-78996066D01*
X99746418Y-78947403D01*
X99735000Y-78890000D01*
X99735000Y-78590000D01*
X99746418Y-78532597D01*
X99778934Y-78483934D01*
X99827597Y-78451418D01*
X99885000Y-78440000D01*
X101635000Y-78440000D01*
X101692403Y-78451418D01*
X101692403Y-78451418D01*
G37*
D13*
X100760000Y-78740000D03*
D12*
G36*
X101692403Y-77181418D02*
G01*
X101741066Y-77213934D01*
X101773582Y-77262597D01*
X101785000Y-77320000D01*
X101785000Y-77620000D01*
X101773582Y-77677403D01*
X101741066Y-77726066D01*
X101692403Y-77758582D01*
X101635000Y-77770000D01*
X99885000Y-77770000D01*
X99827597Y-77758582D01*
X99778934Y-77726066D01*
X99746418Y-77677403D01*
X99735000Y-77620000D01*
X99735000Y-77320000D01*
X99746418Y-77262597D01*
X99778934Y-77213934D01*
X99827597Y-77181418D01*
X99885000Y-77170000D01*
X101635000Y-77170000D01*
X101692403Y-77181418D01*
X101692403Y-77181418D01*
G37*
D13*
X100760000Y-77470000D03*
D12*
G36*
X101692403Y-75911418D02*
G01*
X101741066Y-75943934D01*
X101773582Y-75992597D01*
X101785000Y-76050000D01*
X101785000Y-76350000D01*
X101773582Y-76407403D01*
X101741066Y-76456066D01*
X101692403Y-76488582D01*
X101635000Y-76500000D01*
X99885000Y-76500000D01*
X99827597Y-76488582D01*
X99778934Y-76456066D01*
X99746418Y-76407403D01*
X99735000Y-76350000D01*
X99735000Y-76050000D01*
X99746418Y-75992597D01*
X99778934Y-75943934D01*
X99827597Y-75911418D01*
X99885000Y-75900000D01*
X101635000Y-75900000D01*
X101692403Y-75911418D01*
X101692403Y-75911418D01*
G37*
D13*
X100760000Y-76200000D03*
D12*
G36*
X101692403Y-74641418D02*
G01*
X101741066Y-74673934D01*
X101773582Y-74722597D01*
X101785000Y-74780000D01*
X101785000Y-75080000D01*
X101773582Y-75137403D01*
X101741066Y-75186066D01*
X101692403Y-75218582D01*
X101635000Y-75230000D01*
X99885000Y-75230000D01*
X99827597Y-75218582D01*
X99778934Y-75186066D01*
X99746418Y-75137403D01*
X99735000Y-75080000D01*
X99735000Y-74780000D01*
X99746418Y-74722597D01*
X99778934Y-74673934D01*
X99827597Y-74641418D01*
X99885000Y-74630000D01*
X101635000Y-74630000D01*
X101692403Y-74641418D01*
X101692403Y-74641418D01*
G37*
D13*
X100760000Y-74930000D03*
D12*
G36*
X101692403Y-73371418D02*
G01*
X101741066Y-73403934D01*
X101773582Y-73452597D01*
X101785000Y-73510000D01*
X101785000Y-73810000D01*
X101773582Y-73867403D01*
X101741066Y-73916066D01*
X101692403Y-73948582D01*
X101635000Y-73960000D01*
X99885000Y-73960000D01*
X99827597Y-73948582D01*
X99778934Y-73916066D01*
X99746418Y-73867403D01*
X99735000Y-73810000D01*
X99735000Y-73510000D01*
X99746418Y-73452597D01*
X99778934Y-73403934D01*
X99827597Y-73371418D01*
X99885000Y-73360000D01*
X101635000Y-73360000D01*
X101692403Y-73371418D01*
X101692403Y-73371418D01*
G37*
D13*
X100760000Y-73660000D03*
D12*
G36*
X101692403Y-72101418D02*
G01*
X101741066Y-72133934D01*
X101773582Y-72182597D01*
X101785000Y-72240000D01*
X101785000Y-72540000D01*
X101773582Y-72597403D01*
X101741066Y-72646066D01*
X101692403Y-72678582D01*
X101635000Y-72690000D01*
X99885000Y-72690000D01*
X99827597Y-72678582D01*
X99778934Y-72646066D01*
X99746418Y-72597403D01*
X99735000Y-72540000D01*
X99735000Y-72240000D01*
X99746418Y-72182597D01*
X99778934Y-72133934D01*
X99827597Y-72101418D01*
X99885000Y-72090000D01*
X101635000Y-72090000D01*
X101692403Y-72101418D01*
X101692403Y-72101418D01*
G37*
D13*
X100760000Y-72390000D03*
D12*
G36*
X101692403Y-70831418D02*
G01*
X101741066Y-70863934D01*
X101773582Y-70912597D01*
X101785000Y-70970000D01*
X101785000Y-71270000D01*
X101773582Y-71327403D01*
X101741066Y-71376066D01*
X101692403Y-71408582D01*
X101635000Y-71420000D01*
X99885000Y-71420000D01*
X99827597Y-71408582D01*
X99778934Y-71376066D01*
X99746418Y-71327403D01*
X99735000Y-71270000D01*
X99735000Y-70970000D01*
X99746418Y-70912597D01*
X99778934Y-70863934D01*
X99827597Y-70831418D01*
X99885000Y-70820000D01*
X101635000Y-70820000D01*
X101692403Y-70831418D01*
X101692403Y-70831418D01*
G37*
D13*
X100760000Y-71120000D03*
D12*
G36*
X101692403Y-69561418D02*
G01*
X101741066Y-69593934D01*
X101773582Y-69642597D01*
X101785000Y-69700000D01*
X101785000Y-70000000D01*
X101773582Y-70057403D01*
X101741066Y-70106066D01*
X101692403Y-70138582D01*
X101635000Y-70150000D01*
X99885000Y-70150000D01*
X99827597Y-70138582D01*
X99778934Y-70106066D01*
X99746418Y-70057403D01*
X99735000Y-70000000D01*
X99735000Y-69700000D01*
X99746418Y-69642597D01*
X99778934Y-69593934D01*
X99827597Y-69561418D01*
X99885000Y-69550000D01*
X101635000Y-69550000D01*
X101692403Y-69561418D01*
X101692403Y-69561418D01*
G37*
D13*
X100760000Y-69850000D03*
D14*
X99100000Y-59690000D03*
X104100000Y-59690000D03*
D12*
G36*
X122585671Y-86949030D02*
G01*
X122666777Y-87003223D01*
X122720970Y-87084329D01*
X122740000Y-87179999D01*
X122740000Y-88080001D01*
X122720970Y-88175671D01*
X122666777Y-88256777D01*
X122585671Y-88310970D01*
X122490001Y-88330000D01*
X121839999Y-88330000D01*
X121744329Y-88310970D01*
X121663223Y-88256777D01*
X121609030Y-88175671D01*
X121590000Y-88080001D01*
X121590000Y-87179999D01*
X121609030Y-87084329D01*
X121663223Y-87003223D01*
X121744329Y-86949030D01*
X121839999Y-86930000D01*
X122490001Y-86930000D01*
X122585671Y-86949030D01*
X122585671Y-86949030D01*
G37*
D15*
X122165000Y-87630000D03*
D12*
G36*
X124635671Y-86949030D02*
G01*
X124716777Y-87003223D01*
X124770970Y-87084329D01*
X124790000Y-87179999D01*
X124790000Y-88080001D01*
X124770970Y-88175671D01*
X124716777Y-88256777D01*
X124635671Y-88310970D01*
X124540001Y-88330000D01*
X123889999Y-88330000D01*
X123794329Y-88310970D01*
X123713223Y-88256777D01*
X123659030Y-88175671D01*
X123640000Y-88080001D01*
X123640000Y-87179999D01*
X123659030Y-87084329D01*
X123713223Y-87003223D01*
X123794329Y-86949030D01*
X123889999Y-86930000D01*
X124540001Y-86930000D01*
X124635671Y-86949030D01*
X124635671Y-86949030D01*
G37*
D15*
X124215000Y-87630000D03*
D12*
G36*
X122585671Y-79964030D02*
G01*
X122666777Y-80018223D01*
X122720970Y-80099329D01*
X122740000Y-80194999D01*
X122740000Y-81095001D01*
X122720970Y-81190671D01*
X122666777Y-81271777D01*
X122585671Y-81325970D01*
X122490001Y-81345000D01*
X121839999Y-81345000D01*
X121744329Y-81325970D01*
X121663223Y-81271777D01*
X121609030Y-81190671D01*
X121590000Y-81095001D01*
X121590000Y-80194999D01*
X121609030Y-80099329D01*
X121663223Y-80018223D01*
X121744329Y-79964030D01*
X121839999Y-79945000D01*
X122490001Y-79945000D01*
X122585671Y-79964030D01*
X122585671Y-79964030D01*
G37*
D15*
X122165000Y-80645000D03*
D12*
G36*
X124635671Y-79964030D02*
G01*
X124716777Y-80018223D01*
X124770970Y-80099329D01*
X124790000Y-80194999D01*
X124790000Y-81095001D01*
X124770970Y-81190671D01*
X124716777Y-81271777D01*
X124635671Y-81325970D01*
X124540001Y-81345000D01*
X123889999Y-81345000D01*
X123794329Y-81325970D01*
X123713223Y-81271777D01*
X123659030Y-81190671D01*
X123640000Y-81095001D01*
X123640000Y-80194999D01*
X123659030Y-80099329D01*
X123713223Y-80018223D01*
X123794329Y-79964030D01*
X123889999Y-79945000D01*
X124540001Y-79945000D01*
X124635671Y-79964030D01*
X124635671Y-79964030D01*
G37*
D15*
X124215000Y-80645000D03*
D12*
G36*
X122585671Y-72979030D02*
G01*
X122666777Y-73033223D01*
X122720970Y-73114329D01*
X122740000Y-73209999D01*
X122740000Y-74110001D01*
X122720970Y-74205671D01*
X122666777Y-74286777D01*
X122585671Y-74340970D01*
X122490001Y-74360000D01*
X121839999Y-74360000D01*
X121744329Y-74340970D01*
X121663223Y-74286777D01*
X121609030Y-74205671D01*
X121590000Y-74110001D01*
X121590000Y-73209999D01*
X121609030Y-73114329D01*
X121663223Y-73033223D01*
X121744329Y-72979030D01*
X121839999Y-72960000D01*
X122490001Y-72960000D01*
X122585671Y-72979030D01*
X122585671Y-72979030D01*
G37*
D15*
X122165000Y-73660000D03*
D12*
G36*
X124635671Y-72979030D02*
G01*
X124716777Y-73033223D01*
X124770970Y-73114329D01*
X124790000Y-73209999D01*
X124790000Y-74110001D01*
X124770970Y-74205671D01*
X124716777Y-74286777D01*
X124635671Y-74340970D01*
X124540001Y-74360000D01*
X123889999Y-74360000D01*
X123794329Y-74340970D01*
X123713223Y-74286777D01*
X123659030Y-74205671D01*
X123640000Y-74110001D01*
X123640000Y-73209999D01*
X123659030Y-73114329D01*
X123713223Y-73033223D01*
X123794329Y-72979030D01*
X123889999Y-72960000D01*
X124540001Y-72960000D01*
X124635671Y-72979030D01*
X124635671Y-72979030D01*
G37*
D15*
X124215000Y-73660000D03*
D12*
G36*
X122585671Y-65994030D02*
G01*
X122666777Y-66048223D01*
X122720970Y-66129329D01*
X122740000Y-66224999D01*
X122740000Y-67125001D01*
X122720970Y-67220671D01*
X122666777Y-67301777D01*
X122585671Y-67355970D01*
X122490001Y-67375000D01*
X121839999Y-67375000D01*
X121744329Y-67355970D01*
X121663223Y-67301777D01*
X121609030Y-67220671D01*
X121590000Y-67125001D01*
X121590000Y-66224999D01*
X121609030Y-66129329D01*
X121663223Y-66048223D01*
X121744329Y-65994030D01*
X121839999Y-65975000D01*
X122490001Y-65975000D01*
X122585671Y-65994030D01*
X122585671Y-65994030D01*
G37*
D15*
X122165000Y-66675000D03*
D12*
G36*
X124635671Y-65994030D02*
G01*
X124716777Y-66048223D01*
X124770970Y-66129329D01*
X124790000Y-66224999D01*
X124790000Y-67125001D01*
X124770970Y-67220671D01*
X124716777Y-67301777D01*
X124635671Y-67355970D01*
X124540001Y-67375000D01*
X123889999Y-67375000D01*
X123794329Y-67355970D01*
X123713223Y-67301777D01*
X123659030Y-67220671D01*
X123640000Y-67125001D01*
X123640000Y-66224999D01*
X123659030Y-66129329D01*
X123713223Y-66048223D01*
X123794329Y-65994030D01*
X123889999Y-65975000D01*
X124540001Y-65975000D01*
X124635671Y-65994030D01*
X124635671Y-65994030D01*
G37*
D15*
X124215000Y-66675000D03*
D12*
G36*
X110665671Y-66629030D02*
G01*
X110746777Y-66683223D01*
X110800970Y-66764329D01*
X110820000Y-66859999D01*
X110820000Y-67760001D01*
X110800970Y-67855671D01*
X110746777Y-67936777D01*
X110665671Y-67990970D01*
X110570001Y-68010000D01*
X109919999Y-68010000D01*
X109824329Y-67990970D01*
X109743223Y-67936777D01*
X109689030Y-67855671D01*
X109670000Y-67760001D01*
X109670000Y-66859999D01*
X109689030Y-66764329D01*
X109743223Y-66683223D01*
X109824329Y-66629030D01*
X109919999Y-66610000D01*
X110570001Y-66610000D01*
X110665671Y-66629030D01*
X110665671Y-66629030D01*
G37*
D15*
X110245000Y-67310000D03*
D12*
G36*
X108615671Y-66629030D02*
G01*
X108696777Y-66683223D01*
X108750970Y-66764329D01*
X108770000Y-66859999D01*
X108770000Y-67760001D01*
X108750970Y-67855671D01*
X108696777Y-67936777D01*
X108615671Y-67990970D01*
X108520001Y-68010000D01*
X107869999Y-68010000D01*
X107774329Y-67990970D01*
X107693223Y-67936777D01*
X107639030Y-67855671D01*
X107620000Y-67760001D01*
X107620000Y-66859999D01*
X107639030Y-66764329D01*
X107693223Y-66683223D01*
X107774329Y-66629030D01*
X107869999Y-66610000D01*
X108520001Y-66610000D01*
X108615671Y-66629030D01*
X108615671Y-66629030D01*
G37*
D15*
X108195000Y-67310000D03*
D12*
G36*
X105955671Y-65874030D02*
G01*
X106036777Y-65928223D01*
X106090970Y-66009329D01*
X106110000Y-66104999D01*
X106110000Y-66755001D01*
X106090970Y-66850671D01*
X106036777Y-66931777D01*
X105955671Y-66985970D01*
X105860001Y-67005000D01*
X104959999Y-67005000D01*
X104864329Y-66985970D01*
X104783223Y-66931777D01*
X104729030Y-66850671D01*
X104710000Y-66755001D01*
X104710000Y-66104999D01*
X104729030Y-66009329D01*
X104783223Y-65928223D01*
X104864329Y-65874030D01*
X104959999Y-65855000D01*
X105860001Y-65855000D01*
X105955671Y-65874030D01*
X105955671Y-65874030D01*
G37*
D15*
X105410000Y-66430000D03*
D12*
G36*
X105955671Y-63824030D02*
G01*
X106036777Y-63878223D01*
X106090970Y-63959329D01*
X106110000Y-64054999D01*
X106110000Y-64705001D01*
X106090970Y-64800671D01*
X106036777Y-64881777D01*
X105955671Y-64935970D01*
X105860001Y-64955000D01*
X104959999Y-64955000D01*
X104864329Y-64935970D01*
X104783223Y-64881777D01*
X104729030Y-64800671D01*
X104710000Y-64705001D01*
X104710000Y-64054999D01*
X104729030Y-63959329D01*
X104783223Y-63878223D01*
X104864329Y-63824030D01*
X104959999Y-63805000D01*
X105860001Y-63805000D01*
X105955671Y-63824030D01*
X105955671Y-63824030D01*
G37*
D15*
X105410000Y-64380000D03*
M02*
